<svg xmlns="http://www.w3.org/2000/svg" width="85" height="73.022" viewBox="0 0 85 73.022">
  <g id="Grupo_980853" data-name="Grupo 980853" transform="translate(-218 -3906)">
    <path id="Trazado_611447" data-name="Trazado 611447" d="M2593.095-261.693h-33.611c-5.263,0-8.8-3.52-8.8-8.762q0-27.752,0-55.5c0-5.212,3.532-8.756,8.723-8.756q33.777,0,67.555,0a8.293,8.293,0,0,1,8.718,8.677q.005,27.835,0,55.669a8.3,8.3,0,0,1-8.723,8.674Q2610.025-261.691,2593.095-261.693Zm-5.689-17.595c-.238,1.245-.746,1.662-2.052,1.662q-15.268,0-30.535-.011c-.6,0-.854.087-.837.785.052,2.21.013,4.423.021,6.635a4.976,4.976,0,0,0,5.219,5.2q33.978,0,67.957,0a4.969,4.969,0,0,0,5.178-5.161c.01-2.157-.034-4.314.021-6.47.02-.766-.127-1.005-.961-1-10.095.035-20.19.023-30.286.022-1.381,0-1.834-.352-2.156-1.661.33-1.3.791-1.657,2.167-1.657,7.911,0,15.823-.01,23.734.016.672,0,.862-.13.86-.838q-.037-21.072,0-42.143c0-.661-.113-.867-.831-.866q-31.742.034-63.485,0c-.678,0-.79.206-.789.822q.026,21.113,0,42.227c0,.665.186.8.815.8q11.95-.032,23.9-.013C2586.648-280.943,2587.159-280.525,2587.405-279.288Zm5.816-52.108h-33.7c-3.495,0-5.52,2.012-5.52,5.486q0,21.325,0,42.65c0,.742-.252,1.739.125,2.158.439.487,1.459.069,2.217.168.78.1,1-.134,1-.958q-.044-21.947-.021-43.894c0-1.806.492-2.29,2.325-2.29h67.066c1.834,0,2.326.484,2.326,2.29v42.069c0,.719.039,1.441-.013,2.157-.039.54.166.659.656.626a11.134,11.134,0,0,1,1.824,0c.67.066.872-.118.871-.835q-.036-22.113-.019-44.226c0-3.364-2.055-5.4-5.438-5.4Z" transform="translate(-2332.681 4240.716)"/>
    <path id="Trazado_611448" data-name="Trazado 611448" d="M2607.36-259.344c-.246-1.237-.757-1.655-2.064-1.655q-11.95,0-23.9.013c-.629,0-.816-.131-.815-.8q.033-21.113,0-42.227c0-.616.111-.823.789-.822q31.742.031,63.485,0c.719,0,.832.206.831.866q-.03,21.072,0,42.144c0,.708-.189.84-.86.838-7.911-.025-15.823-.017-23.734-.016-1.376,0-1.837.357-2.167,1.657h-4.1c-.214-1.067-.769-1.627-1.635-1.649s-1.45.525-1.737,1.65Zm5.726-4.975a18.61,18.61,0,0,0,18.643-18.561,18.605,18.605,0,0,0-18.5-18.615,18.606,18.606,0,0,0-18.684,18.519A18.608,18.608,0,0,0,2613.086-264.319Z" transform="translate(-2352.58 4220.832)" fill="#e2f4fa"/>
    <path id="Trazado_611449" data-name="Trazado 611449" d="M2601.5-168.07h4.1c.322,1.309.775,1.661,2.156,1.661,10.1,0,20.191.013,30.286-.022.834,0,.981.236.962,1-.055,2.155-.011,4.313-.022,6.47a4.969,4.969,0,0,1-5.178,5.161q-33.979.005-67.957,0a4.976,4.976,0,0,1-5.219-5.2c-.007-2.212.032-4.425-.021-6.635-.017-.7.234-.786.837-.785q15.267.024,30.535.011c1.305,0,1.813-.417,2.052-1.662h4.1c.283,1.146.845,1.683,1.738,1.661S2601.29-166.982,2601.5-168.07Zm2.692,9.629h26.89a7.073,7.073,0,0,0,.747-.01,1.664,1.664,0,0,0,1.5-1.6,1.662,1.662,0,0,0-1.424-1.677,6.159,6.159,0,0,0-.911-.027h-27.8q-13.113,0-26.226,0c-.381,0-.722.062-.883-.468a1.451,1.451,0,0,0-1.518-1.051,1.476,1.476,0,0,0-1.52,1.054c-.132.4-.34.476-.715.471q-2.116-.028-4.232,0a1.68,1.68,0,0,0-1.826,1.628,1.674,1.674,0,0,0,1.845,1.685c1.355.01,2.711.015,4.066,0,.448-.006.736.044.9.565a1.429,1.429,0,0,0,1.489.971,1.38,1.38,0,0,0,1.442-.91c.187-.616.538-.625,1.033-.625Q2590.622-158.435,2604.191-158.441Z" transform="translate(-2339.304 4129.498)" fill="#83b1f8"/>
    <path id="Trazado_611450" data-name="Trazado 611450" d="M2599.724-324.735h33.7c3.383,0,5.438,2.04,5.438,5.4q0,22.113.019,44.226c0,.716-.2.9-.871.835a11.137,11.137,0,0,0-1.824,0c-.49.033-.695-.085-.656-.626.052-.715.013-1.438.013-2.157v-42.069c0-1.807-.492-2.29-2.326-2.29H2566.15c-1.833,0-2.325.484-2.325,2.29q0,21.948.021,43.895c0,.824-.217,1.059-1,.958-.757-.1-1.778.32-2.217-.168-.377-.418-.125-1.416-.125-2.158q0-21.325,0-42.65c0-3.474,2.026-5.486,5.521-5.486Z" transform="translate(-2339.184 4234.055)" fill="#83b1f8"/>
    <path id="Trazado_611452" data-name="Trazado 611452" d="M2676.792-171.38q-.315,1.632-1.634,1.662c-.894.022-1.456-.515-1.739-1.661.288-1.125.863-1.672,1.737-1.65S2676.577-172.447,2676.792-171.38Z" transform="translate(-2414.596 4132.808)" fill="#030202"/>
    <path id="Trazado_611453" data-name="Trazado 611453" d="M2615.567-148.827q-13.57,0-27.139-.006c-.495,0-.846.008-1.033.625a1.38,1.38,0,0,1-1.442.91,1.429,1.429,0,0,1-1.49-.971c-.166-.522-.455-.572-.9-.565-1.355.019-2.711.015-4.066,0a1.674,1.674,0,0,1-1.845-1.685,1.68,1.68,0,0,1,1.826-1.628q2.116-.024,4.232,0c.375,0,.583-.072.715-.471a1.476,1.476,0,0,1,1.52-1.054,1.452,1.452,0,0,1,1.518,1.051c.16.53.5.468.883.468q13.113,0,26.226,0h27.8a6.162,6.162,0,0,1,.911.027,1.663,1.663,0,0,1,1.424,1.677,1.664,1.664,0,0,1-1.5,1.6,7.068,7.068,0,0,1-.747.01Z" transform="translate(-2350.68 4119.883)"/>
    <path id="Trazado_655324" data-name="Trazado 655324" d="M0,0H43V40H0Z" transform="translate(240 3918)" fill="#e2f4fa"/>
    <path id="Trazado_655325" data-name="Trazado 655325" d="M-12.735-3.9l.958-5.607h2.839L-11.18,0h-2.5l-1.573-5.643L-16.84,0h-2.5l-2.241-9.51h2.839l.94,5.739,1.512-5.739h2.065ZM.334-3.9,1.292-9.51H4.131L1.89,0h-2.5L-2.188-5.643-3.771,0h-2.5L-8.517-9.51h2.839l.94,5.739L-3.226-9.51H-1.16ZM13.4-3.9l.958-5.607H17.2L14.959,0h-2.5L10.881-5.643,9.3,0h-2.5L4.553-9.51H7.392l.94,5.739L9.844-9.51h2.065ZM19-2.874a1.686,1.686,0,0,1,1.169.417,1.37,1.37,0,0,1,.466,1.068,1.37,1.37,0,0,1-.466,1.068A1.686,1.686,0,0,1,19,.1a1.672,1.672,0,0,1-1.173-.422,1.379,1.379,0,0,1-.461-1.063,1.379,1.379,0,0,1,.461-1.063A1.672,1.672,0,0,1,19-2.874Z" transform="translate(261 3946)" fill="#12263f"/>
  </g>
</svg>
