<svg xmlns="http://www.w3.org/2000/svg" xmlns:xlink="http://www.w3.org/1999/xlink" width="610" height="638" viewBox="0 0 610 638">
  <defs>
    <clipPath id="clip-path">
      <rect id="Rectángulo_341208" data-name="Rectángulo 341208" width="610" height="638" transform="translate(810 3846)" fill="none" stroke="#707070" stroke-width="1"/>
    </clipPath>
    <clipPath id="clip-path-2">
      <rect id="Rectángulo_333213" data-name="Rectángulo 333213" width="215.986" height="203.454" fill="none"/>
    </clipPath>
    <clipPath id="clip-path-3">
      <rect id="Rectángulo_333206" data-name="Rectángulo 333206" width="215.986" height="232.694" fill="none"/>
    </clipPath>
    <clipPath id="clip-path-5">
      <rect id="Rectángulo_333210" data-name="Rectángulo 333210" width="77.488" height="64.865" fill="none"/>
    </clipPath>
    <clipPath id="clip-path-6">
      <rect id="Rectángulo_333211" data-name="Rectángulo 333211" width="49.663" height="39.174" fill="none"/>
    </clipPath>
    <clipPath id="clip-path-7">
      <rect id="Rectángulo_333199" data-name="Rectángulo 333199" width="462.784" height="364.15" transform="translate(-72.909 28)" fill="none"/>
    </clipPath>
    <clipPath id="clip-path-8">
      <rect id="Rectángulo_333205" data-name="Rectángulo 333205" width="389.875" height="358.036" fill="none"/>
    </clipPath>
    <clipPath id="clip-path-9">
      <rect id="Rectángulo_333218" data-name="Rectángulo 333218" width="140.001" height="201.377" fill="none"/>
    </clipPath>
    <clipPath id="clip-path-10">
      <rect id="Rectángulo_333217" data-name="Rectángulo 333217" width="140" height="201.377" fill="none"/>
    </clipPath>
    <clipPath id="clip-path-11">
      <rect id="Rectángulo_333214" data-name="Rectángulo 333214" width="30.8" height="52.857" fill="none"/>
    </clipPath>
    <clipPath id="clip-path-12">
      <rect id="Rectángulo_333215" data-name="Rectángulo 333215" width="57.566" height="29.027" fill="none"/>
    </clipPath>
    <clipPath id="clip-path-13">
      <rect id="Rectángulo_333220" data-name="Rectángulo 333220" width="113.73" height="202.132" fill="none"/>
    </clipPath>
    <clipPath id="clip-path-14">
      <rect id="Rectángulo_333219" data-name="Rectángulo 333219" width="220.158" height="127.596" fill="none"/>
    </clipPath>
    <clipPath id="clip-path-15">
      <rect id="Rectángulo_333241" data-name="Rectángulo 333241" width="181.617" height="135.633" fill="none"/>
    </clipPath>
    <clipPath id="clip-path-16">
      <rect id="Rectángulo_333222" data-name="Rectángulo 333222" width="102.472" height="103.669" fill="none"/>
    </clipPath>
    <clipPath id="clip-path-17">
      <rect id="Rectángulo_333198" data-name="Rectángulo 333198" width="198.924" height="519.328" fill="none"/>
    </clipPath>
    <clipPath id="clip-path-19">
      <rect id="Rectángulo_333195" data-name="Rectángulo 333195" width="38.449" height="36.278" fill="none"/>
    </clipPath>
    <clipPath id="clip-path-20">
      <rect id="Rectángulo_333196" data-name="Rectángulo 333196" width="21.09" height="26.916" fill="none"/>
    </clipPath>
  </defs>
  <g id="Enmascarar_grupo_927505" data-name="Enmascarar grupo 927505" transform="translate(-810 -3846)" clip-path="url(#clip-path)">
    <g id="Grupo_925227" data-name="Grupo 925227" transform="translate(-12.584 752.262)">
      <g id="Grupo_924786" data-name="Grupo 924786" transform="translate(1190.725 3052.033)">
        <g id="Enmascarar_grupo_924785" data-name="Enmascarar grupo 924785" transform="translate(0 0)" clip-path="url(#clip-path-2)">
          <g id="Grupo_924776" data-name="Grupo 924776" transform="translate(0 -29.241)">
            <g id="Grupo_924775" data-name="Grupo 924775" clip-path="url(#clip-path-3)">
              <path id="Trazado_623328" data-name="Trazado 623328" d="M33.809,6.6a18.586,18.586,0,0,1,4.537-1.973L39.281.133,46.868,0l1.092,4.456a18.588,18.588,0,0,1,4.6,1.811L56.4,3.753l5.459,5.272-2.377,3.92a18.6,18.6,0,0,1,1.973,4.539l4.49.934.134,7.587L61.623,27.1a18.581,18.581,0,0,1-1.811,4.6l2.513,3.835L57.054,41l-3.92-2.377A18.638,18.638,0,0,1,48.6,40.592l-.934,4.491-7.588.133L38.98,40.76a18.648,18.648,0,0,1-4.6-1.811l-3.835,2.513-5.46-5.271,2.377-3.92a18.6,18.6,0,0,1-1.971-4.539L21,26.8l-.133-7.587,4.456-1.093a18.58,18.58,0,0,1,1.811-4.6L24.616,9.679l5.272-5.46ZM37.853,16.7a8.141,8.141,0,1,0,11.512-.2,8.141,8.141,0,0,0-11.512.2" transform="translate(154.996 229.362)" fill="#e0e0e0"/>
            </g>
          </g>
          <rect id="Rectángulo_333207" data-name="Rectángulo 333207" width="215.473" height="161.074" transform="translate(0.281 42.125)" fill="#fff"/>
          <rect id="Rectángulo_333208" data-name="Rectángulo 333208" width="215.473" height="19.909" transform="translate(0.281 42.126)" fill="#e0e0e0"/>
          <g id="Grupo_924784" data-name="Grupo 924784" transform="translate(0 -29.241)">
            <g id="Grupo_924783" data-name="Grupo 924783" clip-path="url(#clip-path-3)">
              <path id="Trazado_623329" data-name="Trazado 623329" d="M14.253,75.413a2.87,2.87,0,1,1-2.869-2.869,2.869,2.869,0,0,1,2.869,2.869" transform="translate(0.693 5.908)" fill="#fff"/>
              <path id="Trazado_623330" data-name="Trazado 623330" d="M23.2,75.413a2.87,2.87,0,1,1-2.869-2.869A2.869,2.869,0,0,1,23.2,75.413" transform="translate(1.422 5.908)" fill="#fff"/>
              <path id="Trazado_623331" data-name="Trazado 623331" d="M32.144,75.413a2.87,2.87,0,1,1-2.869-2.869,2.869,2.869,0,0,1,2.869,2.869" transform="translate(2.15 5.908)" fill="#fff"/>
              <path id="Trazado_623332" data-name="Trazado 623332" d="M215.756,227.087s-.017-1.01-.025-2.946-.015-4.808-.027-8.553c-.013-7.494-.034-18.492-.058-32.536-.029-28.067-.07-68.307-.12-117.039l.23.23L.3,66.294H.282l.281-.281C.554,123.9.544,178.735.536,227.087l-.254-.254,155.537.127,44.17.068,11.716.03,3.018.014c.679.005,1.032.015,1.032.015s-.333.01-1,.015l-2.99.014-11.665.03-44.113.068-155.7.127H.027v-.254C.019,178.735.01,123.9,0,66.013v-.281H.3l215.456.051h.231v.23c-.05,48.791-.091,89.081-.12,117.184-.025,14.022-.045,25-.058,32.484-.012,3.726-.021,6.578-.027,8.51s-.025,2.9-.025,2.9" transform="translate(0 5.353)" fill="#263238"/>
              <path id="Trazado_623333" data-name="Trazado 623333" d="M202.957,155.775c0,.156-42.881.281-95.766.281-52.9,0-95.774-.125-95.774-.281s42.873-.281,95.774-.281c52.884,0,95.766.125,95.766.281" transform="translate(0.93 12.663)" fill="#e0e0e0"/>
              <path id="Trazado_623334" data-name="Trazado 623334" d="M202.957,140.485c0,.156-42.881.281-95.766.281-52.9,0-95.774-.125-95.774-.281s42.873-.281,95.774-.281c52.884,0,95.766.125,95.766.281" transform="translate(0.93 11.418)" fill="#e0e0e0"/>
              <path id="Trazado_623335" data-name="Trazado 623335" d="M202.957,125.194c0,.156-42.881.281-95.766.281-52.9,0-95.774-.125-95.774-.281s42.873-.281,95.774-.281c52.884,0,95.766.125,95.766.281" transform="translate(0.93 10.173)" fill="#e0e0e0"/>
              <path id="Trazado_623336" data-name="Trazado 623336" d="M202.957,109.9c0,.156-42.881.281-95.766.281-52.9,0-95.774-.125-95.774-.281s42.873-.281,95.774-.281c52.884,0,95.766.125,95.766.281" transform="translate(0.93 8.928)" fill="#e0e0e0"/>
              <path id="Trazado_623337" data-name="Trazado 623337" d="M189.517,159.507c-3.733-9.008-6.292-18.852-9.155-28.181-2.492-8.123-2.723-11.919-4.861-18.779-3.368-10.807-12.284-12-18.765-9.074-5.776,2.61-8.269,9.4-10.185,15.51q-3.439,10.959-6.877,21.92a38.831,38.831,0,0,1-4.194,9.992c-2,3.016-5.038,5.519-8.591,5.988-5.857.772-11.1-4.131-13.607-9.555s-3.2-11.537-5.436-17.079S101,119.391,95.094,119.284c-7.272-.132-12.213,7.289-15.236,13.995a159.958,159.958,0,0,0-9.168,26.213c-.781,3.062-1.489,6.2-3.045,8.937s-4.139,5.084-7.235,5.464c-3.993.49-7.7-2.356-10.022-5.685s-3.75-7.237-6.127-10.527-6.207-6.018-10.171-5.327c-3.56.622-6.107,3.74-8.211,6.716a157.352,157.352,0,0,0-14.711,25.605H209.288c-9.125-3.143-16.038-16.16-19.771-25.168" transform="translate(0.909 8.315)" fill="#529d2e"/>
              <rect id="Rectángulo_333209" data-name="Rectángulo 333209" width="9.356" height="9.356" transform="translate(58.385 205.964)" fill="#ff725e"/>
              <path id="Trazado_623338" data-name="Trazado 623338" d="M120.5,194.941H71.711a1.075,1.075,0,0,1,0-2.15H120.5a1.075,1.075,0,1,1,0,2.15" transform="translate(5.752 15.701)" fill="#263238"/>
              <path id="Trazado_623339" data-name="Trazado 623339" d="M200.713,184.976s-.241.019-.713.029l-2.093.028-8.044.052-29.585.09-97.606.082-51.486-.019h-.262v-.262c.041-25.384.077-47.02.1-62.331.031-7.632.057-13.687.075-17.853.017-2.06.031-3.65.041-4.748.01-.526.016-.929.022-1.222.008-.275.022-.414.022-.414s.015.14.023.414c0,.293.012.7.022,1.222.009,1.1.023,2.687.041,4.748.017,4.167.042,10.222.075,17.853.025,15.311.061,36.947.1,62.331l-.262-.262,51.486-.019,97.606.082,29.585.09,8.044.053,2.093.027c.472.01.713.029.713.029" transform="translate(0.89 8.014)" fill="#263238"/>
              <g id="Grupo_924779" data-name="Grupo 924779" transform="translate(108.018 128.125)" opacity="0.3">
                <g id="Grupo_924778" data-name="Grupo 924778">
                  <g id="Grupo_924777" data-name="Grupo 924777" clip-path="url(#clip-path-5)">
                    <path id="Trazado_623340" data-name="Trazado 623340" d="M170.2,118.477,99.884,183.341h35.158l42.331-39.188Z" transform="translate(-99.884 -118.477)" fill="#fff"/>
                  </g>
                </g>
              </g>
              <g id="Grupo_924782" data-name="Grupo 924782" transform="translate(67.74 153.816)" opacity="0.3">
                <g id="Grupo_924781" data-name="Grupo 924781">
                  <g id="Grupo_924780" data-name="Grupo 924780" clip-path="url(#clip-path-6)">
                    <path id="Trazado_623341" data-name="Trazado 623341" d="M111.287,147.733,72.6,181.407H62.64l45.683-39.174,3.98,6.742" transform="translate(-62.639 -142.233)" fill="#fff"/>
                  </g>
                </g>
              </g>
              <path id="Trazado_623342" data-name="Trazado 623342" d="M11.167,184.694a124.851,124.851,0,0,1,6.506-12.935,147.043,147.043,0,0,1,9.2-14.291,18.176,18.176,0,0,1,3.613-3.691A8.2,8.2,0,0,1,35.7,152.1a9.923,9.923,0,0,1,5.417,2.111,16.786,16.786,0,0,1,4.106,4.559c2.284,3.509,3.742,7.753,6.769,11.114a11.968,11.968,0,0,0,5.676,3.624,7.468,7.468,0,0,0,3.44.042,8.289,8.289,0,0,0,3.168-1.531,13.456,13.456,0,0,0,4.213-5.906,61.541,61.541,0,0,0,2.143-7.373,159.66,159.66,0,0,1,4.821-15.385q1.432-3.883,3.112-7.78a55.311,55.311,0,0,1,3.842-7.684,22.8,22.8,0,0,1,5.827-6.581,12.074,12.074,0,0,1,4.065-1.953,10.805,10.805,0,0,1,4.557-.132,13.6,13.6,0,0,1,7.65,4.887,24.317,24.317,0,0,1,4.374,8.168c.993,2.956,1.679,6.008,2.539,9.016a30.658,30.658,0,0,0,3.626,8.622,15.8,15.8,0,0,0,6.923,6.025,9.534,9.534,0,0,0,8.723-.711,15.983,15.983,0,0,0,5.86-6.754,57.674,57.674,0,0,0,3.112-8.464l5.293-16.848c.879-2.746,1.673-5.488,2.653-8.152a28.932,28.932,0,0,1,3.849-7.481,14.192,14.192,0,0,1,2.937-2.954,13.682,13.682,0,0,1,3.66-1.88,16.167,16.167,0,0,1,3.975-.8,14.565,14.565,0,0,1,3.993.333,12.227,12.227,0,0,1,6.513,4.166,19.175,19.175,0,0,1,3.371,6.717c1.45,4.705,2.241,9.39,3.408,13.774.566,2.2,1.225,4.323,1.855,6.414s1.222,4.14,1.811,6.138a187.885,187.885,0,0,0,7.209,21.274,73.327,73.327,0,0,0,8.2,14.8A30.265,30.265,0,0,0,205.961,183a17.686,17.686,0,0,0,2.458,1.3c.576.25.867.393.867.393s-.3-.106-.888-.34a16.176,16.176,0,0,1-2.5-1.254,29.867,29.867,0,0,1-7.68-7.458,72.632,72.632,0,0,1-8.315-14.8,185.792,185.792,0,0,1-7.3-21.286q-.892-2.994-1.828-6.13c-.635-2.084-1.3-4.219-1.876-6.424-1.184-4.407-1.983-9.081-3.435-13.749a18.711,18.711,0,0,0-3.294-6.545,11.736,11.736,0,0,0-6.26-3.993,14.055,14.055,0,0,0-3.843-.314,15.739,15.739,0,0,0-3.843.78,12.823,12.823,0,0,0-6.348,4.667,28.433,28.433,0,0,0-3.766,7.351c-.966,2.635-1.76,5.382-2.637,8.13q-2.587,8.26-5.279,16.851a58.037,58.037,0,0,1-3.142,8.55,16.529,16.529,0,0,1-6.069,6.984,10.059,10.059,0,0,1-9.223.752,16.348,16.348,0,0,1-7.181-6.234,31.146,31.146,0,0,1-3.7-8.779c-.865-3.029-1.549-6.073-2.529-8.992a23.741,23.741,0,0,0-4.271-7.989,13.054,13.054,0,0,0-7.328-4.7,10.269,10.269,0,0,0-4.318.122,11.525,11.525,0,0,0-3.882,1.864,22.308,22.308,0,0,0-5.687,6.423,54.944,54.944,0,0,0-3.814,7.608q-1.674,3.879-3.11,7.751a159.281,159.281,0,0,0-4.829,15.328,62.289,62.289,0,0,1-2.174,7.428,13.947,13.947,0,0,1-4.381,6.1A8.744,8.744,0,0,1,61.213,174a7.909,7.909,0,0,1-3.65-.052,12.381,12.381,0,0,1-5.888-3.768c-3.1-3.471-4.537-7.728-6.787-11.194a16.371,16.371,0,0,0-3.995-4.471,9.568,9.568,0,0,0-5.206-2.056,7.863,7.863,0,0,0-5,1.593,17.94,17.94,0,0,0-3.561,3.61,150.517,150.517,0,0,0-9.26,14.207c-2.327,4.036-3.961,7.267-5.052,9.464q-.8,1.642-1.218,2.512c-.274.567-.426.851-.426.851" transform="translate(0.909 8.297)" fill="#263238"/>
            </g>
          </g>
        </g>
      </g>
      <g id="Grupo_924774" data-name="Grupo 924774" transform="translate(914.494 3065.304)">
        <g id="Grupo_924771" data-name="Grupo 924771">
          <g id="Grupo_924770" data-name="Grupo 924770" clip-path="url(#clip-path-7)">
            <path id="Trazado_623302" data-name="Trazado 623302" d="M111.648,11.389a32.065,32.065,0,0,1,7.834-3.4L121.1.23,134.2,0l1.884,7.692a32.1,32.1,0,0,1,7.95,3.128l6.62-4.34,9.427,9.1-4.1,6.768a32.1,32.1,0,0,1,3.4,7.835l7.753,1.614.23,13.1-7.692,1.886a32.1,32.1,0,0,1-3.128,7.947l4.34,6.622-9.1,9.427-6.768-4.1a32.1,32.1,0,0,1-7.835,3.4l-1.614,7.755-13.1.23-1.886-7.693a32.04,32.04,0,0,1-7.947-3.126l-6.622,4.34-9.427-9.1,4.105-6.768a32.017,32.017,0,0,1-3.4-7.835l-7.755-1.614-.23-13.1L96.99,31.28a32.1,32.1,0,0,1,3.126-7.947l-4.34-6.622,9.1-9.427Zm6.984,17.452a14.056,14.056,0,1,0,19.875-.35,14.054,14.054,0,0,0-19.875.35" transform="translate(-162.206 63)" fill="#e0e0e0"/>
            <path id="Trazado_623303" data-name="Trazado 623303" d="M109.04,175.189a50.6,50.6,0,0,1,12.349-5.367l2.544-12.223,20.65-.362,2.972,12.124a50.565,50.565,0,0,1,12.529,4.929l10.437-6.842L185.381,181.8l-6.469,10.669a50.608,50.608,0,0,1,5.367,12.35L196.5,207.36l.362,20.65-12.124,2.972a50.566,50.566,0,0,1-4.929,12.529l6.84,10.437L172.3,268.809l-10.67-6.469a50.607,50.607,0,0,1-12.35,5.367l-2.544,12.223-20.65.362-2.972-12.126a50.7,50.7,0,0,1-12.529-4.929l-10.437,6.842L85.292,255.731l6.468-10.67a50.582,50.582,0,0,1-5.367-12.35l-12.222-2.544-.363-20.65,12.126-2.972a50.706,50.706,0,0,1,4.929-12.529l-6.84-10.437,14.345-14.859Zm11.008,27.51a22.156,22.156,0,1,0,31.33-.551,22.157,22.157,0,0,0-31.33.551" transform="translate(59.602 106.986)" fill="#ebebeb"/>
          </g>
        </g>
        <rect id="Rectángulo_333200" data-name="Rectángulo 333200" width="389.168" height="280.846" transform="translate(0.389 57.209)" fill="#fff"/>
        <g id="Grupo_924773" data-name="Grupo 924773">
          <g id="Grupo_924772" data-name="Grupo 924772" clip-path="url(#clip-path-8)">
            <path id="Trazado_623304" data-name="Trazado 623304" d="M253.454,145.634H161.239a27.768,27.768,0,0,1-27.768-27.768v-9.215a27.768,27.768,0,0,1,27.768-27.768h92.215a27.768,27.768,0,0,1,27.768,27.768v9.215a27.768,27.768,0,0,1-27.768,27.768" transform="translate(65.994 39.992)" fill="#ebebeb"/>
            <path id="Trazado_623305" data-name="Trazado 623305" d="M18.923,149.592a60.208,60.208,0,1,1,61.166,59.5,60.428,60.428,0,0,1-61.166-59.5m88.982-1.436a28.787,28.787,0,1,0-28.321,29.381A28.88,28.88,0,0,0,107.9,148.156" transform="translate(9.352 43.578)" fill="#f5f5f5"/>
            <path id="Trazado_623306" data-name="Trazado 623306" d="M18.924,149.59A60.425,60.425,0,0,1,78.154,88.141l.505,31.561a28.92,28.92,0,0,0,.925,57.832l.5,31.56a60.4,60.4,0,0,1-61.165-59.5" transform="translate(9.353 43.581)" fill="#455a64"/>
            <path id="Trazado_623307" data-name="Trazado 623307" d="M97.637,137.811a2.114,2.114,0,0,1,.024.468c0,.353-.006.805-.009,1.376a13.446,13.446,0,0,1-.152,2.231A20.293,20.293,0,0,1,97,144.9a27.411,27.411,0,0,1-3,7.816,28.841,28.841,0,0,1-34.649,13.2,30.319,30.319,0,0,1-3.835-1.615,30.763,30.763,0,0,1-3.615-2.249,32.347,32.347,0,0,1-3.352-2.771,32.74,32.74,0,0,1-2.914-3.345,28.45,28.45,0,0,1-4.3-7.989,29.04,29.04,0,0,1-.3-18.449,28.492,28.492,0,0,1,4.041-8.125,32.609,32.609,0,0,1,2.805-3.437,32.44,32.44,0,0,1,3.262-2.878,26.674,26.674,0,0,1,7.323-4.105A28.931,28.931,0,0,1,93.525,123.03a27.439,27.439,0,0,1,3.246,7.714,20.554,20.554,0,0,1,.6,3,13.416,13.416,0,0,1,.224,2.227c.021.569.039,1.022.052,1.375a2.059,2.059,0,0,1-.009.468,2.1,2.1,0,0,1-.07-.465c-.034-.351-.076-.8-.13-1.366a14.427,14.427,0,0,0-.3-2.2,21.186,21.186,0,0,0-.662-2.954,27.727,27.727,0,0,0-3.324-7.566,28.705,28.705,0,0,0-7.4-8,28.228,28.228,0,0,0-27.029-3.636,30.052,30.052,0,0,0-3.682,1.707,30.3,30.3,0,0,0-3.443,2.318,31.691,31.691,0,0,0-3.173,2.811,32.122,32.122,0,0,0-2.726,3.355,27.787,27.787,0,0,0-3.924,7.918,30.627,30.627,0,0,0-1.318,9.006,28.735,28.735,0,0,0,5.783,16.742,32.062,32.062,0,0,0,2.832,3.264,31.592,31.592,0,0,0,3.261,2.706,26.093,26.093,0,0,0,7.251,3.791,28.232,28.232,0,0,0,26.9-4.507,28.7,28.7,0,0,0,7.139-8.231,27.74,27.74,0,0,0,3.082-7.67,21.006,21.006,0,0,0,.566-2.975,14.282,14.282,0,0,0,.226-2.21c.036-.568.064-1.018.087-1.369a2.174,2.174,0,0,1,.055-.468" transform="translate(19.62 53.923)" fill="#263238"/>
            <path id="Trazado_623308" data-name="Trazado 623308" d="M18.923,149.7s.049.33.1.974c.054.674.13,1.624.229,2.862.048.631.1,1.332.158,2.107.093.771.272,1.605.421,2.514s.33,1.884.513,2.928a32.063,32.063,0,0,0,.837,3.277A57.912,57.912,0,0,0,28.1,180.264,60.1,60.1,0,0,0,43.6,197.1L46.22,199c.913.6,1.886,1.122,2.842,1.7.976.539,1.907,1.19,2.949,1.659s2.08.962,3.137,1.45l1.593.737c.554.191,1.112.387,1.672.581l3.4,1.184c1.149.372,2.355.59,3.548.9a30.706,30.706,0,0,0,3.642.773,55.326,55.326,0,0,0,7.6.764c1.294.022,2.6.132,3.912.087q1.968-.132,3.966-.271c.665-.057,1.338-.061,2-.166l2-.341c1.33-.247,2.687-.42,4.022-.729a65.438,65.438,0,0,0,15.705-6.082c1.245-.722,2.449-1.536,3.687-2.306a31.287,31.287,0,0,0,3.567-2.566,66.84,66.84,0,0,0,6.683-5.915l2.986-3.412.752-.859.667-.927,1.341-1.861,1.345-1.87,1.167-2,1.17-2.007.587-1.006.49-1.06q.977-2.125,1.962-4.264.771-2.224,1.548-4.467a64.353,64.353,0,0,0,2.781-18.962,64.365,64.365,0,0,0-3.382-18.872q-.85-2.215-1.692-4.415-1.051-2.109-2.1-4.2l-.523-1.045-.62-.988-1.233-1.967-1.231-1.959-1.406-1.826-1.4-1.817-.7-.906-.779-.834-3.095-3.315a66.85,66.85,0,0,0-6.871-5.7,31.63,31.63,0,0,0-3.648-2.452c-1.263-.728-2.493-1.5-3.762-2.183A65.166,65.166,0,0,0,90.6,89.72c-1.345-.265-2.706-.4-4.045-.6l-2-.276c-.667-.082-1.339-.064-2.006-.1-1.335-.051-2.659-.1-3.972-.143-1.314,0-2.615.149-3.908.215A55.667,55.667,0,0,0,67.1,89.825a31.078,31.078,0,0,0-3.617.891c-1.181.345-2.379.6-3.516,1.015q-1.692.652-3.354,1.293-.832.318-1.654.637l-1.568.786L50.3,96c-1.024.5-1.935,1.181-2.893,1.753-.937.605-1.893,1.161-2.786,1.789l-2.56,1.982a60.159,60.159,0,0,0-14.949,17.331,57.883,57.883,0,0,0-6.4,16.121,31.927,31.927,0,0,0-.732,3.3q-.224,1.574-.418,2.943c-.121.913-.273,1.751-.341,2.526q-.049,1.163-.091,2.11-.09,1.861-.137,2.865c-.036.647-.073.977-.073.977s-.015-.329-.006-.977c.013-.672.034-1.627.06-2.872q.025-.953.054-2.118c.055-.779.2-1.621.3-2.539s.248-1.905.384-2.96a31.913,31.913,0,0,1,.7-3.324,57.567,57.567,0,0,1,6.314-16.266,60.337,60.337,0,0,1,14.985-17.548l2.576-2.01c.9-.637,1.861-1.2,2.805-1.817.964-.581,1.883-1.269,2.914-1.781L53.129,93.9c.525-.268,1.051-.532,1.581-.8l1.668-.649,3.386-1.317c1.148-.418,2.358-.684,3.551-1.037a31.349,31.349,0,0,1,3.652-.91,56.328,56.328,0,0,1,7.652-1.04c1.306-.07,2.621-.223,3.95-.229l4.019.136c.674.034,1.354.018,2.029.1l2.028.275c1.354.2,2.732.333,4.093.6a66.014,66.014,0,0,1,16.1,5.612c1.287.689,2.533,1.471,3.811,2.206a31.954,31.954,0,0,1,3.7,2.476,67.255,67.255,0,0,1,6.963,5.763q1.562,1.668,3.137,3.354l.789.843.707.915,1.418,1.841,1.423,1.847,1.249,1.983,1.251,1.992.628,1,.531,1.057q1.06,2.118,2.127,4.252l1.716,4.474a65,65,0,0,1,3.43,19.112,65.051,65.051,0,0,1-2.82,19.205l-1.572,4.525q-1,2.168-1.989,4.316l-.5,1.073-.595,1.019-1.187,2.031-1.184,2.02-1.364,1.89-1.357,1.885-.677.938-.761.868-3.028,3.449a67.045,67.045,0,0,1-6.773,5.984,31.811,31.811,0,0,1-3.615,2.591c-1.254.779-2.473,1.6-3.736,2.328a63.726,63.726,0,0,1-7.853,3.62,63.027,63.027,0,0,1-8.052,2.509c-1.351.312-2.724.486-4.071.731l-2.017.341c-.673.1-1.352.106-2.025.163q-2.02.137-4.011.266c-1.327.04-2.648-.07-3.956-.1a56.451,56.451,0,0,1-7.68-.791,31.4,31.4,0,0,1-3.681-.792c-1.2-.314-2.421-.541-3.582-.921L58.2,205.7q-.85-.3-1.689-.595l-1.608-.749q-1.6-.744-3.162-1.477c-1.049-.477-1.988-1.136-2.971-1.686-.964-.584-1.944-1.119-2.862-1.726q-1.336-.973-2.641-1.925a60.308,60.308,0,0,1-15.542-17.056,57.494,57.494,0,0,1-6.833-16.056,31.676,31.676,0,0,1-.807-3.3q-.258-1.576-.48-2.947c-.137-.915-.3-1.753-.386-2.527q-.067-1.168-.123-2.116c-.064-1.243-.115-2.2-.151-2.871-.03-.649-.025-.979-.025-.979" transform="translate(9.352 43.473)" fill="#263238"/>
            <path id="Trazado_623309" data-name="Trazado 623309" d="M54.938,84.9c38.833-.626,69.813,29.512,70.436,68.525l-36.753.592c-.3-18.652-14.492-30.4-33.06-30.1Z" transform="translate(27.164 41.972)" fill="#529d2e"/>
            <path id="Trazado_623310" data-name="Trazado 623310" d="M54.944,84.9s.024.256.042.722c.016.5.037,1.185.064,2.056.046,1.835.114,4.464.2,7.823.146,6.776.354,16.488.61,28.414l-.294-.285a41.042,41.042,0,0,1,11.053,1.354,31.586,31.586,0,0,1,10.948,5.335,28.463,28.463,0,0,1,8.3,10.131A31.991,31.991,0,0,1,89,154.007l-.383-.371,28.46-.471,8.293-.133-.381.395a77.147,77.147,0,0,0-3.747-21.744l-1.861-4.962c-.695-1.6-1.514-3.132-2.252-4.678a36.131,36.131,0,0,0-2.506-4.409,40.947,40.947,0,0,0-2.723-4.138l-2.929-3.841c-1.027-1.209-2.133-2.324-3.171-3.466q-.787-.845-1.565-1.681l-1.693-1.5-3.307-2.92A70.772,70.772,0,0,0,85.6,91.681l-3.256-1.506c-1.086-.421-2.168-.765-3.207-1.137s-2.053-.714-3.034-1.057c-.989-.314-1.982-.5-2.922-.741l-2.732-.661-1.291-.312c-.426-.079-.849-.124-1.26-.185l-4.5-.632a27.934,27.934,0,0,0-3.585-.284l-2.641-.132-1.645-.091a5.634,5.634,0,0,1-.581-.046,3.859,3.859,0,0,1,.531-.01c.4.006.936.01,1.618.019q1.105.016,2.675.043a26.256,26.256,0,0,1,3.657.211l4.531.571c.414.057.84.1,1.27.17l1.3.3,2.756.634c.947.236,1.949.411,2.947.717q1.484.5,3.064,1.037c1.048.365,2.142.7,3.238,1.119q1.605.726,3.292,1.493A70.66,70.66,0,0,1,99.63,99.6l3.354,2.932,1.714,1.506q.789.838,1.589,1.692c1.052,1.146,2.173,2.269,3.215,3.487l2.972,3.871a41.327,41.327,0,0,1,2.765,4.171,36.589,36.589,0,0,1,2.544,4.45c.75,1.559,1.583,3.1,2.286,4.721q.937,2.482,1.89,5.012a77.486,77.486,0,0,1,3.811,21.973l.01.387-.393.007-8.293.134-28.46.447-.378.006-.006-.378a31.3,31.3,0,0,0-3.037-13.256,27.811,27.811,0,0,0-8.066-9.9,31.016,31.016,0,0,0-10.7-5.265,40.6,40.6,0,0,0-10.872-1.39h-.291l0-.284c-.127-12-.23-21.776-.3-28.6-.021-3.331-.039-5.94-.051-7.759V85.56a5.15,5.15,0,0,1,.019-.664" transform="translate(27.157 41.971)" fill="#263238"/>
            <rect id="Rectángulo_333201" data-name="Rectángulo 333201" width="389.168" height="37.512" transform="translate(0.39 57.209)" fill="#e0e0e0"/>
            <path id="Trazado_623311" data-name="Trazado 623311" d="M257.673,96.961H148.3a2.334,2.334,0,0,1,0-4.667H257.673a2.334,2.334,0,1,1,0,4.667" transform="translate(72.172 45.634)" fill="#263238"/>
            <path id="Trazado_623312" data-name="Trazado 623312" d="M257.673,105.261H148.3a2.333,2.333,0,0,1,0-4.666H257.673a2.333,2.333,0,1,1,0,4.666" transform="translate(72.172 49.739)" fill="#263238"/>
            <path id="Trazado_623313" data-name="Trazado 623313" d="M198.006,113.562H148.3a2.334,2.334,0,0,1,0-4.667h49.707a2.334,2.334,0,1,1,0,4.667" transform="translate(72.172 53.842)" fill="#263238"/>
            <path id="Trazado_623314" data-name="Trazado 623314" d="M253.454,198.637H161.239a27.768,27.768,0,0,1-27.768-27.768v-9.215a27.768,27.768,0,0,1,27.768-27.768h92.215a27.768,27.768,0,0,1,27.768,27.768v9.215a27.768,27.768,0,0,1-27.768,27.768" transform="translate(65.994 66.199)" fill="#ebebeb"/>
            <path id="Trazado_623315" data-name="Trazado 623315" d="M267.384,212.71H145.233a12.8,12.8,0,0,1,0-25.6H267.384a12.8,12.8,0,0,1,0,25.6" transform="translate(65.481 92.515)" fill="#ebebeb"/>
            <path id="Trazado_623316" data-name="Trazado 623316" d="M257.19,150.355H147.816a2.334,2.334,0,0,1,0-4.667H257.19a2.334,2.334,0,1,1,0,4.667" transform="translate(71.933 72.034)" fill="#263238"/>
            <path id="Trazado_623317" data-name="Trazado 623317" d="M254.073,198.968H144.7a2.334,2.334,0,0,1,0-4.667H254.073a2.334,2.334,0,1,1,0,4.667" transform="translate(70.392 96.071)" fill="#263238"/>
            <path id="Trazado_623318" data-name="Trazado 623318" d="M257.19,158.656H147.816a2.334,2.334,0,0,1,0-4.667H257.19a2.334,2.334,0,1,1,0,4.667" transform="translate(71.933 76.139)" fill="#263238"/>
            <path id="Trazado_623319" data-name="Trazado 623319" d="M197.522,166.957H147.816a2.334,2.334,0,0,1,0-4.667h49.707a2.334,2.334,0,1,1,0,4.667" transform="translate(71.933 80.243)" fill="#263238"/>
            <path id="Trazado_623320" data-name="Trazado 623320" d="M143.867,90.265a10.356,10.356,0,0,1-2.044.151l-5.576.124c-4.709.07-11.213.114-18.4.114l-8.375-.021.26-.108c-3.654,3.618-6.809,6.7-9.064,8.867q-1.585,1.5-2.659,2.509a5.4,5.4,0,0,1-1.013.84,5.4,5.4,0,0,1,.84-1.013l2.509-2.659c2.164-2.255,5.248-5.41,8.867-9.064l.106-.108h.154c2.6-.007,5.431-.015,8.375-.021,7.184,0,13.688.043,18.4.114l5.576.124a10.355,10.355,0,0,1,2.044.151" transform="translate(47.96 44.439)" fill="#263238"/>
            <path id="Trazado_623321" data-name="Trazado 623321" d="M131.419,91.242a3.107,3.107,0,1,1-3.107-3.107,3.107,3.107,0,0,1,3.107,3.107" transform="translate(61.907 43.578)" fill="#263238"/>
            <path id="Trazado_623322" data-name="Trazado 623322" d="M131.419,153.759a3.107,3.107,0,1,1-3.107-3.107,3.107,3.107,0,0,1,3.107,3.107" transform="translate(61.907 74.489)" fill="#263238"/>
            <path id="Trazado_623323" data-name="Trazado 623323" d="M137.683,153.265a35.056,35.056,0,0,1-5.217.235c-3.223.046-7.675.06-12.592.039l-12.589-.124-3.814-.079a10.511,10.511,0,0,1-1.4-.07c-.037-.158,2-.321,5.211-.4s7.677-.124,12.6-.1,9.369.1,12.591.19a34.217,34.217,0,0,1,5.214.315" transform="translate(50.468 75.528)" fill="#263238"/>
            <rect id="Rectángulo_333202" data-name="Rectángulo 333202" width="10.186" height="10.186" transform="translate(47.747 297.092)" fill="#455a64"/>
            <rect id="Rectángulo_333203" data-name="Rectángulo 333203" width="10.186" height="10.186" transform="translate(81.925 297.092)" fill="#e0e0e0"/>
            <rect id="Rectángulo_333204" data-name="Rectángulo 333204" width="10.186" height="10.186" transform="translate(119.013 297.092)" fill="#529d2e"/>
            <path id="Trazado_623324" data-name="Trazado 623324" d="M21.413,52.62a5.3,5.3,0,0,1-5.183,5.407,5.412,5.412,0,0,1,0-10.814,5.3,5.3,0,0,1,5.183,5.407" transform="translate(5.463 23.344)" fill="#fff"/>
            <path id="Trazado_623325" data-name="Trazado 623325" d="M33.105,52.62a5.187,5.187,0,1,1-5.183-5.407,5.3,5.3,0,0,1,5.183,5.407" transform="translate(11.244 23.344)" fill="#fff"/>
            <path id="Trazado_623326" data-name="Trazado 623326" d="M44.8,52.62a5.187,5.187,0,1,1-5.183-5.407A5.3,5.3,0,0,1,44.8,52.62" transform="translate(17.024 23.344)" fill="#fff"/>
            <path id="Trazado_623327" data-name="Trazado 623327" d="M389.558,319.256c0-2.606-.124-110.5-.317-280.848l.317.317L.421,38.8H.39l.389-.39C.767,139.073.753,234.542.743,319.256L.39,318.9l389.168.353L.39,319.609H.036v-.353C.025,234.542.013,139.073,0,38.409V38.02H.421l389.137.073h.317v.315c-.193,170.347-.314,278.243-.317,280.848" transform="translate(0 18.799)" fill="#263238"/>
          </g>
        </g>
      </g>
      <g id="Grupo_924796" data-name="Grupo 924796" transform="translate(895 3527.631)">
        <g id="Grupo_924795" data-name="Grupo 924795" clip-path="url(#clip-path-9)">
          <g id="Grupo_924794" data-name="Grupo 924794">
            <g id="Grupo_924793" data-name="Grupo 924793" clip-path="url(#clip-path-10)">
              <path id="Trazado_623343" data-name="Trazado 623343" d="M44.208,148.286S37,108.354,37.6,85.122s-.036-49.37-.036-49.37h3.321s-2.248,46.115.2,73.928c2.445,27.792,8.891,38.606,8.891,38.606Z" transform="translate(26.519 13.394)" fill="#263238"/>
              <path id="Trazado_623344" data-name="Trazado 623344" d="M67.8,4.216A7.235,7.235,0,0,0,64.773.646C62.666-.43,59.9.017,57.551.688,47.515,3.548,38.619,18.625,34.562,26.555L47.885,62.73C71.934,44.753,76.1,21.168,67.8,4.216" transform="translate(24.399 0)" fill="#455a64"/>
              <path id="Trazado_623345" data-name="Trazado 623345" d="M58.485,1.535a1.8,1.8,0,0,1-.193.471c-.172.346-.387.784-.653,1.318-.583,1.138-1.4,2.795-2.383,4.848a159.458,159.458,0,0,0-6.7,16.321,152.626,152.626,0,0,0-4.7,16.77c-.476,2.168-.833,3.926-1.059,5.144-.116.569-.21,1.032-.285,1.4a1.784,1.784,0,0,1-.136.484,1.71,1.71,0,0,1,.027-.5c.048-.371.107-.839.181-1.412.164-1.226.462-2.994.889-5.173a129.494,129.494,0,0,1,4.558-16.836A135.507,135.507,0,0,1,54.894,8.059c1.029-2.044,1.9-3.684,2.549-4.8l.747-1.287a2.07,2.07,0,0,1,.3-.436" transform="translate(29.909 0.575)" fill="#263238"/>
              <path id="Trazado_623346" data-name="Trazado 623346" d="M47.42,66.349c-12.489-5.56-19.849-16.021-20.536-27.5-.479-8.029,2.581-15.9,6.049-23.442a3.085,3.085,0,0,1,1.411-1.7,4.3,4.3,0,0,1,3.405.426c9.074,4.165,14.572,12.1,17.5,20.18a33.278,33.278,0,0,1,2.056,16.6c-.9,5.549-4.84,11.592-9.883,15.443" transform="translate(18.943 5.055)" fill="#455a64"/>
              <path id="Trazado_623347" data-name="Trazado 623347" d="M42.567,64.742a1.627,1.627,0,0,1-.049-.485c-.009-.364-.019-.825-.032-1.388,0-1.206-.065-2.947-.188-5.1a113.286,113.286,0,0,0-2.318-16.71c-1.385-6.48-3.066-12.281-4.3-16.476-.611-2.052-1.112-3.733-1.479-4.964-.155-.551-.283-1-.384-1.355a1.748,1.748,0,0,1-.1-.48,1.82,1.82,0,0,1,.206.458c.128.352.287.792.484,1.332.409,1.16.977,2.847,1.648,4.934,1.336,4.179,3.079,9.98,4.47,16.476a99.377,99.377,0,0,1,2.165,16.775c.073,2.158.073,3.905.012,5.112-.027.565-.051,1.023-.07,1.388a1.657,1.657,0,0,1-.061.484" transform="translate(23.796 6.662)" fill="#263238"/>
              <g id="Grupo_924789" data-name="Grupo 924789" transform="translate(45.778 18.548)" opacity="0.3">
                <g id="Grupo_924788" data-name="Grupo 924788">
                  <g id="Grupo_924787" data-name="Grupo 924787" clip-path="url(#clip-path-11)">
                    <path id="Trazado_623348" data-name="Trazado 623348" d="M47.42,66.349c-12.489-5.56-19.849-16.021-20.536-27.5-.479-8.029,2.581-15.9,6.049-23.442a3.085,3.085,0,0,1,1.411-1.7,4.3,4.3,0,0,1,3.405.426c9.074,4.165,14.572,12.1,17.5,20.18a33.278,33.278,0,0,1,2.056,16.6c-.9,5.549-4.84,11.592-9.883,15.443" transform="translate(-26.834 -13.493)"/>
                  </g>
                </g>
              </g>
              <path id="Trazado_623349" data-name="Trazado 623349" d="M47.16,96.624c12.291,2.176,22.413,9.162,34.271,12.559,7.844,2.248,16.717,3.042,22.981,7.463-1.5-3.059-5.067-5.094-8.528-6.837A171.41,171.41,0,0,0,64.822,97.86c-5.578-1.552-11.631-2.85-17.315-1.571" transform="translate(33.293 35.878)" fill="#455a64"/>
              <path id="Trazado_623350" data-name="Trazado 623350" d="M56.16,106.377c-15.393-.2-31.6-10.759-46.922-11.39,16.034-4.172,38.993-.764,46.922,11.39" transform="translate(6.522 34.949)" fill="#455a64"/>
              <path id="Trazado_623351" data-name="Trazado 623351" d="M40.269,85.282c7.817-2.271,16.4-2.378,24.608-1.35s16.14,3.149,24.025,5.262c-.79-4.3-5.114-7.54-9.178-10.4a64.674,64.674,0,0,0-9.647-5.974,25.476,25.476,0,0,0-11.57-2.63,20.116,20.116,0,0,0-12.769,5.185c-3.211,2.983-4.937,5.985-5.469,9.911" transform="translate(28.428 26.29)" fill="#455a64"/>
              <path id="Trazado_623352" data-name="Trazado 623352" d="M37.1,72.814C27.415,66.148,12.738,66.8,0,67.031c19.581,7.544,40.68,17.885,57.543,28.895.519-7.255-8.2-14.691-20.439-23.112" transform="translate(0 25.062)" fill="#455a64"/>
              <g id="Grupo_924792" data-name="Grupo 924792" transform="translate(0 91.961)" opacity="0.3">
                <g id="Grupo_924791" data-name="Grupo 924791">
                  <g id="Grupo_924790" data-name="Grupo 924790" clip-path="url(#clip-path-12)">
                    <path id="Trazado_623353" data-name="Trazado 623353" d="M37.1,72.814C27.415,66.148,12.738,66.8,0,67.031c19.581,7.544,40.68,17.885,57.543,28.895.519-7.255-8.2-14.691-20.439-23.112" transform="translate(0 -66.899)"/>
                  </g>
                </g>
              </g>
              <path id="Trazado_623354" data-name="Trazado 623354" d="M42.845,73.25a116.348,116.348,0,0,1,14.9-6.979c5.1-1.868,9.859-4.841,14.784-6.991,6.387-2.786,11.921-6.66,17.785-10.116s12.3-6.573,19.477-7.489a47.251,47.251,0,0,0-17.725.826,132.389,132.389,0,0,0-16.682,5.23c-7.559,2.744-15.249,5.555-21.428,10.009S42.191,66.59,42.845,73.25" transform="translate(30.209 15.425)" fill="#455a64"/>
              <path id="Trazado_623355" data-name="Trazado 623355" d="M86.411,105.36a2.184,2.184,0,0,1-.488-.169l-1.343-.561c-1.158-.5-2.823-1.234-4.92-2.083-1.037-.441-2.185-.9-3.434-1.373-1.235-.495-2.576-.981-4-1.478a68.585,68.585,0,0,0-9.478-2.661,25.136,25.136,0,0,0-9.874-.2,33.514,33.514,0,0,0-4.183,1.008,23.642,23.642,0,0,0-3.378,1.4,21.217,21.217,0,0,0-4.244,2.825c-.891.77-1.326,1.241-1.365,1.218-.015-.01.08-.135.276-.366a12.091,12.091,0,0,1,.93-.966,19.08,19.08,0,0,1,4.193-2.973A22.986,22.986,0,0,1,48.521,97.5a32.79,32.79,0,0,1,4.241-1.064,25.311,25.311,0,0,1,10.116.166,65.618,65.618,0,0,1,9.555,2.719c1.423.507,2.764,1.01,3.994,1.52,1.245.488,2.387.965,3.415,1.425,2.078.887,3.716,1.666,4.845,2.21l1.293.632a1.944,1.944,0,0,1,.432.247" transform="translate(28.03 35.966)" fill="#263238"/>
              <path id="Trazado_623356" data-name="Trazado 623356" d="M30.013,98.34a4.218,4.218,0,0,1,.964.227,24.61,24.61,0,0,1,2.508.88,31.415,31.415,0,0,1,7.354,4.2,26.028,26.028,0,0,1,5.507,5.754,16.172,16.172,0,0,1,1.191,1.985c.239.482.355.755.319.767-.087.032-.662-1.02-1.846-2.594a30.03,30.03,0,0,0-5.551-5.592A35.494,35.494,0,0,0,33.3,99.722c-2-.889-3.327-1.31-3.291-1.383" transform="translate(21.187 36.839)" fill="#263238"/>
              <path id="Trazado_623357" data-name="Trazado 623357" d="M10.049,70.75a3.844,3.844,0,0,1,.655.157l1.848.529,2.914.866c1.134.34,2.368.841,3.763,1.336a94.131,94.131,0,0,1,20.04,10.289,91.265,91.265,0,0,1,9.345,7.415,89.113,89.113,0,0,1,6.633,6.771c1.757,2.007,3.089,3.677,4,4.833l1.053,1.331a2.522,2.522,0,0,1,.341.478,2.691,2.691,0,0,1-.432-.427c-.27-.289-.66-.72-1.141-1.285-.969-1.129-2.347-2.77-4.14-4.747s-4.043-4.259-6.7-6.683a95.673,95.673,0,0,0-9.323-7.349A98.961,98.961,0,0,0,19.063,73.921c-1.378-.511-2.6-1.031-3.716-1.391L12.477,71.6l-1.808-.606a3.683,3.683,0,0,1-.619-.241" transform="translate(7.094 26.504)" fill="#263238"/>
              <path id="Trazado_623358" data-name="Trazado 623358" d="M64.212,76.336a6.741,6.741,0,0,1-1.227-.128L61.571,76c-.551-.085-1.192-.087-1.892-.146A23.427,23.427,0,0,0,49.1,77.534a19.388,19.388,0,0,0-4.814,2.877,18.943,18.943,0,0,0-3.095,3.083,24.121,24.121,0,0,0-2.115,3.255,3.026,3.026,0,0,1,.312-.968,12.947,12.947,0,0,1,1.474-2.452,17.439,17.439,0,0,1,3.064-3.2,18.957,18.957,0,0,1,4.918-2.983,22.784,22.784,0,0,1,10.869-1.6c.708.08,1.358.1,1.909.214l1.409.286a6.253,6.253,0,0,1,1.181.3" transform="translate(27.582 28.264)" fill="#263238"/>
              <path id="Trazado_623359" data-name="Trazado 623359" d="M79.971,47.959a3.394,3.394,0,0,1-.582.289c-.444.2-1.013.444-1.718.752-1.494.649-3.642,1.606-6.254,2.845-2.6,1.255-5.66,2.8-8.917,4.675a73.078,73.078,0,0,0-9.956,6.721,21.629,21.629,0,0,0-4.072,4.249c-1.008,1.56-1.972,3.068-2.859,4.516a75.029,75.029,0,0,0-4.277,7.845,41.308,41.308,0,0,0-2.08,5.523c-.394,1.328-.536,2.077-.59,2.07a2.116,2.116,0,0,1,.061-.55c.056-.357.148-.884.319-1.556a35.06,35.06,0,0,1,1.924-5.593,68.711,68.711,0,0,1,4.188-7.919c.877-1.457,1.832-2.971,2.835-4.535a21.745,21.745,0,0,1,4.154-4.358,71.074,71.074,0,0,1,10.058-6.745c3.289-1.868,6.384-3.388,9.016-4.613,2.643-1.208,4.824-2.125,6.35-2.727l1.767-.679a3.726,3.726,0,0,1,.631-.209" transform="translate(27.292 17.966)" fill="#263238"/>
              <path id="Trazado_623360" data-name="Trazado 623360" d="M41.831,82.31a4.217,4.217,0,0,1-.305-1.045c-.179-.766-.406-1.725-.674-2.866a68.176,68.176,0,0,0-2.91-9.308,73.029,73.029,0,0,0-4.4-8.924c-.6-1.057-1.1-1.945-1.5-2.654a4.439,4.439,0,0,1-.493-1,4.959,4.959,0,0,1,.686.921c.408.606.983,1.491,1.66,2.6a58.894,58.894,0,0,1,4.569,8.921,54.4,54.4,0,0,1,2.769,9.387c.242,1.221.415,2.209.5,2.9a4.07,4.07,0,0,1,.094,1.071" transform="translate(22.27 21.172)" fill="#263238"/>
              <path id="Trazado_623361" data-name="Trazado 623361" d="M54.381,64.49A29.093,29.093,0,0,0,49.376,51.1C41.9,39.716,27.862,31.278,12.191,28.756Q29.4,49.427,46.615,70.1l4.446,7.38c3.033-4.011,3.705-8.3,3.32-12.989" transform="translate(8.606 10.773)" fill="#455a64"/>
              <rect id="Rectángulo_333216" data-name="Rectángulo 333216" width="80.047" height="11.431" transform="translate(32.321 156.741)" fill="#727997"/>
              <path id="Trazado_623362" data-name="Trazado 623362" d="M22.45,120.69l6.817,35.472h53.14l8.134-35.472Z" transform="translate(15.848 45.214)" fill="#12263f"/>
              <path id="Trazado_623363" data-name="Trazado 623363" d="M99.216,122.412c0,.125-18.056.227-40.324.227s-40.327-.1-40.327-.227,18.052-.227,40.327-.227,40.324.1,40.324.227" transform="translate(13.107 45.774)" fill="#263238"/>
            </g>
          </g>
        </g>
      </g>
      <g id="Grupo_924800" data-name="Grupo 924800" transform="translate(1293.145 3528.233)">
        <g id="Grupo_924799" data-name="Grupo 924799" clip-path="url(#clip-path-13)">
          <path id="Trazado_623371" data-name="Trazado 623371" d="M25.092,106.207a33.066,33.066,0,0,0-14.147-4.869c-2.311-.237-4.836-.169-6.692,1.231a1.375,1.375,0,0,0-.689,1.222,1.5,1.5,0,0,0,.654.836c5.755,4.39,14.462,4.945,20.873,1.58" transform="translate(0.115 3.272)" fill="#e0e0e0"/>
          <path id="Trazado_623372" data-name="Trazado 623372" d="M24.537,106.357a69,69,0,0,1-9.137-8.04A23.105,23.105,0,0,1,9.671,87.724a4.274,4.274,0,0,1,.452-3.545c7.284,5.688,13.005,13.046,14.413,22.178" transform="translate(0.307 2.721)" fill="#e0e0e0"/>
          <path id="Trazado_623373" data-name="Trazado 623373" d="M24.36,106.684a33.058,33.058,0,0,1,.169-12,16.217,16.217,0,0,1,6.39-9.9c1.258,2.942.717,6.331-.169,9.406a45.7,45.7,0,0,1-6.335,13.34" transform="translate(0.772 2.741)" fill="#e0e0e0"/>
          <path id="Trazado_623374" data-name="Trazado 623374" d="M31.819,118.39c-4.334.526-8.109,2.811-11.345,5.742a21.462,21.462,0,0,0-6.489,11.14c4.251-.262,7.858-3.26,10.474-6.622s4.428-7.05,7.3-10.193" transform="translate(0.452 3.827)" fill="#e0e0e0"/>
          <path id="Trazado_623375" data-name="Trazado 623375" d="M32.824,121.2a27.981,27.981,0,0,1,3.231-26.468c2.469,8.784,1.563,18.706-3.231,26.468" transform="translate(0.998 3.062)" fill="#e0e0e0"/>
          <path id="Trazado_623376" data-name="Trazado 623376" d="M42.517,131.255A20.235,20.235,0,0,0,23.17,142.392c-.239.479-.451,1.088-.13,1.516a1.44,1.44,0,0,0,1.283.378c3.812-.248,7.192-2.542,9.98-5.153s5.217-5.63,8.3-7.889" transform="translate(0.739 4.242)" fill="#e0e0e0"/>
          <path id="Trazado_623377" data-name="Trazado 623377" d="M41.661,131.5a36.029,36.029,0,0,1-.359-20.127c.709-2.591,1.9-5.319,4.294-6.534a.847.847,0,0,1,.658-.116.869.869,0,0,1,.415.481,12.124,12.124,0,0,1,1.013,5.775,36.259,36.259,0,0,1-.9,5.846c-.755,3.572-1.156,7.412-3.116,10.493a21.373,21.373,0,0,0-1.246,2.305c-.371.784-.374,1.059-.713,1.682" transform="translate(1.294 3.384)" fill="#e0e0e0"/>
          <path id="Trazado_623378" data-name="Trazado 623378" d="M65.821,134.959c-1.85-7.037.114-15.569,4.548-21.338.326-.424.76-.88,1.292-.831.818.076,1.028,1.164.992,1.984a38.557,38.557,0,0,1-6.833,20.185" transform="translate(2.105 3.646)" fill="#e0e0e0"/>
          <path id="Trazado_623379" data-name="Trazado 623379" d="M67.98,135.987a31.039,31.039,0,0,0,25.469-5.18,20.617,20.617,0,0,0-13.788-1.692c-4.606,1.053-8.815,3.117-11.682,6.872" transform="translate(2.197 4.157)" fill="#e0e0e0"/>
          <path id="Trazado_623380" data-name="Trazado 623380" d="M69.82,131.636c4.789-7.806,13.968-12.9,23.116-13.367-1.054,3.721-4.111,6.612-7.561,8.36s-7.3,2.508-11.1,3.245c-1.477.287-3.5.6-4.46,1.762" transform="translate(2.257 3.823)" fill="#e0e0e0"/>
          <path id="Trazado_623381" data-name="Trazado 623381" d="M66.364,110.035A67.161,67.161,0,0,0,69.321,96.5a22.543,22.543,0,0,0-2.7-13.39c-4.473,8.655-4.925,18.768-.394,27.393" transform="translate(2.038 2.686)" fill="#e0e0e0"/>
          <path id="Trazado_623382" data-name="Trazado 623382" d="M80.848,102.388c5.231-9.507,15.9-17.1,26.7-18.165-4.165,10.372-15.526,18.388-26.7,18.165" transform="translate(2.613 2.723)" fill="#e0e0e0"/>
          <path id="Trazado_623383" data-name="Trazado 623383" d="M77.66,103.672c7.8,1.188,14.447,6.17,21.738,9.191a9.741,9.741,0,0,0,4.914.941A3.847,3.847,0,0,0,106.72,107a10.515,10.515,0,0,0-3.57-2.166c-7.94-3.306-16.454-3.388-24.819-1.383" transform="translate(2.51 3.301)" fill="#e0e0e0"/>
          <path id="Trazado_623384" data-name="Trazado 623384" d="M73.287,108.935c1.766.506,2.369,1.42,3.768,2.611a40.646,40.646,0,0,0,16.483,8.468c.63.156,1.457.219,1.768-.35.273-.5-.072-1.1-.426-1.541a22.683,22.683,0,0,0-9.953-6.757c-3.8-1.417-7.1-3.124-11.64-2.758" transform="translate(2.369 3.509)" fill="#e0e0e0"/>
          <path id="Trazado_623385" data-name="Trazado 623385" d="M68.353,76.939A31.2,31.2,0,0,0,92.27,85.076a1.639,1.639,0,0,0,1.088-.39c.6-.656-.12-1.666-.822-2.213-7.031-5.482-15.548-7.755-24.183-5.533" transform="translate(2.209 2.46)" fill="#e0e0e0"/>
          <path id="Trazado_623386" data-name="Trazado 623386" d="M74.2,74.975a33.334,33.334,0,0,1,29.843-4.924,23.7,23.7,0,0,1-14.221,6.244A45.024,45.024,0,0,1,74.2,74.975" transform="translate(2.398 2.214)" fill="#e0e0e0"/>
          <path id="Trazado_623387" data-name="Trazado 623387" d="M72,60.723c-.691-7.019-.243-12.558-.73-19.61-.038-.564-.16-1.241-.686-1.444-.734-.283-1.346.619-1.587,1.368a22.478,22.478,0,0,0,2.993,19.532" transform="translate(2.197 1.281)" fill="#e0e0e0"/>
          <path id="Trazado_623388" data-name="Trazado 623388" d="M71.389,61.5A41.251,41.251,0,0,0,83.015,50.2c2.3-3.141,4.233-6.905,3.71-10.761a11.122,11.122,0,0,0-8.387,4.164,23.412,23.412,0,0,0-4.275,8.6c-.931,3.087-1.583,6.261-2.675,9.3" transform="translate(2.307 1.275)" fill="#e0e0e0"/>
          <path id="Trazado_623389" data-name="Trazado 623389" d="M82.459,58.289a93.743,93.743,0,0,0,28.611-16.87c-3.417-1.377-7.331-.553-10.746.826A33.891,33.891,0,0,0,82.309,58.213" transform="translate(2.66 1.316)" fill="#e0e0e0"/>
          <path id="Trazado_623390" data-name="Trazado 623390" d="M74.5,64.792c5.281.577,10.646.953,15.887.077,5.15-.861,10.018-2.9,14.831-4.928a1.736,1.736,0,0,0,1.008-.765,1.158,1.158,0,0,0-.361-1.269,3.053,3.053,0,0,0-1.265-.593c-5.233-1.464-10.88-.779-16.028.957A74.345,74.345,0,0,0,74.5,64.792" transform="translate(2.408 1.827)" fill="#e0e0e0"/>
          <path id="Trazado_623391" data-name="Trazado 623391" d="M45.369,77.873C41.765,70.6,42,62.112,45.112,54.615c2.192,3.339,2.459,7.591,2.058,11.564s-1.61,8.062-1.689,12.055" transform="translate(1.381 1.765)" fill="#e0e0e0"/>
          <path id="Trazado_623392" data-name="Trazado 623392" d="M32.1,70.112A32.442,32.442,0,0,0,7.99,80.381a22.524,22.524,0,0,0,13.2-2.447A67.181,67.181,0,0,0,32.5,70.363" transform="translate(0.258 2.266)" fill="#e0e0e0"/>
          <path id="Trazado_623393" data-name="Trazado 623393" d="M22.676,66.99c-4.4-.357-8.636-.9-12.868.4A15.435,15.435,0,0,0,0,75.7a23.249,23.249,0,0,0,12.064-2.277A69.483,69.483,0,0,0,22.676,66.99" transform="translate(0 2.152)" fill="#e0e0e0"/>
          <path id="Trazado_623394" data-name="Trazado 623394" d="M36.655,67.332C32.7,64.737,28.63,62.1,24.019,61.021s-9.953-.281-13.167,3.194c3.732,2.19,8.26,2.449,12.587,2.446s9.632-.053,13.71,1.391" transform="translate(0.351 1.958)" fill="#e0e0e0"/>
          <path id="Trazado_623395" data-name="Trazado 623395" d="M36.111,68.19C29.342,61.542,26.775,49.6,29.5,40.515A42.167,42.167,0,0,1,36.111,68.19" transform="translate(0.919 1.31)" fill="#e0e0e0"/>
          <path id="Trazado_623396" data-name="Trazado 623396" d="M53.9,49.763c1.277-2.968,2.174-6.081,3.32-9.1a26.129,26.129,0,0,1,4.733-8.391,12.457,12.457,0,0,1,8.383-4.345A33.767,33.767,0,0,1,54.065,49.811" transform="translate(1.742 0.903)" fill="#e0e0e0"/>
          <path id="Trazado_623397" data-name="Trazado 623397" d="M51.186,53.255c-2.114-2.908-4.555-6.855-7.419-9.026s-6.594-3.484-10.092-2.65A23.508,23.508,0,0,0,51.186,53.255" transform="translate(1.088 1.336)" fill="#e0e0e0"/>
          <path id="Trazado_623398" data-name="Trazado 623398" d="M51.4,50a50.254,50.254,0,0,1-3.34-10.814,16.875,16.875,0,0,1,1.693-11c3.716,7.024,4.913,14.563,1.837,21.889" transform="translate(1.546 0.911)" fill="#e0e0e0"/>
          <path id="Trazado_623399" data-name="Trazado 623399" d="M53.933,28.653c2.1-6.963,8.481-12.09,15.364-14.442a5.731,5.731,0,0,1,2.693-.4,2.337,2.337,0,0,1,1.985,1.657c.251,1.184-.727,2.246-1.648,3.033A52.3,52.3,0,0,1,53.933,28.653" transform="translate(1.743 0.445)" fill="#e0e0e0"/>
          <path id="Trazado_623400" data-name="Trazado 623400" d="M54.01,23.4c.267-4.49.547-9.043,2.008-13.3S60.293,1.861,64.386,0c.7,4.534-1.3,9.045-3.716,12.946s-5.321,7.584-6.77,11.937" transform="translate(1.742)" fill="#e0e0e0"/>
          <path id="Trazado_623401" data-name="Trazado 623401" d="M54.309,26.428c-1.739-5.075-1.919-11.52-4.958-15.941C47.227,7.4,43.826,5.293,42,2.019a12.886,12.886,0,0,0,.427,9.614,27.817,27.817,0,0,0,5.622,8.047c2.248,2.4,4.174,4.208,6.264,6.748" transform="translate(1.333 0.065)" fill="#e0e0e0"/>
          <path id="Trazado_623402" data-name="Trazado 623402" d="M53.941,175.158c-.135,0-.252-33.851-.261-75.6s.092-75.608.227-75.608.252,33.844.262,75.606-.093,75.6-.228,75.6" transform="translate(1.735 0.774)" fill="#e0e0e0"/>
          <path id="Trazado_623403" data-name="Trazado 623403" d="M83.517,72.2a7.243,7.243,0,0,1-1.273.478l-3.5,1.182c-2.953,1.005-7.01,2.462-11.413,4.268-4.361,1.87-8.472,3.388-10.814,5.418a7.947,7.947,0,0,0-2.173,2.874c-.336.795-.4,1.281-.441,1.273a.986.986,0,0,1,.014-.355,5.474,5.474,0,0,1,.249-.987,7.647,7.647,0,0,1,2.12-3.064,19.023,19.023,0,0,1,4.692-2.914c1.877-.876,3.957-1.79,6.166-2.7,4.416-1.81,8.505-3.22,11.492-4.144,1.493-.466,2.711-.808,3.555-1.035a7.3,7.3,0,0,1,1.328-.3" transform="translate(1.742 2.334)" fill="#e0e0e0"/>
          <path id="Trazado_623404" data-name="Trazado 623404" d="M93.14,49.125a2.084,2.084,0,0,1-.356.381L91.7,50.526,87.642,54.21l-13.5,12.017c-5.269,4.69-9.823,9.171-12.977,12.545-1.58,1.685-2.824,3.081-3.673,4.055l-.981,1.12a2.126,2.126,0,0,1-.366.372,2.083,2.083,0,0,1,.289-.433c.205-.273.5-.678.912-1.181.805-1.014,2.013-2.448,3.565-4.168A170.929,170.929,0,0,1,73.819,65.863c5.287-4.68,10.1-8.882,13.594-11.912l4.158-3.568,1.147-.952a2.1,2.1,0,0,1,.422-.307" transform="translate(1.815 1.588)" fill="#e0e0e0"/>
          <path id="Trazado_623405" data-name="Trazado 623405" d="M68.072,70.679c-.138-.062.962-2.6,2.059-5.817s1.627-5.926,1.767-5.9a19.833,19.833,0,0,1-1.3,6.06,39.6,39.6,0,0,1-1.639,4.068,6.31,6.31,0,0,1-.884,1.592" transform="translate(2.2 1.906)" fill="#e0e0e0"/>
          <path id="Trazado_623406" data-name="Trazado 623406" d="M54.577,90.934a6.16,6.16,0,0,1-.812-.943c-.55-.706-1.248-1.6-2.079-2.668-1.748-2.258-4.162-5.375-6.87-8.786s-5.2-6.472-7-8.686L35.691,67.22a5.98,5.98,0,0,1-.733-1,6.1,6.1,0,0,1,.877.882c.543.587,1.31,1.451,2.246,2.531,1.872,2.16,4.4,5.188,7.118,8.6s5.085,6.57,6.763,8.883c.839,1.157,1.507,2.1,1.956,2.763a6.114,6.114,0,0,1,.659,1.055" transform="translate(1.13 2.14)" fill="#e0e0e0"/>
          <path id="Trazado_623407" data-name="Trazado 623407" d="M47.785,82.413a11.925,11.925,0,0,1-2.717-5.087,14.519,14.519,0,0,1-.616-5.129l.216.018c-.1.392-.167.6-.206.593s-.04-.225-.008-.628l.216.018a23.407,23.407,0,0,0,.868,4.989,37.964,37.964,0,0,0,2.248,5.227" transform="translate(1.436 2.333)" fill="#e0e0e0"/>
          <path id="Trazado_623408" data-name="Trazado 623408" d="M40.027,71.954a8.755,8.755,0,0,0-1.9-1.1,12.677,12.677,0,0,0-5.267-.419,32.478,32.478,0,0,0-5.3.856,16.31,16.31,0,0,1-2.183.524,7.6,7.6,0,0,1,2.09-.857,24.225,24.225,0,0,1,5.36-1.012,11.506,11.506,0,0,1,5.434.586,3.369,3.369,0,0,1,1.767,1.423" transform="translate(0.82 2.259)" fill="#e0e0e0"/>
          <path id="Trazado_623409" data-name="Trazado 623409" d="M38.291,69.514c-.038.076-1.107-.443-2.908-1.058a29.252,29.252,0,0,0-14.647-1.117c-1.874.336-3.007.686-3.034.606a2.8,2.8,0,0,1,.77-.329,18.342,18.342,0,0,1,2.2-.616A25.847,25.847,0,0,1,35.5,68.131a18.123,18.123,0,0,1,2.076.941,2.81,2.81,0,0,1,.713.442" transform="translate(0.572 2.147)" fill="#e0e0e0"/>
          <path id="Trazado_623410" data-name="Trazado 623410" d="M54.018,59.424A60.13,60.13,0,0,1,51.9,52.061a60.01,60.01,0,0,1-1.646-7.484,60.332,60.332,0,0,1,2.119,7.364,60.155,60.155,0,0,1,1.646,7.483" transform="translate(1.624 1.441)" fill="#e0e0e0"/>
          <path id="Trazado_623411" data-name="Trazado 623411" d="M54.213,59.209a35.409,35.409,0,0,0-2.35-4.408,19.369,19.369,0,0,0-3.458-3.569,3.212,3.212,0,0,1,1.335.689,10.726,10.726,0,0,1,2.524,2.6,9.767,9.767,0,0,1,1.949,4.689" transform="translate(1.565 1.656)" fill="#e0e0e0"/>
          <path id="Trazado_623412" data-name="Trazado 623412" d="M54.9,154.49c-.053.008-.153-.813-.534-2.252a32.06,32.06,0,0,0-2.262-5.86c-2.339-4.78-6.594-10.839-12-16.91-2.679-3.061-5.279-5.949-7.485-8.715a61.012,61.012,0,0,1-5.353-7.72,37.068,37.068,0,0,1-2.7-5.729c-.249-.706-.43-1.257-.531-1.638a2.731,2.731,0,0,1-.139-.584c.044-.014.29.774.848,2.154a41.974,41.974,0,0,0,2.823,5.623,64.783,64.783,0,0,0,5.405,7.612c2.215,2.736,4.819,5.609,7.5,8.676,5.423,6.086,9.668,12.222,11.946,17.08a29.275,29.275,0,0,1,2.135,5.966,16.369,16.369,0,0,1,.3,1.7,2.8,2.8,0,0,1,.05.6" transform="translate(0.772 3.397)" fill="#e0e0e0"/>
          <path id="Trazado_623413" data-name="Trazado 623413" d="M80.664,123.7a12.2,12.2,0,0,1-1.4.787,30.6,30.6,0,0,0-3.634,2.4,41.728,41.728,0,0,0-4.772,4.352c-1.674,1.769-3.4,3.825-5.162,6.027-3.52,4.417-6.813,8.327-8.785,11.446-1,1.548-1.729,2.853-2.205,3.769a12.372,12.372,0,0,1-.772,1.41,1.327,1.327,0,0,1,.129-.4c.105-.252.246-.631.471-1.1a35.541,35.541,0,0,1,2.084-3.868c1.916-3.2,5.182-7.159,8.7-11.569,1.764-2.206,3.511-4.265,5.217-6.032a38.789,38.789,0,0,1,4.89-4.318,25.533,25.533,0,0,1,3.752-2.293c.465-.233.843-.377,1.094-.484a1.336,1.336,0,0,1,.4-.134" transform="translate(1.743 3.998)" fill="#e0e0e0"/>
          <path id="Trazado_623414" data-name="Trazado 623414" d="M80.912,133.184a20.448,20.448,0,0,1-2.961.43A38.949,38.949,0,0,0,70.929,135a21.111,21.111,0,0,0-6.289,3.3c-1.449,1.12-2.133,2.047-2.2,1.992a2.27,2.27,0,0,1,.439-.681,11.173,11.173,0,0,1,1.542-1.579,19.072,19.072,0,0,1,6.357-3.5,31.769,31.769,0,0,1,7.139-1.262,16.458,16.458,0,0,1,3-.086" transform="translate(2.018 4.304)" fill="#e0e0e0"/>
          <path id="Trazado_623415" data-name="Trazado 623415" d="M63.278,139.338c-.155-.088,1.18-2.126,2.215-4.867.971-2.767,1.2-5.193,1.373-5.165a4.685,4.685,0,0,1-.05,1.589,16.959,16.959,0,0,1-.864,3.742,18.108,18.108,0,0,1-1.717,3.434,4.8,4.8,0,0,1-.958,1.268" transform="translate(2.045 4.18)" fill="#e0e0e0"/>
          <path id="Trazado_623416" data-name="Trazado 623416" d="M89.322,98.222a2.218,2.218,0,0,1-.474.252l-1.392.633c-.61.261-1.349.593-2.183,1.032s-1.813.876-2.829,1.487l-1.616.919c-.561.322-1.115.7-1.7,1.074-1.191.722-2.384,1.611-3.658,2.52a62.744,62.744,0,0,0-14.085,14.575c-.864,1.3-1.713,2.527-2.394,3.742-.349.6-.712,1.169-1.015,1.739l-.863,1.646c-.575,1.037-.986,2.027-1.39,2.879s-.716,1.6-.957,2.216c-.236.572-.429,1.04-.584,1.412a2.217,2.217,0,0,1-.235.482,2.194,2.194,0,0,1,.142-.515l.5-1.447c.215-.631.5-1.4.884-2.258s.772-1.872,1.331-2.925l.84-1.67c.3-.579.653-1.155,1-1.765.671-1.233,1.512-2.472,2.372-3.793A60.463,60.463,0,0,1,75.2,105.776c1.29-.9,2.5-1.788,3.709-2.5.6-.364,1.161-.741,1.729-1.057l1.641-.9c1.033-.595,2.025-1.02,2.877-1.43s1.6-.726,2.226-.961l1.431-.549a2.234,2.234,0,0,1,.51-.16" transform="translate(1.744 3.175)" fill="#e0e0e0"/>
          <path id="Trazado_623417" data-name="Trazado 623417" d="M67.72,112.064a3.4,3.4,0,0,1,1.163-1.732,7.338,7.338,0,0,1,4.687-1.8,12.829,12.829,0,0,1,4.932.963,7.057,7.057,0,0,1,1.865.906,11.478,11.478,0,0,1-1.979-.579,14.873,14.873,0,0,0-4.8-.8,7.634,7.634,0,0,0-4.477,1.571,13.885,13.885,0,0,0-1.388,1.47" transform="translate(2.189 3.508)" fill="#e0e0e0"/>
          <path id="Trazado_623418" data-name="Trazado 623418" d="M64.657,115.39a17.607,17.607,0,0,0,1.331-4.33,17.587,17.587,0,0,0-.3-4.521,2.864,2.864,0,0,1,.55,1.26,8.95,8.95,0,0,1-.758,6.489c-.413.748-.777,1.135-.825,1.1" transform="translate(2.09 3.444)" fill="#e0e0e0"/>
          <path id="Trazado_623419" data-name="Trazado 623419" d="M31.285,157.641c.73,12.937,4.628,26.093,10.624,39.4H67.984c5.718-13.17,9.348-26.307,9.993-39.4Z" transform="translate(1.011 5.096)" fill="#e0e0e0"/>
          <path id="Trazado_623420" data-name="Trazado 623420" d="M73.622,177.927c0,.135-8.585.245-19.173.245s-19.175-.109-19.175-.245,8.584-.245,19.175-.245,19.173.109,19.173.245" transform="translate(1.14 5.744)" fill="#fafafa"/>
          <path id="Trazado_623421" data-name="Trazado 623421" d="M72.983,182.467c0,.135-8.048.245-17.975.245s-17.976-.109-17.976-.245,8.047-.245,17.976-.245,17.975.109,17.975.245" transform="translate(1.197 5.89)" fill="#fafafa"/>
          <path id="Trazado_623422" data-name="Trazado 623422" d="M41.992,165.869a37.061,37.061,0,0,1,.245,6.006,37.061,37.061,0,0,1-.245,6.006,37.061,37.061,0,0,1-.245-6.006,37.061,37.061,0,0,1,.245-6.006" transform="translate(1.349 5.362)" fill="#fafafa"/>
          <path id="Trazado_623423" data-name="Trazado 623423" d="M55.526,165.869a39.885,39.885,0,0,1,.245,6.22,39.874,39.874,0,0,1-.245,6.22,39.64,39.64,0,0,1-.246-6.22,39.651,39.651,0,0,1,.246-6.22" transform="translate(1.787 5.362)" fill="#fafafa"/>
          <path id="Trazado_623424" data-name="Trazado 623424" d="M68.23,165.767a41.326,41.326,0,0,1,.245,6.344,41.3,41.3,0,0,1-.245,6.344,41.3,41.3,0,0,1-.245-6.344,41.326,41.326,0,0,1,.245-6.344" transform="translate(2.197 5.359)" fill="#fafafa"/>
          <path id="Trazado_623425" data-name="Trazado 623425" d="M77.121,165.877c0,.135-10.069.245-22.488.245s-22.49-.109-22.49-.245,10.067-.245,22.49-.245,22.488.109,22.488.245" transform="translate(1.039 5.354)" fill="#fafafa"/>
        </g>
      </g>
      <path id="Trazado_623438" data-name="Trazado 623438" d="M102.388,171.8a41.046,41.046,0,0,1,10.017-4.353l2.063-9.915,16.751-.293,2.411,9.835a41.019,41.019,0,0,1,10.164,4l8.467-5.55,12.054,11.639-5.248,8.654a41.053,41.053,0,0,1,4.353,10.018l9.914,2.063.293,16.751-9.835,2.411a41.018,41.018,0,0,1-4,10.164l5.549,8.466-11.637,12.054-8.656-5.248a41.051,41.051,0,0,1-10.018,4.353l-2.063,9.915-16.751.293-2.411-9.836a41.129,41.129,0,0,1-10.164-4l-8.467,5.55L83.124,237.134l5.247-8.656a41.031,41.031,0,0,1-4.353-10.018L74.1,216.4l-.295-16.751,9.836-2.411a41.133,41.133,0,0,1,4-10.164L82.095,178.6l11.637-12.054Zm8.93,22.316a17.973,17.973,0,1,0,25.414-.447,17.973,17.973,0,0,0-25.414.447" transform="translate(870.945 3288.721)" fill="#ebebeb"/>
      <g id="Grupo_924808" data-name="Grupo 924808" transform="translate(1059.413 3664.135)">
        <path id="Trazado_623439" data-name="Trazado 623439" d="M3.5,42.242v26.43H84.777V42.242Z" transform="translate(-0.089 -1.068)" fill="#f5f5f5"/>
        <path id="Trazado_623440" data-name="Trazado 623440" d="M42.06,34.661H0V42.05H87.531V34.661Z" transform="translate(0 -0.877)" fill="#e0e0e0"/>
        <path id="Trazado_623441" data-name="Trazado 623441" d="M43.152,34.661v6.706L44.858,68.48H85.781V42.05h2.842V34.661Z" transform="translate(-1.093 -0.877)" fill="#e0e0e0"/>
        <rect id="Rectángulo_333225" data-name="Rectángulo 333225" width="16.483" height="3.979" transform="translate(14.777 45.436)" fill="#e0e0e0"/>
        <rect id="Rectángulo_333226" data-name="Rectángulo 333226" width="21.165" height="8.401" transform="translate(12.656 54.389)" fill="#fff"/>
        <path id="Trazado_623442" data-name="Trazado 623442" d="M16.328,7.581v26.43H97.606V7.581Z" transform="translate(-0.414 -0.191)" fill="#f5f5f5"/>
        <rect id="Rectángulo_333227" data-name="Rectángulo 333227" width="87.531" height="7.39" transform="translate(12.504 0)" fill="#e0e0e0"/>
        <path id="Trazado_623443" data-name="Trazado 623443" d="M55.982,0V6.705l1.706,27.114H98.611V7.39h2.842V0Z" transform="translate(-1.417 0.001)" fill="#e0e0e0"/>
        <rect id="Rectángulo_333228" data-name="Rectángulo 333228" width="16.483" height="3.979" transform="translate(27.282 11.651)" fill="#e0e0e0"/>
        <rect id="Rectángulo_333229" data-name="Rectángulo 333229" width="21.165" height="8.401" transform="translate(25.16 20.605)" fill="#fff"/>
      </g>
      <g id="Grupo_924798" data-name="Grupo 924798" transform="translate(1023.547 3580.058)">
        <g id="Grupo_924797" data-name="Grupo 924797" transform="translate(0 0)" clip-path="url(#clip-path-14)">
          <path id="Trazado_623364" data-name="Trazado 623364" d="M77.862,123.49A62.481,62.481,0,1,1,88.962,5.029a62.473,62.473,0,0,1-11.1,118.461M51.836,5.575a58.257,58.257,0,1,0,35.481,3.3,58.273,58.273,0,0,0-35.481-3.3" transform="translate(0.262 0)" fill="#455a64"/>
          <path id="Trazado_623365" data-name="Trazado 623365" d="M77.862,123.49A62.481,62.481,0,1,1,88.962,5.029a62.473,62.473,0,0,1-11.1,118.461M51.836,5.575a58.257,58.257,0,1,0,35.481,3.3,58.273,58.273,0,0,0-35.481-3.3" transform="translate(0.262 0)" fill="#263238"/>
          <path id="Trazado_623366" data-name="Trazado 623366" d="M75.989,125.785A62.481,62.481,0,1,1,87.089,7.324a62.473,62.473,0,0,1-11.1,118.461M49.963,7.87a58.257,58.257,0,1,0,35.481,3.3,58.277,58.277,0,0,0-35.481-3.3" transform="translate(0 0.321)" fill="#455a64"/>
          <path id="Trazado_623367" data-name="Trazado 623367" d="M205.341,112.654l-1,2.579c-.9,2.3-4.9,2.9-7.375,1.923L103.4,80.731l4.712-12.1L201.534,105c3.04,1.276,4.96,4.695,3.807,7.655" transform="translate(14.478 9.609)" fill="#455a64"/>
          <path id="Trazado_623368" data-name="Trazado 623368" d="M85.652,36.331c.1.128-11.775,9.92-26.528,21.871s-26.8,21.538-26.9,21.412S43.992,69.7,58.75,57.741s26.8-21.537,26.9-21.41" transform="translate(4.511 5.087)" fill="#263238"/>
          <path id="Trazado_623369" data-name="Trazado 623369" d="M69.746,33.154c.1.127-8.679,7.6-19.616,16.692s-19.893,16.364-20,16.237,8.677-7.6,19.619-16.693,19.891-16.363,20-16.236" transform="translate(4.219 4.642)" fill="#263238"/>
          <path id="Trazado_623370" data-name="Trazado 623370" d="M81.281,53.065c.1.127-5.906,5.3-13.426,11.546S54.153,75.829,54.048,75.7s5.905-5.3,13.427-11.547,13.7-11.217,13.806-11.09" transform="translate(7.568 7.43)" fill="#263238"/>
        </g>
      </g>
      <g id="Grupo_924811" data-name="Grupo 924811" transform="translate(1225.093 3334.08)">
        <rect id="Rectángulo_333230" data-name="Rectángulo 333230" width="180.794" height="135.149" transform="translate(0.824 0.253)" fill="#fff"/>
        <rect id="Rectángulo_333231" data-name="Rectángulo 333231" width="180.794" height="16.705" transform="translate(0.253 0.253)" fill="#e0e0e0"/>
        <g id="Grupo_924810" data-name="Grupo 924810">
          <g id="Grupo_924809" data-name="Grupo 924809" clip-path="url(#clip-path-15)">
            <path id="Trazado_623444" data-name="Trazado 623444" d="M12.76,8.767A2.407,2.407,0,1,1,10.352,6.36,2.408,2.408,0,0,1,12.76,8.767" transform="translate(-0.201 -0.161)" fill="#fff"/>
            <path id="Trazado_623445" data-name="Trazado 623445" d="M21.088,8.767A2.407,2.407,0,1,1,18.68,6.36a2.408,2.408,0,0,1,2.407,2.407" transform="translate(-0.412 -0.161)" fill="#fff"/>
            <path id="Trazado_623446" data-name="Trazado 623446" d="M29.416,8.767A2.407,2.407,0,1,1,27.008,6.36a2.408,2.408,0,0,1,2.407,2.407" transform="translate(-0.623 -0.161)" fill="#fff"/>
            <path id="Trazado_623447" data-name="Trazado 623447" d="M181.047,135.4s-.016-.848-.022-2.473-.014-4.036-.024-7.179c-.012-6.29-.03-15.516-.053-27.3-.026-23.549-.063-57.312-.109-98.2l.209.209L.269.509H.254L.508.254C.5,48.826.49,94.833.483,135.4l-.229-.229,130.5.114,37.064.061,9.831.027,2.534.013c.57,0,.866.014.866.014s-.279.009-.84.014l-2.508.013-9.786.027-37.012.061L.254,135.633H.024V135.4C.018,94.833.009,48.826,0,.254V0H.269L181.047.047h.209V.254c-.045,40.94-.082,74.747-.108,98.327-.022,11.764-.041,20.975-.054,27.254-.01,3.125-.018,5.519-.023,7.139s-.022,2.429-.022,2.429" transform="translate(0 0)" fill="#263238"/>
            <path id="Trazado_623448" data-name="Trazado 623448" d="M171.358,83.818c0,.14-35.98.253-80.351.253-44.388,0-80.36-.113-80.36-.253s35.972-.253,80.36-.253c44.372,0,80.351.113,80.351.253" transform="translate(-0.27 -2.115)" fill="#e0e0e0"/>
            <path id="Trazado_623449" data-name="Trazado 623449" d="M171.358,69.583c0,.14-35.98.254-80.351.254-44.388,0-80.36-.114-80.36-.254s35.972-.253,80.36-.253c44.372,0,80.351.113,80.351.253" transform="translate(-0.27 -1.755)" fill="#e0e0e0"/>
            <path id="Trazado_623450" data-name="Trazado 623450" d="M171.358,55.348c0,.141-35.98.254-80.351.254-44.388,0-80.36-.113-80.36-.254s35.972-.252,80.36-.252c44.372,0,80.351.113,80.351.252" transform="translate(-0.27 -1.395)" fill="#e0e0e0"/>
            <path id="Trazado_623451" data-name="Trazado 623451" d="M171.358,41.114c0,.14-35.98.253-80.351.253-44.388,0-80.36-.113-80.36-.253s35.972-.253,80.36-.253c44.372,0,80.351.113,80.351.253" transform="translate(-0.27 -1.034)" fill="#e0e0e0"/>
            <rect id="Rectángulo_333232" data-name="Rectángulo 333232" width="13.37" height="26.889" transform="translate(23.977 75.413)" fill="#529d2e"/>
            <rect id="Rectángulo_333233" data-name="Rectángulo 333233" width="13.37" height="26.889" transform="translate(71.965 75.413)" fill="#455a64"/>
            <rect id="Rectángulo_333234" data-name="Rectángulo 333234" width="13.37" height="17.723" transform="translate(144.755 84.58)" fill="#455a64"/>
            <rect id="Rectángulo_333235" data-name="Rectángulo 333235" width="13.37" height="39.623" transform="translate(119.952 62.68)" fill="#e0e0e0"/>
            <rect id="Rectángulo_333236" data-name="Rectángulo 333236" width="13.37" height="55.048" transform="translate(95.419 47.254)" fill="#529d2e"/>
            <rect id="Rectángulo_333237" data-name="Rectángulo 333237" width="13.37" height="39.623" transform="translate(47.014 62.68)" fill="#e0e0e0"/>
            <path id="Trazado_623452" data-name="Trazado 623452" d="M169.43,103.073s-.2.019-.6.026l-1.755.025-6.749.048-24.823.081-81.9.074-43.2-.019h-.236v-.236c.037-21.3.069-39.449.092-52.3.028-6.4.052-11.48.067-14.979.016-1.725.028-3.061.037-3.984.009-.44.015-.778.019-1.025.007-.23.019-.348.019-.348s.014.118.02.348c0,.248.011.586.019,1.025.009.923.02,2.258.037,3.984.016,3.5.038,8.578.067,14.979.022,12.85.055,31,.092,52.3l-.236-.235,43.2-.018,81.9.074,24.823.081,6.749.047,1.755.025c.4.009.6.025.6.025" transform="translate(-0.257 -0.77)" fill="#263238"/>
            <rect id="Rectángulo_333238" data-name="Rectángulo 333238" width="5.874" height="5.874" transform="translate(38.252 115.943)" fill="#ff725e"/>
            <rect id="Rectángulo_333239" data-name="Rectángulo 333239" width="5.874" height="5.874" transform="translate(74.161 115.757)" fill="#e0e0e0"/>
            <rect id="Rectángulo_333240" data-name="Rectángulo 333240" width="5.874" height="5.874" transform="translate(113.007 115.943)" fill="#455a64"/>
            <path id="Trazado_623453" data-name="Trazado 623453" d="M64.82,121.769a63.266,63.266,0,0,1-8,.253,63.263,63.263,0,0,1-8-.253,63.263,63.263,0,0,1,8-.253,63.266,63.266,0,0,1,8,.253" transform="translate(-1.236 -3.076)" fill="#263238"/>
            <path id="Trazado_623454" data-name="Trazado 623454" d="M101.381,121.769a63.266,63.266,0,0,1-8,.253,63.263,63.263,0,0,1-8-.253,63.263,63.263,0,0,1,8-.253,63.266,63.266,0,0,1,8,.253" transform="translate(-2.161 -3.076)" fill="#263238"/>
            <path id="Trazado_623455" data-name="Trazado 623455" d="M140.305,121.769a63.266,63.266,0,0,1-8,.253,63.263,63.263,0,0,1-8-.253,63.263,63.263,0,0,1,8-.253,63.266,63.266,0,0,1,8,.253" transform="translate(-3.147 -3.076)" fill="#263238"/>
          </g>
        </g>
      </g>
      <g id="Grupo_924804" data-name="Grupo 924804" transform="translate(1253.133 3508.76)">
        <g id="Grupo_924803" data-name="Grupo 924803" transform="translate(0 0)" clip-path="url(#clip-path-16)">
          <path id="Trazado_623432" data-name="Trazado 623432" d="M101.62,49.113A49.474,49.474,0,1,1,51.359.216a49.653,49.653,0,0,1,50.261,48.9M28.5,50.293A23.655,23.655,0,1,0,51.773,26.15,23.733,23.733,0,0,0,28.5,50.293" transform="translate(0.841 0.065)" fill="#f5f5f5"/>
          <path id="Trazado_623433" data-name="Trazado 623433" d="M89.986,49.112A49.653,49.653,0,0,1,41.314,99.605L40.9,73.671a23.765,23.765,0,0,0-.76-47.523L39.725.215a49.635,49.635,0,0,1,50.261,48.9" transform="translate(12.475 0.065)" fill="#455a64"/>
          <path id="Trazado_623434" data-name="Trazado 623434" d="M22.335,44.158a1.566,1.566,0,0,1-.022-.384c0-.294,0-.666.005-1.131a10.855,10.855,0,0,1,.124-1.834,16.722,16.722,0,0,1,.41-2.48A22.552,22.552,0,0,1,25.313,31.9,23.716,23.716,0,0,1,53.8,21.042,22.4,22.4,0,0,1,59.93,24.22,26.343,26.343,0,0,1,62.688,26.5a26.88,26.88,0,0,1,2.4,2.75,23.98,23.98,0,0,1,.457,28.428A26.924,26.924,0,0,1,63.235,60.5a26.7,26.7,0,0,1-2.683,2.367,22.447,22.447,0,0,1-6.024,3.376A23.788,23.788,0,0,1,25.7,56.312a22.538,22.538,0,0,1-2.665-6.344,16.906,16.906,0,0,1-.49-2.465,11.043,11.043,0,0,1-.181-1.83c-.017-.464-.03-.836-.041-1.129a1.617,1.617,0,0,1,.009-.385A36.962,36.962,0,0,0,23.3,49.9a22.768,22.768,0,0,0,2.733,6.213,23.587,23.587,0,0,0,6.079,6.566A23.19,23.19,0,0,0,54.3,65.658a21.867,21.867,0,0,0,5.85-3.3,26.079,26.079,0,0,0,2.6-2.31,26.179,26.179,0,0,0,2.238-2.753,23.37,23.37,0,0,0-.444-27.638,26.446,26.446,0,0,0-2.325-2.679,26.025,26.025,0,0,0-2.678-2.223A21.835,21.835,0,0,0,53.6,21.637a23.187,23.187,0,0,0-22.084,3.7,23.577,23.577,0,0,0-5.866,6.757,22.779,22.779,0,0,0-2.533,6.3,37.219,37.219,0,0,0-.777,5.769" transform="translate(7.007 6.199)" fill="#263238"/>
          <path id="Trazado_623435" data-name="Trazado 623435" d="M101.7,49.178s-.042-.271-.088-.8c-.045-.555-.108-1.334-.191-2.35q-.059-.779-.131-1.731c-.076-.633-.223-1.319-.347-2.066a36.157,36.157,0,0,0-1.112-5.1,47.553,47.553,0,0,0-5.681-13.067A49.4,49.4,0,0,0,81.416,10.234,48.848,48.848,0,0,0,60.549,1.3,45.648,45.648,0,0,0,54.307.673C53.244.654,52.172.566,51.093.6L47.836.824c-.545.049-1.1.05-1.643.137l-1.639.281c-1.093.2-2.208.344-3.3.6a51.376,51.376,0,0,0-6.531,2.05,51.949,51.949,0,0,0-6.369,2.947c-1.022.593-2.012,1.261-3.029,1.894a25.708,25.708,0,0,0-2.929,2.108A54.664,54.664,0,0,0,16.9,15.7l-2.452,2.8-.618.7-.548.762-1.1,1.528-1.105,1.536-.959,1.639L9.161,26.32l-.482.827-.4.87q-.8,1.742-1.612,3.5-.633,1.827-1.272,3.67A52.893,52.893,0,0,0,3.108,50.761a52.86,52.86,0,0,0,2.778,15.5l1.389,3.628Q8.14,71.621,9,73.338l.43.857.509.811,1.014,1.618,1.01,1.608,1.154,1.5,1.15,1.493.572.745.64.685q1.275,1.368,2.541,2.723a54.715,54.715,0,0,0,5.644,4.681,25.5,25.5,0,0,0,3,2.013c1.037.6,2.047,1.235,3.089,1.795A53.687,53.687,0,0,0,42.8,98.443c1.105.218,2.223.325,3.322.491l1.646.229c.548.067,1.1.053,1.648.083l3.263.117c1.079,0,2.148-.122,3.21-.176a45.981,45.981,0,0,0,6.218-.828,48.9,48.9,0,0,0,20.567-9.607A49.389,49.389,0,0,0,94.96,74.516a47.54,47.54,0,0,0,5.259-13.24,36.041,36.041,0,0,0,.947-5.13c.1-.75.225-1.44.281-2.075q.041-.954.076-1.735c.05-1.017.088-1.8.114-2.355.03-.531.063-.8.063-.8s.014.272.008.8c-.012.557-.028,1.342-.047,2.361q-.02.783-.043,1.741c-.046.639-.16,1.332-.25,2.087a35.562,35.562,0,0,1-.89,5.166,47.3,47.3,0,0,1-5.187,13.37A49.849,49.849,0,0,1,62.225,98.915a46.143,46.143,0,0,1-6.289.855c-1.074.058-2.156.183-3.248.187l-3.3-.11c-.555-.029-1.114-.014-1.669-.08l-1.668-.226c-1.113-.167-2.246-.273-3.365-.491a54.282,54.282,0,0,1-13.232-4.614c-1.058-.565-2.081-1.208-3.133-1.813a26.177,26.177,0,0,1-3.039-2.034,55.074,55.074,0,0,1-5.724-4.737q-1.285-1.372-2.579-2.757l-.648-.693-.581-.754L12.58,80.136l-1.17-1.519-1.028-1.629L9.355,75.349l-.516-.821L8.4,73.659l-1.749-3.5-1.41-3.677A53.467,53.467,0,0,1,2.425,50.772,53.451,53.451,0,0,1,4.743,34.984q.648-1.867,1.292-3.72l1.636-3.548.409-.882L8.568,26l.975-1.669.975-1.661,1.121-1.556,1.116-1.549.557-.771.625-.714,2.487-2.837a55.633,55.633,0,0,1,5.569-4.917A26.391,26.391,0,0,1,24.965,8.19C26,7.552,27,6.876,28.037,6.277A54.251,54.251,0,0,1,41.112,1.24c1.112-.256,2.24-.4,3.347-.6l1.66-.281C46.67.273,47.23.272,47.782.225l3.3-.217c1.091-.033,2.176.058,3.252.08A46.226,46.226,0,0,1,60.645.74,49.822,49.822,0,0,1,94.478,23.867a47.277,47.277,0,0,1,5.612,13.2,35.528,35.528,0,0,1,1.055,5.135c.113.752.25,1.44.315,2.078q.055.958.1,1.74c.053,1.018.093,1.8.122,2.359.024.531.018.8.018.8" transform="translate(0.762 0)" fill="#263238"/>
          <path id="Trazado_623436" data-name="Trazado 623436" d="M58.147,92.46C26.236,92.975.779,68.209.267,36.15l30.2-.486C30.713,50.992,42.377,60.643,57.634,60.4Z" transform="translate(0.084 11.2)" fill="#529d2e"/>
          <path id="Trazado_623437" data-name="Trazado 623437" d="M58.231,92.54a5.55,5.55,0,0,1-.037-.6c-.013-.417-.032-.976-.054-1.691-.039-1.512-.1-3.673-.167-6.43-.122-5.573-.3-13.55-.51-23.343l.259.25a33.7,33.7,0,0,1-9.087-1.112,25.962,25.962,0,0,1-9-4.385A23.418,23.418,0,0,1,32.8,46.9,26.314,26.314,0,0,1,30.22,35.75l.336.326-23.386.388-6.815.109.335-.347A63.324,63.324,0,0,0,3.769,54.088q.771,2.058,1.528,4.076C5.866,59.48,6.54,60.737,7.146,62A29.584,29.584,0,0,0,9.2,65.627a33.489,33.489,0,0,0,2.237,3.4l2.406,3.156c.844.993,1.752,1.909,2.6,2.846l1.285,1.382,1.39,1.231,2.717,2.4a58.131,58.131,0,0,0,11.2,6.911l2.674,1.238c.892.346,1.782.629,2.635.934l2.493.87c.812.258,1.627.409,2.4.61l2.244.543,1.06.258c.35.066.7.1,1.035.152l3.7.522a23,23,0,0,0,2.943.235l2.169.112,1.352.076a4.251,4.251,0,0,1,.48.039,2.912,2.912,0,0,1-.434.009l-1.33-.012q-.911-.014-2.2-.033a21.55,21.55,0,0,1-3.007-.173l-3.725-.465c-.34-.047-.69-.08-1.043-.141l-1.068-.244-2.265-.52c-.779-.193-1.6-.338-2.422-.59l-2.519-.85c-.862-.3-1.761-.578-2.662-.92L32.85,87.375a57.98,57.98,0,0,1-11.349-6.9q-1.356-1.183-2.757-2.409l-1.41-1.238-1.306-1.39c-.865-.943-1.786-1.865-2.643-2.866l-2.444-3.181a34.2,34.2,0,0,1-2.272-3.428A30.078,30.078,0,0,1,6.577,62.3c-.616-1.281-1.3-2.551-1.879-3.882q-.771-2.038-1.556-4.12A63.707,63.707,0,0,1,.009,36.237L0,35.9l.346-.005c2.164-.035,4.48-.074,6.815-.11l23.386-.368.332-.005.005.332a25.705,25.705,0,0,0,2.493,10.884A22.842,22.842,0,0,0,40,54.755a25.471,25.471,0,0,0,8.786,4.325,33.336,33.336,0,0,0,8.93,1.143h.255l0,.25c.1,9.861.183,17.893.24,23.5.016,2.735.029,4.876.038,6.376,0,.7,0,1.24,0,1.645a4.013,4.013,0,0,1-.018.544" transform="translate(0 11.119)" fill="#263238"/>
        </g>
      </g>
      <path id="Trazado_623456" data-name="Trazado 623456" d="M93.58,167.312a28.393,28.393,0,0,1,6.93-3.012l1.427-6.859,11.588-.2,1.668,6.8a28.376,28.376,0,0,1,7.031,2.766l5.857-3.839,8.339,8.052-3.63,5.987a28.4,28.4,0,0,1,3.012,6.93l6.858,1.427.2,11.588-6.8,1.668a28.375,28.375,0,0,1-2.766,7.031l3.838,5.857-8.05,8.339-5.988-3.63a28.4,28.4,0,0,1-6.93,3.012l-1.427,6.859-11.588.2-1.668-6.8a28.452,28.452,0,0,1-7.031-2.766l-5.857,3.839-8.338-8.051,3.63-5.988a28.385,28.385,0,0,1-3.012-6.931l-6.858-1.427-.2-11.588,6.8-1.668a28.455,28.455,0,0,1,2.766-7.031l-3.838-5.857,8.05-8.339Zm6.177,15.438a12.433,12.433,0,1,0,17.581-.309,12.434,12.434,0,0,0-17.581.309" transform="translate(1066.496 3356.123)" fill="#ebebeb"/>
      <g id="Grupo_924769" data-name="Grupo 924769" transform="translate(1099.684 3212.41)">
        <g id="Grupo_924768" data-name="Grupo 924768" clip-path="url(#clip-path-17)">
          <g id="Grupo_924767" data-name="Grupo 924767">
            <g id="Grupo_924766" data-name="Grupo 924766" clip-path="url(#clip-path-17)">
              <path id="Trazado_623256" data-name="Trazado 623256" d="M146.384,18.145a3.478,3.478,0,0,0-2.38-1.03,12.616,12.616,0,0,0-7.4,1.432A10.814,10.814,0,0,0,138.1,5.6,12.212,12.212,0,0,0,126.026.131a14.055,14.055,0,0,0-10.509,8.406,16.585,16.585,0,0,0,.595,13.616l7.724,2.027a21.638,21.638,0,0,0,12.155,3.738c1.73,0,3.619-.3,4.787-1.573s.97-3.783-.678-4.31c1.593.354,3.309.7,4.813.068s2.5-2.687,1.472-3.957" transform="translate(44.582 0)" fill="#263238"/>
              <path id="Trazado_623257" data-name="Trazado 623257" d="M127.043,6.544a18.86,18.86,0,0,0-14.526,1.5,11.211,11.211,0,0,0-19.352,2.961,9.808,9.808,0,0,0-11.727,3.981,9.807,9.807,0,0,0,2.2,12.186,12.187,12.187,0,0,0-5.1,18.535c-3.651,1.771-4.277,6.713-3.738,10.736s1.7,8.331-.107,11.967c-1.393,2.808-4.266,4.544-6.231,6.986s-2.652,6.648.01,8.3a8.478,8.478,0,1,0,3.068,16.656,10.392,10.392,0,0,0,1.105,9.969A16.735,16.735,0,0,0,80.98,116.4a24.909,24.909,0,0,0,27.211-7.674l30-92.743a18.863,18.863,0,0,0-11.143-9.438" transform="translate(23.844 1.453)" fill="#263238"/>
              <path id="Trazado_623258" data-name="Trazado 623258" d="M133.467,27.807l.4-5L104.122,15.27C94.9,13.73,84.312,22.425,83.166,31.7,81.891,42.006,80.743,54.638,81.5,62.43c1.529,15.669,13.306,18.36,13.306,18.36L93.95,96.2l34.3,2.5Z" transform="translate(31.687 5.885)" fill="#ae7461"/>
              <path id="Trazado_623259" data-name="Trazado 623259" d="M85.248,37.39a1.994,1.994,0,0,0,1.8,2.124,1.909,1.909,0,0,0,2.16-1.671,2,2,0,0,0-1.8-2.125,1.909,1.909,0,0,0-2.163,1.672" transform="translate(33.239 13.923)" fill="#263238"/>
              <path id="Trazado_623260" data-name="Trazado 623260" d="M84.713,32.451c.231.274,1.807-.751,3.947-.616,2.142.1,3.647,1.3,3.895,1.051.122-.108-.1-.592-.756-1.133a5.464,5.464,0,0,0-3.1-1.162,5.249,5.249,0,0,0-3.162.815c-.689.466-.94.922-.826,1.045" transform="translate(33.024 11.926)" fill="#263238"/>
              <path id="Trazado_623261" data-name="Trazado 623261" d="M99.237,38.148a2,2,0,0,0,1.8,2.124A1.909,1.909,0,0,0,103.2,38.6a2,2,0,0,0-1.8-2.125,1.908,1.908,0,0,0-2.161,1.672" transform="translate(38.694 14.218)" fill="#263238"/>
              <path id="Trazado_623262" data-name="Trazado 623262" d="M99.843,33.65c.232.274,1.808-.751,3.947-.617,2.142.1,3.647,1.3,3.9,1.052.12-.11-.1-.592-.758-1.131a5.454,5.454,0,0,0-3.1-1.163,5.249,5.249,0,0,0-3.162.815c-.687.466-.94.922-.826,1.045" transform="translate(38.924 12.393)" fill="#263238"/>
              <path id="Trazado_623263" data-name="Trazado 623263" d="M95.062,49.207a14.26,14.26,0,0,0-3.442-.837c-.543-.089-1.055-.229-1.124-.607a2.8,2.8,0,0,1,.463-1.6L92.827,42.1c2.6-5.795,4.523-10.572,4.288-10.675s-2.534,4.51-5.137,10.305q-.942,2.143-1.8,4.1a3.172,3.172,0,0,0-.413,2.129,1.373,1.373,0,0,0,.852.853,3.688,3.688,0,0,0,.92.185,13.979,13.979,0,0,0,3.526.217" transform="translate(34.976 12.252)" fill="#263238"/>
              <path id="Trazado_623264" data-name="Trazado 623264" d="M91.074,63.593A41.179,41.179,0,0,0,112.726,59.3s-5.9,10.551-21.874,8.163Z" transform="translate(35.428 23.124)" fill="#6f4439"/>
              <path id="Trazado_623265" data-name="Trazado 623265" d="M100.194,28.258c.211.584,2.355.307,4.872.61,2.523.253,4.553.99,4.887.467.149-.252-.2-.8-1.026-1.365a8.537,8.537,0,0,0-7.435-.82c-.924.373-1.389.831-1.3,1.108" transform="translate(39.066 10.392)" fill="#263238"/>
              <path id="Trazado_623266" data-name="Trazado 623266" d="M85.09,28.664c.343.512,1.853.108,3.628.207,1.778.036,3.252.553,3.633.068.168-.236-.035-.739-.659-1.245a5.265,5.265,0,0,0-5.85-.222c-.662.457-.9.944-.752,1.193" transform="translate(33.164 10.408)" fill="#263238"/>
              <path id="Trazado_623267" data-name="Trazado 623267" d="M84.159,21.743a26.054,26.054,0,0,1,14.169-9.356l25.128,3.161,2.141-.038c.471-1.583,3.141-2.413,3.141-2.413,2.362-1.811,10.541-1.91,16.242,4.05,2.057,2.149,3.518,7.556,3.565,10.53.018,1.126-1.188,2.67-.247,3.289a28.79,28.79,0,0,0,3.43.243c6.391,1.4,10.386,7.067,9.228,15.54a4.313,4.313,0,0,0-.138,1.279,3.5,3.5,0,0,0,1.12,1.665,11.089,11.089,0,0,1,1.76,12.343,13.164,13.164,0,0,0-1.708,3.7c-.388,2.417,1.377,4.572,2.745,6.6,4.1,6.088,4.98,14.932.168,20.473-1.17,1.348-2.678,2.549-3.116,4.278a10.258,10.258,0,0,0-.138,2.6c.031,4.421-2.3,9.37-6.623,10.3-2.4.517-5.314-.16-7.021,1.6a10.418,10.418,0,0,0-1.532,2.8,8.97,8.97,0,0,1-10.334,4.448c-3.9-1.2-5.191-17.023-4.627-21.063-4.722-1.717-8.217-2.021-8-7.041,0,0,.73-8.64-.669-12.849s1.407-13.166,3.005-17.516-.306-14.476-.734-18.5a14.656,14.656,0,0,1,.334-3.444v0l0-.013c.175-.979.4-2.081.674-3.262.1-1.1,1-6.978.99-8.006-.063-3.806-4.787-1.771-8.4-.559a9.25,9.25,0,0,1-2.706.488,9.636,9.636,0,0,1-7.76-3.678,13.874,13.874,0,0,1-13.694,3.745,37.761,37.761,0,0,1-6.5,7.556,12.725,12.725,0,0,1-9.2,3.164,26.058,26.058,0,0,1,5.3-16.13" transform="translate(30.751 4.683)" fill="#263238"/>
              <path id="Trazado_623268" data-name="Trazado 623268" d="M94.725,48.4a3.786,3.786,0,0,1,3.322-1.576,3.465,3.465,0,0,1,2.45,1.161,2.2,2.2,0,0,1,.292,2.495,2.544,2.544,0,0,1-2.72.834,7.934,7.934,0,0,1-2.763-1.466,2.3,2.3,0,0,1-.632-.592.7.7,0,0,1-.036-.781" transform="translate(36.864 18.256)" fill="#6f4439"/>
              <path id="Trazado_623269" data-name="Trazado 623269" d="M100.15,45.167c-.342,0-.234,2.277-2.1,3.993s-4.312,1.587-4.313,1.907c-.025.145.563.416,1.591.392A5.686,5.686,0,0,0,98.93,50a4.946,4.946,0,0,0,1.618-3.341c.039-.958-.242-1.509-.4-1.489" transform="translate(36.551 17.613)" fill="#263238"/>
              <path id="Trazado_623270" data-name="Trazado 623270" d="M72.356,339.708l2.827,29.452s-32.1,11.992-32.45,17.926l60.691.165-.035-4.438-2.545-15.152-3.751-29.429Z" transform="translate(16.664 131.894)" fill="#455a64"/>
              <path id="Trazado_623271" data-name="Trazado 623271" d="M80.072,357.224a2.537,2.537,0,0,1,1.761,2.89,2.436,2.436,0,0,1-2.849,1.771,2.675,2.675,0,0,1-1.849-3.07c.41-1.176,2.068-2.1,3.168-1.514" transform="translate(30.044 139.259)" fill="#e0e0e0"/>
              <path id="Trazado_623272" data-name="Trazado 623272" d="M103.431,374.744l-.033-4.438-58.212,1.116s-2.762,1.211-2.445,3.157Z" transform="translate(16.657 144.401)" fill="#263238"/>
              <path id="Trazado_623273" data-name="Trazado 623273" d="M65.355,360.337c.011.3,1.528.436,3.022,1.408,1.521.933,2.293,2.245,2.571,2.124.279-.06-.177-1.872-2.007-3.016-1.819-1.161-3.653-.794-3.586-.516" transform="translate(25.485 140.403)" fill="#263238"/>
              <path id="Trazado_623274" data-name="Trazado 623274" d="M60.674,362.243c-.068.295,1.245.806,2.28,2.086,1.07,1.25,1.334,2.637,1.636,2.621.285.049.491-1.729-.824-3.3s-3.086-1.7-3.091-1.412" transform="translate(23.659 141.208)" fill="#263238"/>
              <path id="Trazado_623275" data-name="Trazado 623275" d="M58.71,369.291c.275.064.694-1.453-.089-3.111s-2.2-2.317-2.331-2.064c-.171.249.752,1.138,1.375,2.51.653,1.357.744,2.635,1.045,2.665" transform="translate(21.942 141.966)" fill="#263238"/>
              <path id="Trazado_623276" data-name="Trazado 623276" d="M63.809,355.471c.128.277,1.518-.146,3.233-.033,1.717.076,3.052.649,3.209.389.175-.221-1.13-1.34-3.152-1.443-2.02-.12-3.44.849-3.29,1.087" transform="translate(24.878 138.188)" fill="#263238"/>
              <path id="Trazado_623277" data-name="Trazado 623277" d="M125.947,340.258l2.6,28.95S96.938,380.8,96.559,386.624l59.622.528-.007-4.36-2.409-14.9-3.508-28.935Z" transform="translate(37.653 132.176)" fill="#455a64"/>
              <path id="Trazado_623278" data-name="Trazado 623278" d="M133.343,357.6a2.491,2.491,0,0,1,1.712,2.849,2.394,2.394,0,0,1-2.809,1.722,2.628,2.628,0,0,1-1.8-3.027c.41-1.154,2.045-2.049,3.122-1.468" transform="translate(50.832 139.405)" fill="#e0e0e0"/>
              <path id="Trazado_623279" data-name="Trazado 623279" d="M156.187,374.854l-.007-4.36-57.194.745s-2.72,1.172-2.42,3.087Z" transform="translate(37.647 144.474)" fill="#263238"/>
              <path id="Trazado_623280" data-name="Trazado 623280" d="M118.863,360.572c.008.3,1.5.438,2.961,1.4,1.487.926,2.238,2.22,2.513,2.1.275-.057-.163-1.839-1.954-2.974-1.781-1.151-3.583-.8-3.519-.528" transform="translate(46.35 140.499)" fill="#263238"/>
              <path id="Trazado_623281" data-name="Trazado 623281" d="M114.252,362.417c-.07.288,1.219.8,2.227,2.064,1.044,1.234,1.3,2.6,1.591,2.585.279.049.492-1.7-.791-3.244-1.268-1.558-3.02-1.689-3.027-1.405" transform="translate(44.551 141.278)" fill="#263238"/>
              <path id="Trazado_623282" data-name="Trazado 623282" d="M112.28,369.33c.271.064.691-1.422-.068-3.056s-2.15-2.289-2.278-2.042c-.168.245.732,1.123,1.336,2.474.634,1.337.714,2.594,1.01,2.624" transform="translate(42.861 142.012)" fill="#263238"/>
              <path id="Trazado_623283" data-name="Trazado 623283" d="M117.375,355.778c.124.272,1.493-.133,3.176-.014,1.686.086,2.994.657,3.151.4.172-.215-1.1-1.322-3.088-1.436-1.982-.129-3.385.813-3.239,1.048" transform="translate(45.766 138.322)" fill="#263238"/>
              <path id="Trazado_623284" data-name="Trazado 623284" d="M67.351,155.02S52.965,196.682,52.47,227.675s-.992,80.277,5.456,134.642,9.425,76.212,9.425,76.212H100.09s3.472-34.041,2.976-64.527-2.879-40.138.049-73.672,7.561-53.676,12.439-63.836c0,0,13.513-16.064,14.506-38.1s-6.807-40.973-6.807-40.973Z" transform="translate(20.357 60.45)" fill="#263238"/>
              <path id="Trazado_623285" data-name="Trazado 623285" d="M84.033,212.94c.543,1.673,10.258,69.978,17.345,100.106s14.974,38.1,16.356,62.609c1.591,28.188,9.331,62.343,9.331,62.343h34.86s-4.9-52.1-9.8-92.831-11.984-90.942-10.894-106,3.814-33.667,0-54.772-12.055-26.669-12.055-26.669l-29.575-1.339Z" transform="translate(32.769 60.982)" fill="#263238"/>
              <path id="Trazado_623286" data-name="Trazado 623286" d="M114.4,168.965a7.315,7.315,0,0,1,.541,1.061,21.01,21.01,0,0,1,1.183,3.207,42.48,42.48,0,0,1,1.149,12.486,82.362,82.362,0,0,1-2.866,18.381,59.074,59.074,0,0,1-3.8,10.341,73.646,73.646,0,0,1-6.3,10c-4.738,6.527-7.079,13.962-8.851,20.677a147.352,147.352,0,0,0-3.308,18.225c-.644,5.243-1.03,9.5-1.319,12.447q-.213,2.129-.341,3.389a7.2,7.2,0,0,1-.167,1.177,7.325,7.325,0,0,1,.021-1.188q.075-1.266.2-3.4c.2-2.951.509-7.222,1.088-12.485A140.11,140.11,0,0,1,94.8,244.947a89.126,89.126,0,0,1,3.3-10.5,52.094,52.094,0,0,1,2.434-5.314,54.96,54.96,0,0,1,3.17-5.108,74.113,74.113,0,0,0,6.258-9.9,59.117,59.117,0,0,0,3.8-10.2,84.4,84.4,0,0,0,3-18.222,44.4,44.4,0,0,0-.909-12.394,24.886,24.886,0,0,0-1.044-3.219,7.4,7.4,0,0,1-.4-1.119" transform="translate(35.214 65.888)" fill="#455a64"/>
              <path id="Trazado_623287" data-name="Trazado 623287" d="M11.018,103.2c6.012,3.6,16.87,6.959,16.87,6.959l12.172-9.728S31.353,84.522,28.55,80.013A24.1,24.1,0,0,1,26.28,75.2c-.941-3.387-3.426-1.946-3.885.723a14.512,14.512,0,0,0,.758,4.294A12.586,12.586,0,0,1,24,85.375s-.887-.755-3.076-2.228c-2.382-1.6-10.439-8.32-13.841-11.132C2,67.813-.561,70.418.1,72.041.927,74.061,13.547,82.9,13.095,84.409c0,0-2.43,1.38-2.773,2.954a7.982,7.982,0,0,0,.024,3.13s-2.277.222-2.886,1.685A5.681,5.681,0,0,0,7.632,95.7s-2.11.2-2.353,1.344S6.5,100.5,11.018,103.2" transform="translate(0 27.196)" fill="#ae7461"/>
              <path id="Trazado_623288" data-name="Trazado 623288" d="M32.409,96.732c.183.55,26.1,27.085,26.1,27.085s21.628-24.362,28.21-33.324,16.57-19.951,25.165-22.01,20.541,3.479,20.541,3.479L117.2,103.269,97.977,129.7s-20.77,26.088-30.646,30.112-19.551-1.756-23.757-6.145-29.161-42.32-29.161-42.32Z" transform="translate(5.62 26.526)" fill="#529d2e"/>
              <path id="Trazado_623289" data-name="Trazado 623289" d="M158.073,78.688,98.436,68.354S81.878,97.507,75.683,128.14s-13.255,61.237-13.255,61.237l55.086,6.787a63.487,63.487,0,0,0,17.255-.238l5.74-.867-4.719-19.451c7.874-19.659,13.619-36.456,17.031-50.326,7.4-30.1,5.251-46.594,5.251-46.594" transform="translate(24.344 26.655)" fill="#529d2e"/>
              <path id="Trazado_623290" data-name="Trazado 623290" d="M94.724,96.747a6.981,6.981,0,0,1-.969,1.305l-2.8,3.417c-2.363,2.883-5.565,6.915-9.11,11.368s-6.819,8.443-9.288,11.247c-1.231,1.4-2.249,2.521-2.977,3.271a7.008,7.008,0,0,1-1.183,1.118,6.925,6.925,0,0,1,.969-1.305l2.8-3.417c2.363-2.883,5.565-6.915,9.111-11.37s6.818-8.441,9.286-11.246c1.231-1.4,2.249-2.521,2.977-3.271a7.008,7.008,0,0,1,1.183-1.118" transform="translate(26.672 37.726)" fill="#263238"/>
              <path id="Trazado_623291" data-name="Trazado 623291" d="M121.927,146.161a16.114,16.114,0,0,1-3.74,1.076,55.461,55.461,0,0,1-18.716.721,16.2,16.2,0,0,1-3.813-.784,28.777,28.777,0,0,1,3.868.275,74.943,74.943,0,0,0,18.566-.716,28.869,28.869,0,0,1,3.835-.573" transform="translate(37.302 56.987)" fill="#263238"/>
              <path id="Trazado_623292" data-name="Trazado 623292" d="M45.795,123.769c-.2,0-.314-3.386-.254-7.556s.27-7.55.47-7.547.314,3.386.254,7.557-.27,7.549-.47,7.546" transform="translate(17.752 42.374)" fill="#263238"/>
              <g id="Grupo_924762" data-name="Grupo 924762" transform="translate(142.806 108.786)" opacity="0.3">
                <g id="Grupo_924761" data-name="Grupo 924761">
                  <g id="Grupo_924760" data-name="Grupo 924760" clip-path="url(#clip-path-19)">
                    <path id="Trazado_623293" data-name="Trazado 623293" d="M140.434,81.589,103.17,78.266a6.218,6.218,0,0,0,3.946,8.12,12.063,12.063,0,0,0,9.573,17.989,11.147,11.147,0,0,1,2.97.37c2.065.744,3.054,3.012,4.294,4.823a11.284,11.284,0,0,0,6.947,4.819,8.239,8.239,0,0,0,7.839-2.6c1.825-2.221,2.131-5.29,2.273-8.162a145.268,145.268,0,0,0-.578-22.035" transform="translate(-102.742 -78.266)"/>
                  </g>
                </g>
              </g>
              <g id="Grupo_924765" data-name="Grupo 924765" transform="translate(97.774 136.639)" opacity="0.3">
                <g id="Grupo_924764" data-name="Grupo 924764">
                  <g id="Grupo_924763" data-name="Grupo 924763" clip-path="url(#clip-path-20)">
                    <path id="Trazado_623294" data-name="Trazado 623294" d="M70.343,125.221A26.318,26.318,0,0,0,91.41,98.305c-7.8,8.458-14.379,19.3-21.067,26.916" transform="translate(-70.344 -98.305)"/>
                  </g>
                </g>
              </g>
              <path id="Trazado_623295" data-name="Trazado 623295" d="M149.191,74.061l-31.8-35.388c1.163,8.98-2.221,17.916-6.287,26.007-2.314,4.6-4.9,10.083-2.466,14.628a30.142,30.142,0,0,0-5.253,7.174,10.193,10.193,0,0,0-.342,8.626c1.309,2.673,4.627,4.424,7.4,3.357A9.7,9.7,0,0,0,123.828,110.5a15.382,15.382,0,0,0,5.946,9.264,10.2,10.2,0,0,0,10.651.7c3.234-1.907,4.875-6.388,3.14-9.717,7-1.547,11.367-9.087,11.574-16.25s-2.8-13.993-5.949-20.429" transform="translate(39.867 15.081)" fill="#263238"/>
              <path id="Trazado_623296" data-name="Trazado 623296" d="M90.869,27.914c.008.024-.17.095-.525.21a4.43,4.43,0,0,1-1.619.113,6.431,6.431,0,0,1-4.813-3.312,6.218,6.218,0,0,1-.666-4.1,8.328,8.328,0,0,1,2.185-4.241,9.05,9.05,0,0,1,4.563-2.621,12.256,12.256,0,0,1,5.638.057,15.744,15.744,0,0,1,3.1,1.1l-.489.19A13.028,13.028,0,0,1,104.9,8.441a12.552,12.552,0,0,1,12.4,1.282,8.371,8.371,0,0,1,1.066.9c.224.227.332.352.316.368-.04.046-.527-.406-1.529-1.048a13.124,13.124,0,0,0-4.665-1.826,12.022,12.022,0,0,0-7.318.91,12.517,12.517,0,0,0-6.26,6.549l-.143.353-.346-.164a15.261,15.261,0,0,0-2.951-1.042,11.68,11.68,0,0,0-5.307-.072,8.436,8.436,0,0,0-4.246,2.392,7.783,7.783,0,0,0-2.077,3.886,5.725,5.725,0,0,0,.527,3.757,6.25,6.25,0,0,0,4.4,3.275,7.407,7.407,0,0,0,2.109-.043" transform="translate(32.425 2.869)" fill="#455a64"/>
              <path id="Trazado_623297" data-name="Trazado 623297" d="M145.965,48.368c-.057-.028.267-.656.606-1.875a12.582,12.582,0,0,0,.281-5.311,11.465,11.465,0,0,0-3.724-6.858,12.069,12.069,0,0,0-9.106-2.965l-.532.056.15-.517a14.285,14.285,0,0,0,.546-3.266,14.823,14.823,0,0,0-3.453-10.251,14.236,14.236,0,0,0-7.648-4.576,15.329,15.329,0,0,0-6.114-.189c-1.437.259-2.2.557-2.227.491a1.871,1.871,0,0,1,.538-.26,10.654,10.654,0,0,1,1.633-.507,14.916,14.916,0,0,1,14.323,4.608,15.327,15.327,0,0,1,3.671,10.721,14.923,14.923,0,0,1-.582,3.437l-.382-.46a12.6,12.6,0,0,1,9.609,3.2,11.8,11.8,0,0,1,3.775,7.264,12.057,12.057,0,0,1-.507,5.458,8.338,8.338,0,0,1-.581,1.364c-.163.3-.256.445-.277.435" transform="translate(44.745 4.672)" fill="#455a64"/>
              <path id="Trazado_623298" data-name="Trazado 623298" d="M102.406,25.114c-.018.031-.367-.1-.888-.51a6.2,6.2,0,0,1-1.7-2.228,7.29,7.29,0,0,1-.573-4.134,7.763,7.763,0,0,1,2.494-4.459,8.825,8.825,0,0,1,4.606-2.193,10.107,10.107,0,0,1,6.7,1.379c.557.347.823.6.8.634a26.591,26.591,0,0,0-3.473-1.245,10.2,10.2,0,0,0-3.913-.108,8.475,8.475,0,0,0-4.228,2.071A7.325,7.325,0,0,0,99.9,18.353a7.077,7.077,0,0,0,.386,3.82,8.883,8.883,0,0,0,2.117,2.941" transform="translate(38.667 4.478)" fill="#455a64"/>
              <path id="Trazado_623299" data-name="Trazado 623299" d="M116.845,92.623c-.015.019-.167-.074-.443-.272a9.075,9.075,0,0,1-1.13-.97,13.045,13.045,0,0,1-3.2-12.728,13.4,13.4,0,0,1,6.248-7.66,12.678,12.678,0,0,1,3.906-1.426l-.2.592a10.111,10.111,0,0,1-2.428-8.088,9.434,9.434,0,0,1,3.321-5.925,9.586,9.586,0,0,1,4.043-2.033,6.432,6.432,0,0,1,1.208-.174c.278-.01.423-.006.425.018.006.058-.573.106-1.566.4a10.072,10.072,0,0,0-3.8,2.143,9.082,9.082,0,0,0-3.006,5.653,9.561,9.561,0,0,0,2.332,7.522l.43.475-.628.118a12.075,12.075,0,0,0-3.681,1.355,12.883,12.883,0,0,0-5.966,7.225,12.584,12.584,0,0,0,.132,7.731,13.658,13.658,0,0,0,2.64,4.608c.844.947,1.411,1.38,1.368,1.434" transform="translate(43.498 21.031)" fill="#455a64"/>
              <path id="Trazado_623300" data-name="Trazado 623300" d="M118.745,27.01l-.992-4.487a32.771,32.771,0,0,0-3.193,21.059c.613,3.307,1.714,6.854.282,9.9-.979,2.078-2.983,3.5-4.13,5.49-1.453,2.517-.381,9.147-.755,10.452-.849,2.974-3.729,4.873-4.408,8.466s.185,7.934,3.412,9.652c6.077-10.023,12.3-20.438,13.726-32.072,1.177-9.581-1.006-19.262-3.943-28.458" transform="translate(41.075 8.783)" fill="#263238"/>
              <path id="Trazado_623301" data-name="Trazado 623301" d="M131.878,50.5a1.367,1.367,0,0,1-.518.029,11.154,11.154,0,0,1-1.476-.154,10.147,10.147,0,0,1-4.977-2.239,7.714,7.714,0,0,1-2.175-3.161,5.892,5.892,0,0,1,.075-4.42,5.4,5.4,0,0,1,3.753-3.126,3.935,3.935,0,0,1,2.677.382,2.508,2.508,0,0,1,1.3,2.524,2.044,2.044,0,0,1-.816,1.312,2.7,2.7,0,0,1-1.4.442,5.205,5.205,0,0,1-2.591-.619,12.445,12.445,0,0,1-3.8-3,12.3,12.3,0,0,1-2.049-12.864,10.149,10.149,0,0,1,.685-1.318c.188-.284.295-.425.316-.413.057.032-.31.642-.738,1.833a12.9,12.9,0,0,0-.71,5.239,12.176,12.176,0,0,0,6.618,9.891,4.537,4.537,0,0,0,2.234.534,1.479,1.479,0,0,0,1.537-1.151,1.787,1.787,0,0,0-.941-1.785,3.251,3.251,0,0,0-2.185-.31,4.751,4.751,0,0,0-3.279,2.7,5.3,5.3,0,0,0-.115,3.946,7.3,7.3,0,0,0,1.951,2.98,10.467,10.467,0,0,0,4.691,2.343c1.233.286,1.943.339,1.938.4" transform="translate(46.368 9.311)" fill="#455a64"/>
            </g>
          </g>
        </g>
      </g>
    </g>
  </g>
</svg>
