<svg xmlns="http://www.w3.org/2000/svg" width="279.503" height="126.086" viewBox="0 0 279.503 126.086">
  <g id="Grupo_980852" data-name="Grupo 980852" transform="translate(-681.429 -3506.191)">
    <path id="Trazado_655317" data-name="Trazado 655317" d="M5.545,13,8.284,3.914h2.772L6.848,16H4.25L.058,3.914H2.822Zm12.85.506H14.028L13.2,16H10.55l4.5-12.086h2.308L21.881,16H19.233ZM14.7,11.493h3.021L16.2,6.969ZM32.838,16h-2.49L25.5,8.048V16H23.01V3.914H25.5l4.856,7.969V3.914h2.482ZM46.717,9.808H39.3V7.849h7.421Zm0,3.594H39.3V11.443h7.421Z" transform="translate(681.371 3556.277)" fill="#12263f"/>
    <path id="Trazado_654738" data-name="Trazado 654738" d="M6076.7-7901.42v-8.844h-46.332l28.224,35.176-28.224,38.627H6076.7v-12.82" transform="translate(-5297 11442.277)" fill="none" stroke="#0f2440" stroke-width="2"/>
    <path id="Trazado_655318" data-name="Trazado 655318" d="M10.907,0H8.417L3.569-7.952V0H1.079V-12.086h2.49L8.425-4.117v-7.969h2.482Z" transform="translate(749 3518.277)" fill="#12263f"/>
    <path id="Trazado_655319" data-name="Trazado 655319" d="M3.129-8.981,3.2-7.944a3.136,3.136,0,0,1,2.582-1.2,2.606,2.606,0,0,1,2.125.838A3.912,3.912,0,0,1,8.625-5.8V0h-2.4V-5.757a1.562,1.562,0,0,0-.332-1.111,1.484,1.484,0,0,0-1.1-.345,1.65,1.65,0,0,0-1.519.865V0H.872V-8.981ZM22.3-6.192H14.883V-8.151H22.3Zm0,3.594H14.883V-4.557H22.3ZM34.365,0h-2.4V-9.26L29.1-8.375V-10.31L34.108-12.1h.257Z" transform="translate(736 3632.277)" fill="#12263f"/>
    <path id="Trazado_655320" data-name="Trazado 655320" d="M10.99-5.769a7.282,7.282,0,0,1-.548,2.943,5.052,5.052,0,0,1-1.519,2L10.932.755l-1.585,1.4L6.773.091A5.447,5.447,0,0,1,5.86.166,5.028,5.028,0,0,1,3.179-.556,4.8,4.8,0,0,1,1.353-2.619,7.087,7.087,0,0,1,.7-5.7v-.6a7.258,7.258,0,0,1,.643-3.142,4.79,4.79,0,0,1,1.818-2.083,5,5,0,0,1,2.685-.726,5,5,0,0,1,2.685.726,4.79,4.79,0,0,1,1.818,2.083,7.237,7.237,0,0,1,.643,3.134ZM8.467-6.317a5.086,5.086,0,0,0-.681-2.889,2.218,2.218,0,0,0-1.942-.988,2.219,2.219,0,0,0-1.934.975,5.028,5.028,0,0,0-.689,2.86v.589A5.15,5.15,0,0,0,3.9-2.9,2.212,2.212,0,0,0,5.86-1.876,2.192,2.192,0,0,0,7.786-2.86a5.12,5.12,0,0,0,.681-2.868Zm6.4-2.665.075,1.038a3.136,3.136,0,0,1,2.582-1.2,2.606,2.606,0,0,1,2.125.838A3.912,3.912,0,0,1,20.362-5.8V0h-2.4V-5.757a1.562,1.562,0,0,0-.332-1.111,1.484,1.484,0,0,0-1.1-.345,1.65,1.65,0,0,0-1.519.865V0h-2.4V-8.981Z" transform="translate(831 3550.277)" fill="#12263f"/>
    <path id="Trazado_654739" data-name="Trazado 654739" d="M6088.494-7873.363h113.613" transform="translate(-5297 11442.277)" fill="none" stroke="#12263f" stroke-width="2"/>
    <path id="Trazado_655321" data-name="Trazado 655321" d="M1.029-4.914a12.739,12.739,0,0,1,.506-3.619A9.551,9.551,0,0,1,3.03-11.575a5.579,5.579,0,0,1,2.142-1.839l.465,1.295A5.778,5.778,0,0,0,3.744-9.347a12.837,12.837,0,0,0-.681,4.383v.257a13.082,13.082,0,0,0,.672,4.4,5.89,5.89,0,0,0,1.9,2.814l-.465,1.27a5.581,5.581,0,0,1-2.1-1.789A9.391,9.391,0,0,1,1.577-.971a12.663,12.663,0,0,1-.548-3.5ZM12.617,0h-2.4V-9.26l-2.864.884V-10.31L12.36-12.1h.257Zm13.1-6.765h3V-4.6h-3v3.387H23.433V-4.6h-3V-6.765h3v-3.246h2.283Zm17.432-3.3h-3.7V0h-2.49V-10.069H33.3v-2.017h9.845ZM47.215,0h-2.49V-12.086h2.49ZM54-4.424H52.013V0h-2.49V-12.086h4.491a5.076,5.076,0,0,1,3.3.955,3.3,3.3,0,0,1,1.162,2.7,3.718,3.718,0,0,1-.535,2.063,3.651,3.651,0,0,1-1.623,1.316L58.936-.116V0H56.263ZM52.013-6.441h2.009a2.057,2.057,0,0,0,1.453-.477,1.706,1.706,0,0,0,.515-1.316A1.826,1.826,0,0,0,55.5-9.579a2.018,2.018,0,0,0-1.49-.49h-2ZM68.581-4.723a12.088,12.088,0,0,1-.54,3.611,9.8,9.8,0,0,1-1.552,3.063,5.593,5.593,0,0,1-2.167,1.826l-.465-1.27A5.837,5.837,0,0,0,65.717-.232a12.685,12.685,0,0,0,.706-4.258v-.44a12.971,12.971,0,0,0-.677-4.375,6.084,6.084,0,0,0-1.888-2.839l.465-1.27a5.594,5.594,0,0,1,2.129,1.776,9.675,9.675,0,0,1,1.552,3A12,12,0,0,1,68.581-5.1Z" transform="translate(811 3600.277)" fill="#12263f"/>
    <path id="Trazado_655322" data-name="Trazado 655322" d="M3.129-8.981,3.2-7.944a3.136,3.136,0,0,1,2.582-1.2,2.606,2.606,0,0,1,2.125.838A3.912,3.912,0,0,1,8.625-5.8V0h-2.4V-5.757a1.562,1.562,0,0,0-.332-1.111,1.484,1.484,0,0,0-1.1-.345,1.65,1.65,0,0,0-1.519.865V0H.872V-8.981Z" transform="translate(881 3593.277)" fill="#12263f"/>
    <path id="Trazado_655323" data-name="Trazado 655323" d="M5.586-4.208H.913V-6.143H5.586ZM14.551,0h-2.49V-12.086h2.49ZM28.563-6.192H21.142V-8.151h7.421Zm0,3.594H21.142V-4.557h7.421ZM42.932-5a6.123,6.123,0,0,1-1.038,3.835A3.622,3.622,0,0,1,38.856.166a3.647,3.647,0,0,1-3.021-1.3,5.943,5.943,0,0,1-1.071-3.735V-7.1a6.042,6.042,0,0,1,1.05-3.843,3.649,3.649,0,0,1,3.026-1.312,3.652,3.652,0,0,1,3.021,1.3,5.925,5.925,0,0,1,1.071,3.731Zm-2.4-2.446a4.426,4.426,0,0,0-.411-2.189,1.389,1.389,0,0,0-1.282-.685,1.364,1.364,0,0,0-1.249.652,4.142,4.142,0,0,0-.427,2.04v2.941a4.646,4.646,0,0,0,.4,2.2,1.37,1.37,0,0,0,1.291.719,1.347,1.347,0,0,0,1.27-.69,4.535,4.535,0,0,0,.407-2.11Z" transform="translate(918 3573.277)" fill="#12263f"/>
  </g>
</svg>
