<svg id="Grupo_955146" data-name="Grupo 955146" xmlns="http://www.w3.org/2000/svg" xmlns:xlink="http://www.w3.org/1999/xlink" width="219.207" height="111.564" viewBox="0 0 219.207 111.564">
  <defs>
    <clipPath id="clip-path">
      <rect id="Rectángulo_341012" data-name="Rectángulo 341012" width="219.207" height="111.564" fill="none"/>
    </clipPath>
    <clipPath id="clip-path-3">
      <rect id="Rectángulo_340995" data-name="Rectángulo 340995" width="49.775" height="6.183" fill="none"/>
    </clipPath>
    <clipPath id="clip-path-4">
      <path id="Trazado_635861" data-name="Trazado 635861" d="M412.055,60.987l-34.627,70.7a4.491,4.491,0,0,0,2.442,6.278L411.227,150.1a5.528,5.528,0,0,0,6.833-2.687l34.627-70.7a4.491,4.491,0,0,0-2.442-6.278L418.889,58.3a5.2,5.2,0,0,0-1.88-.347,5.552,5.552,0,0,0-4.953,3.034" transform="translate(-376.934 -57.953)" fill="none"/>
    </clipPath>
    <linearGradient id="linear-gradient" x1="-0.777" y1="0.892" x2="-0.774" y2="0.892" gradientUnits="objectBoundingBox">
      <stop offset="0" stop-color="#b2dee8"/>
      <stop offset="0.004" stop-color="#b2dee8"/>
      <stop offset="0.006" stop-color="#b2dee8"/>
      <stop offset="0.245" stop-color="#cce4ed"/>
      <stop offset="0.487" stop-color="#dfe8f1"/>
      <stop offset="0.736" stop-color="#ebebf3"/>
      <stop offset="1" stop-color="#efecf4"/>
    </linearGradient>
    <clipPath id="clip-path-6">
      <rect id="Rectángulo_340998" data-name="Rectángulo 340998" width="30.225" height="54.742" fill="none"/>
    </clipPath>
    <clipPath id="clip-path-7">
      <rect id="Rectángulo_340999" data-name="Rectángulo 340999" width="30.342" height="59.316" fill="none"/>
    </clipPath>
    <clipPath id="clip-path-8">
      <path id="Trazado_635930" data-name="Trazado 635930" d="M489.7,249.679l.021-.006c.046-.039.088-.079.13-.117Z" transform="translate(-489.697 -249.555)" fill="none"/>
    </clipPath>
    <linearGradient id="linear-gradient-2" x1="-971.021" y1="264.419" x2="-969.038" y2="264.419" gradientUnits="objectBoundingBox">
      <stop offset="0" stop-color="#efecf4"/>
      <stop offset="1" stop-color="#e38c89"/>
    </linearGradient>
    <clipPath id="clip-path-11">
      <path id="Trazado_635938" data-name="Trazado 635938" d="M131.7,53.531,99.384,62.815a4.614,4.614,0,0,0-3.106,6.067l26.4,74.018a5.37,5.37,0,0,0,6.453,3.32l32.318-9.284a4.614,4.614,0,0,0,3.106-6.067l-26.4-74.018a5.39,5.39,0,0,0-5.042-3.518,5.1,5.1,0,0,0-1.412.2" transform="translate(-95.992 -53.333)" fill="none"/>
    </clipPath>
    <linearGradient id="linear-gradient-3" x1="-0.125" y1="0.922" x2="-0.122" y2="0.922" xlink:href="#linear-gradient"/>
    <clipPath id="clip-path-13">
      <rect id="Rectángulo_341007" data-name="Rectángulo 341007" width="38.462" height="55.992" fill="none"/>
    </clipPath>
    <clipPath id="clip-path-14">
      <rect id="Rectángulo_341008" data-name="Rectángulo 341008" width="38.585" height="41.59" fill="none"/>
    </clipPath>
  </defs>
  <g id="Grupo_955145" data-name="Grupo 955145" clip-path="url(#clip-path)">
    <g id="Grupo_955117" data-name="Grupo 955117">
      <g id="Grupo_955116" data-name="Grupo 955116" clip-path="url(#clip-path)">
        <path id="Trazado_635840" data-name="Trazado 635840" d="M230.11,12.81a.309.309,0,0,1,.363-.493c.556.3,1.1.609,1.627.93a.309.309,0,0,1-.323.527c-.513-.315-1.049-.621-1.594-.911a.306.306,0,0,1-.072-.053" transform="translate(-158.906 -8.484)" fill="#341d3f"/>
        <path id="Trazado_635841" data-name="Trazado 635841" d="M149.745,38.1a.31.31,0,0,1-.052-.068,17.62,17.62,0,0,1-1.408-3.379.309.309,0,0,1,.59-.184,16.991,16.991,0,0,0,1.356,3.26.309.309,0,0,1-.486.372m-2.238-6.818a.309.309,0,0,1-.086-.162c-.214-1.132-.392-2.339-.529-3.589a.309.309,0,1,1,.615-.067c.135,1.233.31,2.425.522,3.54a.309.309,0,0,1-.522.277m-.791-7.158a.308.308,0,0,1-.091-.208c-.019-.5-.028-.96-.027-1.373a14.89,14.89,0,0,1,.177-2.28.309.309,0,0,1,.611.1,14.24,14.24,0,0,0-.17,2.185c0,.4.008.859.026,1.349a.309.309,0,0,1-.526.232m1.442-4.13c-.152-.151-.3-.307-.439-.463a.309.309,0,0,1,.463-.411,9.477,9.477,0,0,0,2.739,2.125.309.309,0,0,1-.284.549,10.152,10.152,0,0,1-2.479-1.8m-2.173-3.562a.308.308,0,0,1-.079-.132,10.079,10.079,0,0,1-.367-3.674.309.309,0,1,1,.616.049,9.466,9.466,0,0,0,.344,3.45.309.309,0,0,1-.514.307m1.946.675a.31.31,0,0,1-.058-.36,8.578,8.578,0,0,1,1.537-2.163,7.513,7.513,0,0,1,.809-.709.309.309,0,1,1,.373.493,6.943,6.943,0,0,0-.742.65,7.957,7.957,0,0,0-1.425,2.007.309.309,0,0,1-.416.136.316.316,0,0,1-.078-.056M154,22.7a.309.309,0,0,1,.232-.529,6.471,6.471,0,0,0,.748-.005,5.414,5.414,0,0,0,2.5-.845.309.309,0,1,1,.329.524,6.032,6.032,0,0,1-2.786.938,7.14,7.14,0,0,1-.818.006.307.307,0,0,1-.2-.089M146.5,9.389a.31.31,0,0,1-.066-.343,11.29,11.29,0,0,1,1.113-2c.269-.385.558-.758.858-1.108a.309.309,0,1,1,.469.4c-.287.335-.563.691-.82,1.059A10.7,10.7,0,0,0,147,9.291a.309.309,0,0,1-.5.1m7.011,3.666a.309.309,0,0,1,.177-.526,8.17,8.17,0,0,1,3.7.33.309.309,0,1,1-.2.583,7.552,7.552,0,0,0-3.413-.3.308.308,0,0,1-.258-.087m6.253,6.082a.309.309,0,0,1-.067-.34,3.99,3.99,0,0,0-.028-3.246.309.309,0,0,1,.561-.259,4.608,4.608,0,0,1,.037,3.745.309.309,0,0,1-.4.165.314.314,0,0,1-.1-.065M151.114,4a.327.327,0,0,1-.042-.052.309.309,0,0,1,.091-.428,13.262,13.262,0,0,1,3.33-1.548.309.309,0,0,1,.182.591A12.667,12.667,0,0,0,151.5,4.034.309.309,0,0,1,151.114,4M157.9,1.842a.309.309,0,0,1,.2-.528,20.518,20.518,0,0,1,3.65.088.309.309,0,0,1-.068.615,19.893,19.893,0,0,0-3.539-.086.308.308,0,0,1-.239-.088m7.133.744a.309.309,0,0,1,.294-.519,30.074,30.074,0,0,1,3.458,1.124.309.309,0,1,1-.226.576,29.479,29.479,0,0,0-3.387-1.1.3.3,0,0,1-.14-.079" transform="translate(-100.52 -0.877)" fill="#341d3f"/>
        <path id="Trazado_635842" data-name="Trazado 635842" d="M166.716,127.831a.309.309,0,0,1,.378-.484,3.9,3.9,0,0,0,1.613.555.309.309,0,1,1-.067.615,4.512,4.512,0,0,1-1.866-.641.314.314,0,0,1-.057-.045" transform="translate(-115.111 -87.946)" fill="#341d3f"/>
        <path id="Trazado_635843" data-name="Trazado 635843" d="M225.089,4.986l-1.791,5.33,11.016,2.195Z" transform="translate(-154.264 -3.445)" fill="#96bdff"/>
        <path id="Trazado_635844" data-name="Trazado 635844" d="M218.912,2.2l-3.189,2.933,13.358,3.93L221.814,0l-1.959,1.542,6.374,5.865Z" transform="translate(-149.03 0)" fill="#fff"/>
        <path id="Trazado_635845" data-name="Trazado 635845" d="M394.666,69.421a.3.3,0,0,1-.1-.013.309.309,0,0,1-.206-.386,15.435,15.435,0,0,1,.66-1.773.309.309,0,0,1,.565.251,14.655,14.655,0,0,0-.633,1.7.31.31,0,0,1-.283.22" transform="translate(-272.429 -46.331)" fill="#341d3f"/>
        <path id="Trazado_635846" data-name="Trazado 635846" d="M418.242,35.006a.316.316,0,0,1-.081-.007,5.527,5.527,0,0,1-3.15-2.1.309.309,0,1,1,.49-.377,4.851,4.851,0,0,0,2.8,1.879.309.309,0,0,1-.055.611m3.545-.51a.309.309,0,0,1-.155-.584,5.581,5.581,0,0,0,2.425-2.393.309.309,0,0,1,.552.28,6.209,6.209,0,0,1-2.693,2.662.31.31,0,0,1-.128.034m26.986-5.126a.31.31,0,0,1-.315-.243,10.952,10.952,0,0,0-1.331-3.277.309.309,0,0,1,.531-.318A11.582,11.582,0,0,1,449.063,29a.309.309,0,0,1-.236.368.317.317,0,0,1-.053.007m-34.945.328a.309.309,0,0,1-.318-.261,8.042,8.042,0,0,1-.089-.9,8.925,8.925,0,0,1,.352-2.847.309.309,0,1,1,.594.171,8.311,8.311,0,0,0-.328,2.65,7.456,7.456,0,0,0,.082.834.309.309,0,0,1-.258.353l-.035,0m-11.044-.262a.309.309,0,0,1-.258-.5,16.272,16.272,0,0,1,2.58-2.676.309.309,0,0,1,.393.478,15.621,15.621,0,0,0-2.481,2.574.309.309,0,0,1-.233.121m21.82-1.008a.31.31,0,0,1-.3-.2,5.691,5.691,0,0,0-2.018-2.545l-.142-.1a.309.309,0,1,1,.363-.5l.152.113a6.291,6.291,0,0,1,2.227,2.827.309.309,0,0,1-.185.4.3.3,0,0,1-.092.019m-16.222-3.591a.309.309,0,0,1-.148-.587,14.844,14.844,0,0,1,3.523-1.2.309.309,0,1,1,.124.606,14.249,14.249,0,0,0-3.377,1.15.31.31,0,0,1-.122.031m36.774-1.709a.309.309,0,0,1-.233-.092,19.618,19.618,0,0,0-2.751-2.313.309.309,0,1,1,.354-.507,20.233,20.233,0,0,1,2.839,2.386.309.309,0,0,1-.208.526m-26.1.921a.309.309,0,0,1-.1-.014,14.834,14.834,0,0,0-3.518-.622.309.309,0,0,1-.291-.326.313.313,0,0,1,.326-.291l.1.006-.031-.02a.309.309,0,0,1-.062-.433,14.241,14.241,0,0,1,2.615-2.655.309.309,0,0,1,.382.486,13.6,13.6,0,0,0-2.5,2.539.31.31,0,0,1-.133.1,15.373,15.373,0,0,1,3.3.623.309.309,0,0,1-.078.6m20.144-5.1a.312.312,0,0,1-.145-.029q-.335-.159-.67-.3a20.642,20.642,0,0,0-2.706-.937.309.309,0,0,1,.163-.6,21.287,21.287,0,0,1,2.787.966q.345.148.691.311a.309.309,0,0,1-.12.589m-17.778-.564a.309.309,0,0,1-.133-.594l.089-.037a19.235,19.235,0,0,1,3.459-1.048.309.309,0,0,1,.125.606,18.58,18.58,0,0,0-3.347,1.014l-.086.036a.305.305,0,0,1-.107.024M432.19,17.01a.353.353,0,0,1-.048,0,24.019,24.019,0,0,0-3.6-.129.309.309,0,0,1-.025-.618h0a24.607,24.607,0,0,1,3.7.132.309.309,0,0,1-.021.616" transform="translate(-278.038 -11.221)" fill="#341d3f"/>
        <path id="Trazado_635847" data-name="Trazado 635847" d="M550.2,70.949a.314.314,0,0,1-.122-.019.309.309,0,0,1-.181-.4,9.791,9.791,0,0,0,.476-1.732.309.309,0,0,1,.609.108,10.453,10.453,0,0,1-.506,1.841.309.309,0,0,1-.277.2" transform="translate(-379.88 -47.353)" fill="#341d3f"/>
        <rect id="Rectángulo_340994" data-name="Rectángulo 340994" width="11.336" height="7.935" transform="matrix(0.999, -0.042, 0.042, 0.999, 115.788, 25.511)" fill="#595cff"/>
        <path id="Trazado_635848" data-name="Trazado 635848" d="M386.946,68.3l-4.312,2.965-4.646-2.591-.4-9.473,8.958-.374Z" transform="translate(-260.857 -40.64)" fill="#f4e3b8"/>
        <path id="Trazado_635849" data-name="Trazado 635849" d="M387.754,64.588l-6.12.255a.278.278,0,0,0,.023.555l6.12-.255a.278.278,0,0,0-.023-.555" transform="translate(-263.471 -44.62)" fill="#341d3f"/>
        <path id="Trazado_635850" data-name="Trazado 635850" d="M388,70.57l-6.12.255a.278.278,0,0,0,.023.555l6.12-.255A.278.278,0,0,0,388,70.57" transform="translate(-263.643 -48.753)" fill="#341d3f"/>
        <path id="Trazado_635851" data-name="Trazado 635851" d="M388.253,76.552l-6.12.255a.278.278,0,0,0,.023.555l6.12-.255a.278.278,0,0,0-.023-.555" transform="translate(-263.816 -52.885)" fill="#341d3f"/>
        <path id="Trazado_635852" data-name="Trazado 635852" d="M388.5,82.534l-6.12.255a.278.278,0,0,0,.023.555l6.12-.255a.278.278,0,0,0-.023-.555" transform="translate(-263.988 -57.018)" fill="#341d3f"/>
        <path id="Trazado_635853" data-name="Trazado 635853" d="M386.973,89.1q-2.359,1.4-4.608,2.971-2.373-1.377-4.84-2.577c-.179-.087-.324.186-.145.273q2.462,1.2,4.828,2.571a.2.2,0,0,0,.333-.014q2.245-1.566,4.6-2.964c.171-.1,0-.362-.167-.26" transform="translate(-260.653 -61.54)" fill="#341d3f"/>
        <g id="Grupo_955115" data-name="Grupo 955115" transform="translate(118.027 105.381)" style="mix-blend-mode: multiply;isolation: isolate">
          <g id="Grupo_955114" data-name="Grupo 955114">
            <g id="Grupo_955113" data-name="Grupo 955113" clip-path="url(#clip-path-3)">
              <path id="Trazado_635854" data-name="Trazado 635854" d="M431.542,343.955c0,1.707-11.142,3.092-24.887,3.092s-24.887-1.384-24.887-3.092,11.142-3.092,24.887-3.092,24.887,1.384,24.887,3.092" transform="translate(-381.767 -340.863)" fill="#e6e6e6"/>
            </g>
          </g>
        </g>
        <path id="Trazado_635855" data-name="Trazado 635855" d="M573.469,182.291a16.5,16.5,0,0,0-.875,3.908c-.011.318-.194,1.29.05,1.55s1.04-.139,1.391-.236c.963-.265,1.955-.374,2.925-.645a24.129,24.129,0,0,1,3.813-.723c.123-.013.251-.023.38-.028a3.652,3.652,0,0,1,1.346.159,1.612,1.612,0,0,1,1.117,1.269c.237,1.141-.927,2.742-1.523,3.634-.05.072-.1.146-.147.221a10.108,10.108,0,0,0-1.782,3.66,3.129,3.129,0,0,0,.269,1.937,3.215,3.215,0,0,0,.63.9,3.713,3.713,0,0,0,.772.607,3.433,3.433,0,0,0,1.909.445,7.9,7.9,0,0,0,1.125-.124,5.423,5.423,0,0,0,.551-.123,8.019,8.019,0,0,0,2.129-.953c.235-.139.463-.288.687-.444.507-.344,1-.717,1.485-1.077.365-.272.73-.562,1.093-.867.518-.432,1.024-.89,1.517-1.361.557-.527,1.093-1.07,1.6-1.6.839-.891,1.636-1.863,2.413-2.838.209-.26.416-.523.622-.783a24.358,24.358,0,0,1-3.249-.454c-1.265-.266-2.791-.9-1.491-2.281a5.6,5.6,0,0,1,3.049-1.216,25.068,25.068,0,0,1,4.564-.518c.173,0,.347,0,.519-.008.178-.268.356-.539.525-.814.71-1.155,1.34-2.335,1.923-3.532a6.833,6.833,0,0,0-2.5.064c-.866.234-2.308.908-3.082.285-1.1-.889.062-1.716.868-2.191a10.74,10.74,0,0,1,3.577-.89c.434-.083.856-.149,1.28-.2a2.244,2.244,0,0,0,1.805-1.293l0-.014c.7-1.575,1.644-3.608,3.213-4.53a3.469,3.469,0,0,1,.534-.263,6.864,6.864,0,0,1,2.089-.422c-.339-.119-.683-.232-1.032-.335a29.11,29.11,0,0,0-9.411-.923l-.035,0a2.128,2.128,0,0,0-1.824,1.306c-.092.216-.185.434-.292.652-.43.914-.985,2.583-2.012,2.956-1.206.432-1.281-1.543-1.188-2.335a5.318,5.318,0,0,1,.751-1.823c-1.4.27-2.812.411-4.215.747-1.449.354-2.919.731-4.351,1.145-.3,1.177-.4,2.432-.583,3.614-.3,1.951-.126,4.307-1.628,5.826-.793.8-1.544,1.086-2.391.252a3.194,3.194,0,0,1-.79-2.808,21.1,21.1,0,0,1,2.05-5.63c-.584.108-1.168.233-1.751.366-1.3.3-2.921.237-4.073.934a7.643,7.643,0,0,0-2.043,2.4,21.942,21.942,0,0,0-2.307,5.441" transform="translate(-395.519 -116.89)" fill="#6fcc9c"/>
        <path id="Trazado_635856" data-name="Trazado 635856" d="M569.163,200.081l-.006.013c-.282.6.633,1.007.945.454a.247.247,0,0,0,.023-.042,20.692,20.692,0,0,1,2.083-3.407,40.847,40.847,0,0,1,2.754-3.288c1.175-1.284,2.392-2.512,3.511-3.7q.82-.867,1.668-1.7a64.49,64.49,0,0,1,7.539-6.375,57.509,57.509,0,0,1,10.519-6.4c1.437-.628,2.948-1.014,4.431-1.505a16.384,16.384,0,0,1,2.982-.806,3.482,3.482,0,0,1,.534-.263,6.854,6.854,0,0,1,2.089-.422c-.339-.119-.683-.232-1.033-.335a11.1,11.1,0,0,0-2.653.16,39.8,39.8,0,0,0-12.132,5.091,73.44,73.44,0,0,0-12.759,9.853c-.283.28-.572.56-.864.845-1.538,1.5-3.165,3.107-4.685,4.8q-.75.826-1.451,1.688a26.437,26.437,0,0,0-3.495,5.344" transform="translate(-393.16 -119.02)" fill="#69bc91"/>
        <path id="Trazado_635857" data-name="Trazado 635857" d="M561.432,232.869c1.53-.949,2.188,1.571,2.116,2.663a21.261,21.261,0,0,1-2.667,7.251q.6-.261,1.222-.489,1.151-.421,2.3-.849a9.823,9.823,0,0,1,1.2-7.218c.328-.558.813-1.271,1.531-1.284,1-.018.722,1,.531,1.637-.329,1.092-1.71,4.754-2.258,6.493,1.535-.566,3.071-1.134,4.608-1.692.082-2.447.2-5.418,1.961-7.331,1.155-1.252,1.894.374,1.819,1.436a10.458,10.458,0,0,1-2.406,5.4q1.087-.39,2.175-.77l.392-.137a9.967,9.967,0,0,1,.111-3.556,4.777,4.777,0,0,1,2.275-2.675,2.29,2.29,0,0,1,1.558-.533c.806.174.2.894-.123,1.349a33,33,0,0,0-1.881,3.03c-.311.571-.622,1.1-.974,1.619a4.631,4.631,0,0,0-.283.537c1.036-.349,2.084-.679,3.138-.986.617-1.976,1.381-4.36,3.242-5.522,1.223-.759,1.461.731,1.16,1.581a8.311,8.311,0,0,1-2.637,3.443c.46-.125.923-.246,1.385-.364,1.4-1.981,3.1-4.458,5.6-5.068,1.59-.389,1.312,1.341.683,2.168a8.028,8.028,0,0,1-2.392,2.018c.211-.043.423-.085.634-.125.507-.1,1.013-.174,1.518-.237.956-1.841,2.124-4.076,4.172-4.9,1.337-.536,1.31.975.866,1.76a8.4,8.4,0,0,1-3.29,2.978c.774-.049,1.548-.07,2.323-.078,1-1.366,2.224-3.01,3.973-3.414,1.15-.263.938.954.48,1.533a6.627,6.627,0,0,1-2.739,1.883c.85,0,1.7.012,2.55.007.636-.424,1.342-.819,1.96-1.15a2.79,2.79,0,0,1,2.424-.352c1.076.474,1.026,1.331.107,1.983a2.714,2.714,0,0,1-1.378.473,2.343,2.343,0,0,1,.929.868.8.8,0,0,1,.049.826,1.309,1.309,0,0,1-1.292.416,7.5,7.5,0,0,1-2.531-1.236,5.3,5.3,0,0,0-.786-.358c-.372-.141-.755-.266-1.11-.425q-.841,0-1.682-.006h0a7.27,7.27,0,0,1,3.589,2.029c.479.561.735,1.772-.423,1.549-1.858-.359-3.18-2.113-4.262-3.478l.014-.092q-.384.006-.773.015h-.04a30.8,30.8,0,0,0-3.953.34h0a5.7,5.7,0,0,1,1.271.6c.7.458,1.373,1.7.038,1.826-1.716.167-3.346-.756-4.76-1.715-1.7.4-3.4.851-5.081,1.353a8.743,8.743,0,0,1,4.741,1.135c.755.491,1.473,1.819.041,1.958-2.3.223-4.451-1.373-6.188-2.6l-.008-.059h0c-.784.247-1.564.508-2.337.777-.38.133-.76.267-1.137.4h0a12.352,12.352,0,0,1,6.514,1.32c1.024.611,1.972,2.3,0,2.525-3.157.356-6.062-1.622-8.413-3.145h0c-1.071.4-2.139.8-3.208,1.2,2.021.614,6.281,1.636,7.629,2.079.63.208,2.052.861,1.353,1.751-.388.493-1.687.579-2.278.522-1.319-.127-5.655-2.077-8.359-3.74h0c-.761.28-1.525.555-2.293.818-.284.1-.564.2-.842.307,3.071.646,8.977,2.308,10.215,3.246.63.477,1.537,1.417,1.052,2.261-.5.874-1.919.329-2.706.228-1.814-.232-6.869-2.982-7.73-3.625-.667-.5-1.253-1.159-1.882-1.684l-.034.016c-.614.263-1.214.545-1.8.84l.13.078c2.222,1.293,7.108,3.749,8.608,4.667.7.427,2.214,1.607,1.127,2.478-.6.479-2.183.218-2.874-.018-1.438-.485-5.576-3.612-8.373-6.261-.052-.048-.1-.1-.15-.145-1.887,1.024-3.721,2.14-5.678,3.185-.59.317-1.136-.575-.543-.892,2.827-1.509,5.4-3.267,8.294-4.57-.942-3.624.266-9.663.958-10.093" transform="translate(-381.292 -158.648)" fill="#d69c25"/>
        <path id="Trazado_635858" data-name="Trazado 635858" d="M518.786,268.5c.059.4,1.047.514,1.43.643,1.051.353,2.036.869,3.1,1.218a26.736,26.736,0,0,1,3.962,1.7c.124.064.248.135.369.211a3.989,3.989,0,0,1,1.142.979,1.8,1.8,0,0,1,.242,1.862c-.49,1.2-2.556,1.951-3.655,2.4a12.065,12.065,0,0,0-4.183,2.381,3.576,3.576,0,0,0-.93,3.173c.331,1.734,1.41,2.533,2.933,3.213,1.908.859,4.045.709,6.082.613a38.142,38.142,0,0,0,6.25-.923c1.681-.38,3.378-.926,5.041-1.459a27.048,27.048,0,0,1-2.714-2.428c-1-1.03-2.013-2.561.039-3.028a6.2,6.2,0,0,1,3.563.769,27.764,27.764,0,0,1,4.527,2.351,5.715,5.715,0,0,0,.485.312c.331-.134.66-.275.988-.423,1.371-.625,2.68-1.322,3.958-2.065a7.5,7.5,0,0,0-2.34-1.487c-.941-.32-2.689-.595-3.016-1.649-.465-1.5,1.122-1.544,2.159-1.481a11.905,11.905,0,0,1,3.847,1.4c.449.193.882.394,1.3.609a2.48,2.48,0,0,0,2.464-.073l.012-.007c1.623-1.017,3.753-2.312,5.771-2.191a4.092,4.092,0,0,1,.651.091,7.6,7.6,0,0,1,2.189.9c-.24-.322-.491-.641-.751-.952h0a32.24,32.24,0,0,0-8.094-6.673c-.013-.006-.022-.013-.034-.019a2.35,2.35,0,0,0-2.489.073c-.217.141-.441.283-.673.42-.964.575-2.508,1.77-3.686,1.477a.8.8,0,0,1-.626-1.035,4.565,4.565,0,0,1,.978-1.855,3.374,3.374,0,0,1,.862-.7c.311-.183.642-.342.959-.517-.183-.077-.362-.155-.542-.237h0c-1.264-.564-2.49-1.194-3.8-1.684-.223-.083-.447-.164-.673-.246-1.195-.436-2.406-.862-3.612-1.254-.143-.049-.288-.1-.43-.141-.17.151-.336.307-.5.47-.222.216-.437.442-.646.67-.321.348-.631.7-.942,1.058-.232.264-.462.522-.694.774-.082.088-.166.181-.246.273-.441.5-.871,1.058-1.327,1.592a6.511,6.511,0,0,1-3.54,2.5c-1.226.246-2.093.044-2.356-1.251a2.973,2.973,0,0,1-.059-.777,3.28,3.28,0,0,1,.5-1.512,6.27,6.27,0,0,1,.565-.788,16.285,16.285,0,0,1,3.865-3.04c.287-.191.58-.368.877-.533.211-.12.424-.232.637-.344-.231-.1-.462-.2-.7-.292q-.565-.234-1.143-.455c-.261-.1-.526-.22-.792-.348-.309-.149-.623-.309-.94-.467a6.849,6.849,0,0,0-2.6-.849,8.53,8.53,0,0,0-3.372.947,24.418,24.418,0,0,0-5.495,3.588,18.264,18.264,0,0,0-3.229,3.058c-.209.287-.976,1.07-.917,1.462" transform="translate(-358.396 -179.234)" fill="#449c6e"/>
        <path id="Trazado_635859" data-name="Trazado 635859" d="M495,303.528c4.126-2.463,9.508-3.361,14.136-4.409q1.294-.292,2.594-.539a71.743,71.743,0,0,1,10.9-1.208c1.238-.043,2.484-.076,3.732-.086s2.481,0,3.718.055a45.193,45.193,0,0,1,6.213.65c1.712.313,3.344.893,5.019,1.358a18.725,18.725,0,0,1,3.249,1.1,4.108,4.108,0,0,1,.651.091,7.607,7.607,0,0,1,2.189.9c-.24-.323-.491-.641-.751-.952h0A12.339,12.339,0,0,0,544.1,299a44.127,44.127,0,0,0-14.145-2.814l-.194-.008c-1.749-.065-3.5-.084-5.255-.051a76.961,76.961,0,0,0-12.608,1.228l-1.318.246c-5.406,1-11.572,2.172-16.225,4.948-.647.386-.008,1.366.637.979" transform="translate(-341.337 -204.566)" fill="#338b5d"/>
        <path id="Trazado_635860" data-name="Trazado 635860" d="M419.7,153.385l-31.356-12.141a4.491,4.491,0,0,1-2.442-6.278l34.627-70.7a5.528,5.528,0,0,1,6.833-2.687l31.356,12.141A4.491,4.491,0,0,1,461.164,80l-34.627,70.7a5.528,5.528,0,0,1-6.833,2.687" transform="translate(-266.258 -42.303)" fill="#60aecf"/>
      </g>
    </g>
    <g id="Grupo_955119" data-name="Grupo 955119" transform="translate(116.532 17.917)">
      <g id="Grupo_955118" data-name="Grupo 955118" clip-path="url(#clip-path-4)">
        <rect id="Rectángulo_340997" data-name="Rectángulo 340997" width="121.143" height="120.232" transform="translate(-47.127 50.452) rotate(-47.39)" fill="url(#linear-gradient)"/>
      </g>
    </g>
    <g id="Grupo_955127" data-name="Grupo 955127">
      <g id="Grupo_955126" data-name="Grupo 955126" clip-path="url(#clip-path)">
        <path id="Trazado_635862" data-name="Trazado 635862" d="M460.588,86.211l-8.911,18.195-10.607,21.66-6.179,12.613-1.819,3.712-4.254,8.687a.588.588,0,0,1-.724.284l-1.849-.718-.17-.064-10.52-4.073-.138-.053-23.956-9.277a.479.479,0,0,1-.26-.667l11.531-23.543,10.231-20.886,8.492-17.33,1.52-3.105a.589.589,0,0,1,.725-.287l17.474,6.765,19.16,7.419a.478.478,0,0,1,.257.667" transform="translate(-270.221 -49.274)" fill="#96bdff"/>
        <g id="Grupo_955122" data-name="Grupo 955122" transform="translate(151.232 22.05)" style="mix-blend-mode: screen;isolation: isolate">
          <g id="Grupo_955121" data-name="Grupo 955121">
            <g id="Grupo_955120" data-name="Grupo 955120" clip-path="url(#clip-path-6)">
              <path id="Trazado_635863" data-name="Trazado 635863" d="M519.4,104.406l-10.607,21.66L489.173,74.753l1.52-3.105a.589.589,0,0,1,.724-.287l17.474,6.765Z" transform="translate(-489.173 -71.325)" fill="#96bdff"/>
            </g>
          </g>
        </g>
        <g id="Grupo_955125" data-name="Grupo 955125" transform="translate(132.51 42.808)" style="mix-blend-mode: screen;isolation: isolate">
          <g id="Grupo_955124" data-name="Grupo 955124">
            <g id="Grupo_955123" data-name="Grupo 955123" clip-path="url(#clip-path-7)">
              <path id="Trazado_635864" data-name="Trazado 635864" d="M458.956,188.774l-4.254,8.687a.589.589,0,0,1-.725.284l-1.849-.718-.17-.064-10.52-4.073-12.824-33.539,10.231-20.886Z" transform="translate(-428.614 -138.465)" fill="#96bdff"/>
            </g>
          </g>
        </g>
        <path id="Trazado_635865" data-name="Trazado 635865" d="M549.481,80.674l-15.766-6.1a.358.358,0,0,1-.194-.5.44.44,0,0,1,.544-.214l15.766,6.1a.357.357,0,0,1,.194.5.44.44,0,0,1-.544.214" transform="translate(-368.551 -51.004)" fill="#f9faff"/>
        <path id="Trazado_635866" data-name="Trazado 635866" d="M440.506,313.773a3.8,3.8,0,0,1-4.7,1.831,3.085,3.085,0,0,1-1.694-4.306,3.8,3.8,0,0,1,4.7-1.831,3.085,3.085,0,0,1,1.694,4.306" transform="translate(-299.671 -213.625)" fill="#99ace3"/>
        <path id="Trazado_635867" data-name="Trazado 635867" d="M487.713,168.9a26.349,26.349,0,0,0-1.268-3.148c-.624-1.3-1.142-2.667-1.768-3.959a34.23,34.23,0,0,1-1.708-4.056,31.228,31.228,0,0,1-1.255-3.722c-.218-1.089-.6-2.112-.86-3.188a14.372,14.372,0,0,0-.582-1.973l-8.556,3.3a16.275,16.275,0,0,0-.488,6.212,30.548,30.548,0,0,1-.172,8.579,19.278,19.278,0,0,1-2.535,5.414,3.621,3.621,0,0,0,1.239.353c.527.13,1.05.289,1.571.447a35.431,35.431,0,0,0,4.069.811c2.324.42,4.647.882,6.967,1.337,1.327.261,2.688.437,4,.812a6.14,6.14,0,0,0,1.822.5c.036-1.133-.018-2.277.035-3.409a11.438,11.438,0,0,0-.508-4.306" transform="translate(-323.674 -102.831)" fill="#e26b6d"/>
        <path id="Trazado_635868" data-name="Trazado 635868" d="M481.5,163.268c0-.1-.15-.092-.155.006-.134,2.732.816,5.324.972,8.034a27,27,0,0,1-1.181,8.843c-.027.1.124.13.151.035a27.886,27.886,0,0,0,1.209-8.307c-.081-2.906-1.14-5.7-1-8.612" transform="translate(-332.386 -112.743)" fill="#341d3f"/>
        <path id="Trazado_635869" data-name="Trazado 635869" d="M488.2,166.673c-.015-.1-.17-.092-.155.007a61.922,61.922,0,0,1,.429,16.616c-.011.1.14.134.151.035a62.077,62.077,0,0,0-.425-16.657" transform="translate(-337.16 -115.096)" fill="#341d3f"/>
        <path id="Trazado_635870" data-name="Trazado 635870" d="M493,160.459c-.019-.1-.166-.049-.147.047,1.365,6.88,3.69,13.625,3.647,20.711,0,.1.154.093.154-.007.044-7.1-2.287-13.856-3.654-20.751" transform="translate(-340.482 -110.815)" fill="#341d3f"/>
        <path id="Trazado_635871" data-name="Trazado 635871" d="M504.129,178.334c-.922-3.165-1.307-6.456-2.195-9.631-.027-.1-.174-.049-.147.047.837,2.994,1.23,6.088,2.043,9.088.842,3.11,2.505,6.031,2.414,9.33,0,.1.152.093.155-.007.087-3.135-1.413-5.888-2.27-8.828" transform="translate(-346.653 -116.511)" fill="#341d3f"/>
        <path id="Trazado_635872" data-name="Trazado 635872" d="M515,193.906c-.041-.089-.189-.043-.147.047a33.973,33.973,0,0,1,2.935,10.476c.011.1.166.092.155-.006A34.129,34.129,0,0,0,515,193.906" transform="translate(-355.679 -133.925)" fill="#341d3f"/>
        <path id="Trazado_635873" data-name="Trazado 635873" d="M503.649,156.321c-.02-.1-.167-.049-.147.047a72.534,72.534,0,0,0,2,7.553.077.077,0,0,0,.147-.047,72.5,72.5,0,0,1-2-7.553" transform="translate(-347.838 -107.956)" fill="#341d3f"/>
        <path id="Trazado_635874" data-name="Trazado 635874" d="M458.692,189.211h0a2.684,2.684,0,0,1-.448,3.225l-9.017,8.944a2.11,2.11,0,0,1-3.3-.414l-5.527-9.226,2.707-.815,4.325,5.352,6.94-7.562a2.685,2.685,0,0,1,4.316.5" transform="translate(-304.25 -129.771)" fill="#60aecf"/>
        <path id="Trazado_635875" data-name="Trazado 635875" d="M443.38,188.038c0-.036.01-.071.014-.107,0-.062.011-.125.015-.187a.274.274,0,0,1-.026-.113,19.174,19.174,0,0,1,.47-4.616,3.6,3.6,0,0,1,.3-1.234.254.254,0,0,1,.222-.125,2.255,2.255,0,0,1,.526.1.252.252,0,0,1,.152.126.2.2,0,0,1,.1.155c.208,1.513,1.531,5.946-.131,7.207a.9.9,0,0,1-.8.3c-.766-.069-.91-.858-.849-1.51" transform="translate(-306.297 -125.496)" fill="#595cff"/>
        <path id="Trazado_635876" data-name="Trazado 635876" d="M446.218,187.314c-.009-.1.146-.1.155,0a25.054,25.054,0,0,1-.018,4.819c-.01.1-.165.1-.155,0a25.083,25.083,0,0,0,.017-4.819" transform="translate(-308.254 -129.353)" fill="#341d3f"/>
        <path id="Trazado_635877" data-name="Trazado 635877" d="M438.917,190.93l-.858.121-1.091-1.816a1.563,1.563,0,0,1,.754-2.155,3.555,3.555,0,0,1,2.967-.363l.79.242s.572.808-1.862.564c0,0,1.883-.062,1.928.692,0,0,.295.831-2.511.057,0,0,2.308.193,2.477,1.1,0,0,.019.8-2.685-.17.074,0,.065.324.091,1.731" transform="translate(-301.752 -128.876)" fill="#ebadab"/>
        <path id="Trazado_635878" data-name="Trazado 635878" d="M422.524,160.518c-.173-.015-10.66-5.338-10.66-5.338l-.1,12.871,10.638-3.632c1.636.135,1.874-3.743.117-3.9" transform="translate(-284.467 -107.205)" fill="#8d90ff"/>
        <path id="Trazado_635879" data-name="Trazado 635879" d="M406.087,161.285c-.027,3.588.689,6.5,1.6,6.508.719.005,1.349-1.821,1.588-4.369.065-.663.1-1.374.106-2.114a23.554,23.554,0,0,0-.126-2.685c-.242-2.246-.8-3.814-1.471-3.819-.909-.007-1.667,2.9-1.694,6.479" transform="translate(-280.541 -106.946)" fill="#595cff"/>
        <path id="Trazado_635880" data-name="Trazado 635880" d="M410.555,169.54a2.355,2.355,0,0,0,1.8,2.417c.065-.663.1-1.374.106-2.115a23.617,23.617,0,0,0-.127-2.685,2.369,2.369,0,0,0-1.784,2.382" transform="translate(-283.628 -115.48)" fill="#8d90ff"/>
        <path id="Trazado_635881" data-name="Trazado 635881" d="M445.671,176.238l1.072.008a2.058,2.058,0,0,0,.031-4.116l-1.073-.008a2.781,2.781,0,0,1-.03,4.116" transform="translate(-307.888 -118.909)" fill="#595cff"/>
        <path id="Trazado_635882" data-name="Trazado 635882" d="M419.033,160.163q3.873,1.891,7.72,3.835c.089.045.01.178-.079.133q-3.847-1.944-7.72-3.835c-.09-.044-.01-.177.079-.133" transform="translate(-289.403 -110.641)" fill="#341d3f"/>
        <path id="Trazado_635883" data-name="Trazado 635883" d="M413.343,169.193c1.456-3.437,1.157-7.4.322-10.945-.023-.1.127-.137.15-.04.843,3.58,1.148,7.556-.323,11.027-.038.091-.188.05-.149-.042" transform="translate(-285.55 -109.258)" fill="#341d3f"/>
        <path id="Trazado_635884" data-name="Trazado 635884" d="M409.843,157.852c.044-.089.178-.01.133.079a5.3,5.3,0,0,0-.562,2.249.078.078,0,0,1-.155,0,5.5,5.5,0,0,1,.584-2.327" transform="translate(-282.733 -109.024)" fill="#341d3f"/>
        <path id="Trazado_635885" data-name="Trazado 635885" d="M408.117,161.082a.078.078,0,0,1,.149.042,10.693,10.693,0,0,0-.364,2.893.077.077,0,0,1-.155,0,10.82,10.82,0,0,1,.37-2.935" transform="translate(-281.688 -111.244)" fill="#341d3f"/>
        <path id="Trazado_635886" data-name="Trazado 635886" d="M412.882,170.469c.074-.067.183.043.109.11a2.213,2.213,0,0,0-.2,2.339.078.078,0,0,1-.135.077,2.332,2.332,0,0,1,.228-2.527" transform="translate(-284.895 -117.752)" fill="#341d3f"/>
        <path id="Trazado_635887" data-name="Trazado 635887" d="M445.291,177.244a2.494,2.494,0,0,0,.528-3.558c-.059-.081.076-.157.134-.077a2.647,2.647,0,0,1-.585,3.77c-.08.059-.157-.076-.077-.135" transform="translate(-307.602 -119.913)" fill="#341d3f"/>
        <path id="Trazado_635888" data-name="Trazado 635888" d="M442.569,188.28a9.008,9.008,0,0,1,1.942.4.077.077,0,0,1-.042.149,8.833,8.833,0,0,0-1.9-.4c-.1-.006-.1-.162,0-.155" transform="translate(-305.693 -130.071)" fill="#341d3f"/>
        <path id="Trazado_635889" data-name="Trazado 635889" d="M442.89,191.112a14.655,14.655,0,0,1,1.857.529c.093.033.052.183-.042.149a14.639,14.639,0,0,0-1.856-.529c-.1-.021-.055-.17.042-.149" transform="translate(-305.899 -132.027)" fill="#341d3f"/>
        <path id="Trazado_635890" data-name="Trazado 635890" d="M439.133,192.661a10.428,10.428,0,0,0,1.276.674c.006,0,.006.008.01.012.047-.014.1,0,.1.066q-.031.274-.061.548,0,.229-.008.457c0,.085-.135.108-.152.019l-.026-.129,0,0a6.935,6.935,0,0,1-.273-.9.074.074,0,0,1,.041-.085,10.529,10.529,0,0,1-.98-.531c-.084-.053-.006-.186.08-.133" transform="translate(-303.291 -133.09)" fill="#341d3f"/>
        <path id="Trazado_635891" data-name="Trazado 635891" d="M489.121,275.879l-6.073,12.4a.588.588,0,0,1-.725.284l-1.849-.718-.17-.064-10.659-4.125a63.48,63.48,0,0,1,3.986-12.822l13.116-.909a49.651,49.651,0,0,1,2.374,5.957" transform="translate(-324.45 -186.473)" fill="#4e3058"/>
        <path id="Trazado_635892" data-name="Trazado 635892" d="M476.308,212.6s1.364-6.064.53-7.8l-2.523-5.273a8.29,8.29,0,0,1-.492-5.757,7.905,7.905,0,0,1,.78-1.861l2.279-3.914a4.716,4.716,0,0,1,2.619-2.164,4.1,4.1,0,0,1,1.276-.2l1.021.007a4.112,4.112,0,0,1,1.624.351,4.265,4.265,0,0,1,.714.388,8.233,8.233,0,0,1,2.3,2.386,8,8,0,0,1,.9,3.4,17.273,17.273,0,0,1-.3,4.96,19.673,19.673,0,0,0-.147,6.4,24.669,24.669,0,0,0,1.113,4.988,17.4,17.4,0,0,0,1.035,2.4c.142.27.485.611.323.911-.15.278-.877.386-1.158.453s-.448.124-.733.174a49.266,49.266,0,0,1-8.541.746c-.379,0-.756-.031-1.134-.061a2.535,2.535,0,0,1-1.344-.307c-.07-.065-.147-.115-.146-.223" transform="translate(-327.129 -128.241)" fill="#60aecf"/>
        <path id="Trazado_635893" data-name="Trazado 635893" d="M490.524,196.843a9.186,9.186,0,0,1-1.4,1.345c-.423.3-1.537.975-2.035.53-.074-.066-.185.042-.11.109.4.359,1.135.075,1.559-.118a6.834,6.834,0,0,0,2.1-1.755c.067-.073-.041-.184-.109-.11" transform="translate(-336.405 -135.97)" fill="#341d3f"/>
        <path id="Trazado_635894" data-name="Trazado 635894" d="M486.671,192.095a6.792,6.792,0,0,0-.836,2.838.077.077,0,0,0,.155,0,6.594,6.594,0,0,1,.815-2.76c.042-.089-.091-.169-.133-.079" transform="translate(-335.635 -132.679)" fill="#341d3f"/>
        <path id="Trazado_635895" data-name="Trazado 635895" d="M503.419,188.406a.077.077,0,0,0-.149.04,1.545,1.545,0,0,1-.566,1.4c-.066.074.042.184.109.11a1.7,1.7,0,0,0,.607-1.548" transform="translate(-347.274 -130.12)" fill="#341d3f"/>
        <path id="Trazado_635896" data-name="Trazado 635896" d="M484.087,226.056a3.3,3.3,0,0,1-2.067-.416c-.456-.253-1.411-.81-1.413-1.413a.112.112,0,0,0-.223,0c0,.69.892,1.236,1.424,1.548a3.587,3.587,0,0,0,2.336.5c.142-.019.083-.234-.057-.215" transform="translate(-331.869 -154.831)" fill="#341d3f"/>
        <path id="Trazado_635897" data-name="Trazado 635897" d="M437.918,254.191l-3.5-1.906-2.366,1.913c-.476.355-.951.729-1.415,1.128l-.452-.1a4.864,4.864,0,0,0-2.1-.027l-1.631.321c-.284.09-.331.453.028.5l1.294-.1-.922.445a12.68,12.68,0,0,0-1.486.864l-.742.511a.269.269,0,0,0,.279.446L427,257.1l-1.238.767-1.279.889c-.266.237.028.573.246.441l1.132-.7,1.451-.752-.929.823a3.119,3.119,0,0,0-.533.612l-.506.777c-.09.433.137.444.431.348l.476-.662a2.541,2.541,0,0,1,.648-.637l1-.692-1.249,1.939a.264.264,0,0,0,.478.223,11.371,11.371,0,0,1,1.409-1.8,5.063,5.063,0,0,0,2.684-1.064l1.064-.83Z" transform="translate(-293.18 -174.289)" fill="#ebadab"/>
        <path id="Trazado_635898" data-name="Trazado 635898" d="M462.236,195.091l-3.949,7.959-11.372,10.067.44,2.674,9.017-4.88a23.437,23.437,0,0,0,8.289-7.577l2.945-4.392a6.116,6.116,0,0,0,.83-5.187c-.686-2.185-2.1-2.641-4.5-.769a6.123,6.123,0,0,0-1.7,2.1" transform="translate(-308.748 -132.513)" fill="#60aecf"/>
        <path id="Trazado_635899" data-name="Trazado 635899" d="M380.087,245.2l-20.133-.149a.937.937,0,0,1-.911-.751l-2.424-11.975a.936.936,0,0,1,.925-1.122l20.133.149a.936.936,0,0,1,.911.751l2.424,11.975a.937.937,0,0,1-.925,1.122" transform="translate(-246.354 -159.728)" fill="#d2e0e6"/>
        <path id="Trazado_635900" data-name="Trazado 635900" d="M388.991,251.131a1.808,1.808,0,1,0,1.813-1.638,1.731,1.731,0,0,0-1.813,1.638" transform="translate(-268.731 -172.36)" fill="#b2dee8"/>
        <rect id="Rectángulo_341000" data-name="Rectángulo 341000" width="1.203" height="19.041" transform="translate(114.936 86.54) rotate(-89.576)" fill="#b2dee8"/>
        <rect id="Rectángulo_341001" data-name="Rectángulo 341001" width="1.203" height="9.921" transform="matrix(0.007, -1, 1, 0.007, 133.976, 86.681)" fill="#d2e0e6"/>
        <path id="Trazado_635901" data-name="Trazado 635901" d="M399.7,233.84q-5.072-.1-10.144.025a.077.077,0,0,0,.006.155q5.072-.122,10.144-.026c.1,0,.093-.152-.006-.154" transform="translate(-269.073 -161.517)" fill="#341d3f"/>
        <path id="Trazado_635902" data-name="Trazado 635902" d="M425.037,234.634c-.018-.1-.165-.049-.147.047q1.106,6.116,2.138,12.245c.016.1.171.092.154-.006q-1.036-6.15-2.145-12.287" transform="translate(-293.53 -162.058)" fill="#341d3f"/>
        <path id="Trazado_635903" data-name="Trazado 635903" d="M394.087,249.127c-.1.023-.049.17.047.147,2.261-.534,2.453,3.449.1,3.185-.1-.011-.134.139-.035.151a1.723,1.723,0,0,0,1.927-1.786,1.654,1.654,0,0,0-2.035-1.7" transform="translate(-272.215 -172.073)" fill="#341d3f"/>
        <path id="Trazado_635904" data-name="Trazado 635904" d="M444.014,279.05l-8.722-.069c-.1,0-.093.154.007.154l8.722.069c.1,0,.093-.154-.007-.155" transform="translate(-300.669 -192.732)" fill="#341d3f"/>
        <path id="Trazado_635905" data-name="Trazado 635905" d="M492.514,174.789c.091.475-2.049,2.313-3.169,3.283a1.851,1.851,0,0,1-.925.452c-1.964.3.185-2.573-.011-3.611l-.108-.611-.188-1.039-.566-1.985,3.2-2.259.557-.761.069.356.262,1.437.5,2.713Z" transform="translate(-336.818 -116.239)" fill="#ebadab"/>
        <path id="Trazado_635906" data-name="Trazado 635906" d="M491.636,170.05A5.285,5.285,0,0,1,488.3,174.3l-.188-1.039-.567-1.985,3.2-2.259.557-.761.069.356Z" transform="translate(-336.818 -116.239)" fill="#e79092"/>
        <path id="Trazado_635907" data-name="Trazado 635907" d="M484.417,149.581c.2-.89-.049-2.059-.8-2.115a1.307,1.307,0,0,0-.733.216c-.576-2.519-2.5-5.313-4.392-5.452-2.473-.183-4.608,1.031-4.958,7.295a5.256,5.256,0,0,0,4.019,5.461c1.825.293,3.944-1.648,4.937-3.681a2.353,2.353,0,0,0,1.931-1.724" transform="translate(-327.128 -98.247)" fill="#ebadab"/>
        <path id="Trazado_635908" data-name="Trazado 635908" d="M482.319,170.878a2.332,2.332,0,0,1-.253-.008.151.151,0,1,1,.037-.3,2.154,2.154,0,0,0,2.355-1.564.154.154,0,0,1,.186-.111.149.149,0,0,1,.112.181,2.4,2.4,0,0,1-2.438,1.8" transform="translate(-332.938 -116.677)" fill="#341d3f"/>
        <path id="Trazado_635909" data-name="Trazado 635909" d="M487.7,162.382a.452.452,0,1,1-.481-.454.471.471,0,0,1,.481.454" transform="translate(-336.303 -111.866)" fill="#341d3f"/>
        <path id="Trazado_635910" data-name="Trazado 635910" d="M477.994,162.8a.452.452,0,1,1-.481-.454.471.471,0,0,1,.481.454" transform="translate(-329.595 -112.152)" fill="#341d3f"/>
        <path id="Trazado_635911" data-name="Trazado 635911" d="M488.365,158.529a.154.154,0,0,1-.149-.071.976.976,0,0,0-1.312-.405.156.156,0,0,1-.208-.061.15.15,0,0,1,.065-.2,1.279,1.279,0,0,1,1.72.514.149.149,0,0,1-.053.207.153.153,0,0,1-.062.021" transform="translate(-336.217 -108.905)" fill="#341d3f"/>
        <path id="Trazado_635912" data-name="Trazado 635912" d="M477.055,158.744a.132.132,0,0,1-.135.035.82.82,0,0,0-1.066.449.132.132,0,0,1-.167.073.125.125,0,0,1-.073-.164,1.077,1.077,0,0,1,1.387-.6.125.125,0,0,1,.054.206" transform="translate(-328.567 -109.479)" fill="#341d3f"/>
        <path id="Trazado_635913" data-name="Trazado 635913" d="M481.182,168.009a.138.138,0,1,0-.039-.274s-.271.032-.36-.1c-.041-.061-.1-.258.219-.788a.136.136,0,0,0-.05-.189.145.145,0,0,0-.194.05c-.3.5-.369.851-.211,1.083a.7.7,0,0,0,.634.217Z" transform="translate(-331.925 -115.122)" fill="#341d3f"/>
        <path id="Trazado_635914" data-name="Trazado 635914" d="M496.653,309.069l-.17-.064c-.635-2.916-2.241-5.5-3.41-8.24-.041-.091.1-.168.133-.077,1.19,2.785,2.819,5.409,3.447,8.381" transform="translate(-340.63 -207.7)" fill="#341d3f"/>
        <path id="Trazado_635915" data-name="Trazado 635915" d="M497.609,270.485a42.321,42.321,0,0,1-8.472.45c-.1,0-.1.15,0,.155a42.562,42.562,0,0,0,8.513-.455c.1-.015.058-.164-.04-.149" transform="translate(-337.864 -186.861)" fill="#341d3f"/>
        <path id="Trazado_635916" data-name="Trazado 635916" d="M505.122,267.175a21.115,21.115,0,0,1-5.716.758.077.077,0,0,0,0,.155,21.205,21.205,0,0,0,5.757-.763.077.077,0,0,0-.04-.149" transform="translate(-344.958 -184.573)" fill="#341d3f"/>
        <path id="Trazado_635917" data-name="Trazado 635917" d="M449.653,260.717c-.005-.1-.16-.1-.155,0a9.041,9.041,0,0,0,.269,1.766.077.077,0,0,0,.149-.04,8.808,8.808,0,0,1-.264-1.724" transform="translate(-310.532 -180.062)" fill="#341d3f"/>
        <path id="Trazado_635918" data-name="Trazado 635918" d="M451.437,259.409l-.012,1.635a.077.077,0,0,0,.155,0l.012-1.635a.077.077,0,0,0-.155,0" transform="translate(-311.863 -179.159)" fill="#341d3f"/>
        <path id="Trazado_635919" data-name="Trazado 635919" d="M474.934,210.061a6.1,6.1,0,0,0-.985,5.361c.027.1.174.049.147-.047a5.932,5.932,0,0,1,.952-5.209c.058-.079-.055-.185-.114-.1" transform="translate(-327.259 -145.099)" fill="#341d3f"/>
        <path id="Trazado_635920" data-name="Trazado 635920" d="M492.155,217.164c-.906,3.753-3.654,6.693-5.994,9.639-.062.078.061.171.123.093,2.363-2.973,5.109-5.922,6.024-9.711.023-.1-.13-.116-.153-.02" transform="translate(-335.848 -149.982)" fill="#341d3f"/>
        <path id="Trazado_635921" data-name="Trazado 635921" d="M486.01,201.626q-2.655,4.794-5.565,9.44c-.046.073.075.132.121.059q2.909-4.646,5.564-9.44c.042-.076-.079-.134-.121-.059" transform="translate(-331.904 -139.268)" fill="#341d3f"/>
        <path id="Trazado_635922" data-name="Trazado 635922" d="M481.925,142.222l-.017-.036c-.935-1.928-3.643-2.884-5.656-2.615-3.717.5-5.441,4.35-5.349,7.732.019.706.154,1.427.149,2.124a5.353,5.353,0,0,1,1.511-3.651,4.769,4.769,0,0,1,2.12-1.242c.711-.206,4-.555,4-.555s-.183.682-.3.944l-.006.014a2.94,2.94,0,0,0,.367,2.372c.15.338.672,1.6.055,1.756a4.991,4.991,0,0,0,3.126-6.842" transform="translate(-325.316 -96.39)" fill="#e26b6d"/>
        <path id="Trazado_635923" data-name="Trazado 635923" d="M479.373,147.292c-2.779.831-6.187,1.758-7.608,4.553a.077.077,0,0,0,.136.072c1.4-2.756,4.78-3.659,7.519-4.478a.077.077,0,0,0-.047-.147" transform="translate(-325.908 -101.753)" fill="#341d3f"/>
        <path id="Trazado_635924" data-name="Trazado 635924" d="M498.928,151.272a6.019,6.019,0,0,0,.007,4.592c.033.094.18.047.147-.047a5.9,5.9,0,0,1-.018-4.473c.036-.092-.1-.165-.137-.072" transform="translate(-344.368 -104.475)" fill="#341d3f"/>
        <path id="Trazado_635925" data-name="Trazado 635925" d="M501.323,152.75a9.819,9.819,0,0,1-.281,2.726.077.077,0,0,0,.151.035,9.965,9.965,0,0,0,.284-2.767.077.077,0,0,0-.155.006" transform="translate(-346.139 -105.472)" fill="#341d3f"/>
        <path id="Trazado_635926" data-name="Trazado 635926" d="M503.046,147.5c-.026-.1-.173-.049-.147.047.4,1.512.769,3.075-.019,4.53a.078.078,0,0,0,.137.072c.806-1.489.445-3.1.03-4.65" transform="translate(-347.403 -101.862)" fill="#341d3f"/>
        <path id="Trazado_635927" data-name="Trazado 635927" d="M488.585,150.213a16.245,16.245,0,0,0-2.553.8c-.092.037-.045.185.047.147a16.249,16.249,0,0,1,2.553-.8c.1-.022.049-.169-.047-.147" transform="translate(-335.737 -103.772)" fill="#341d3f"/>
        <path id="Trazado_635928" data-name="Trazado 635928" d="M479.67,141.426a5.939,5.939,0,0,0-3.937,1.2c-1.228.944-1.724,2.294-2.5,3.581-.051.085.086.157.137.072a11.827,11.827,0,0,1,2.3-3.4,5.776,5.776,0,0,1,4-1.3c.1,0,.092-.15-.006-.155" transform="translate(-326.922 -97.699)" fill="#341d3f"/>
        <path id="Trazado_635929" data-name="Trazado 635929" d="M486.911,144.743c-1.737-1.248-4.885-.25-6.045,1.39-.058.081.08.153.137.072,1.064-1.505,4.172-2.521,5.8-1.349.08.057.185-.056.1-.114" transform="translate(-332.193 -99.607)" fill="#341d3f"/>
      </g>
    </g>
    <g id="Grupo_955129" data-name="Grupo 955129" transform="translate(151.394 77.152)">
      <g id="Grupo_955128" data-name="Grupo 955128" clip-path="url(#clip-path-8)">
        <rect id="Rectángulo_341003" data-name="Rectángulo 341003" width="0.156" height="0.13" transform="matrix(0.999, -0.042, 0.042, 0.999, -0.005, 0)" fill="url(#linear-gradient-2)"/>
      </g>
    </g>
    <g id="Grupo_955134" data-name="Grupo 955134">
      <g id="Grupo_955133" data-name="Grupo 955133" clip-path="url(#clip-path)">
        <g id="Grupo_955132" data-name="Grupo 955132" transform="translate(47.538 104.762)" style="mix-blend-mode: multiply;isolation: isolate">
          <g id="Grupo_955131" data-name="Grupo 955131">
            <g id="Grupo_955130" data-name="Grupo 955130" clip-path="url(#clip-path-3)">
              <path id="Trazado_635931" data-name="Trazado 635931" d="M203.542,341.955c0,1.708-11.142,3.092-24.887,3.092s-24.887-1.384-24.887-3.092,11.142-3.092,24.887-3.092,24.887,1.384,24.887,3.092" transform="translate(-153.767 -338.863)" fill="#e6e6e6"/>
            </g>
          </g>
        </g>
        <path id="Trazado_635932" data-name="Trazado 635932" d="M56.1,181.711a16.505,16.505,0,0,1,.477,3.976c-.021.318.063,1.3-.206,1.537s-1.021-.243-1.36-.375c-.932-.36-1.908-.569-2.845-.937a24.163,24.163,0,0,0-3.721-1.1c-.121-.025-.248-.049-.375-.066a3.65,3.65,0,0,0-1.356.023,1.611,1.611,0,0,0-1.239,1.15c-.35,1.111.646,2.822,1.149,3.768.042.077.081.155.124.234a10.11,10.11,0,0,1,1.4,3.821,3.13,3.13,0,0,1-.463,1.9,3.207,3.207,0,0,1-.718.833,3.7,3.7,0,0,1-.829.527,3.431,3.431,0,0,1-1.944.251,7.853,7.853,0,0,1-1.107-.237,5.39,5.39,0,0,1-.536-.178,8.018,8.018,0,0,1-2.022-1.162c-.22-.162-.431-.333-.639-.511-.47-.393-.92-.814-1.368-1.221-.336-.308-.67-.633-1-.973-.472-.481-.929-.989-1.372-1.507-.5-.581-.98-1.175-1.43-1.755-.745-.971-1.44-2.018-2.114-3.067-.181-.279-.361-.562-.54-.842a24.335,24.335,0,0,0,3.278-.124c1.286-.137,2.868-.616,1.713-2.119a5.6,5.6,0,0,0-2.911-1.517,25.04,25.04,0,0,0-4.488-.975c-.173-.013-.346-.032-.515-.061-.151-.284-.3-.572-.44-.862-.59-1.221-1.1-2.458-1.557-3.708a6.828,6.828,0,0,1,2.478.315c.838.32,2.205,1.136,3.037.594,1.186-.773.111-1.714-.643-2.267a10.741,10.741,0,0,0-3.469-1.246c-.423-.126-.837-.234-1.253-.324a2.244,2.244,0,0,1-1.666-1.468l0-.014c-.539-1.638-1.272-3.755-2.74-4.831a3.475,3.475,0,0,0-.5-.316,6.857,6.857,0,0,0-2.036-.631c.349-.085.7-.162,1.061-.229a29.119,29.119,0,0,1,9.456.03l.034.006a2.129,2.129,0,0,1,1.683,1.483c.07.224.141.45.224.678.336.953.72,2.669,1.7,3.144,1.156.551,1.43-1.407,1.417-2.2a5.316,5.316,0,0,0-.563-1.89c1.369.41,2.756.693,4.119,1.168,1.406.5,2.83,1.022,4.213,1.578.184,1.2.149,2.459.215,3.654.1,1.972-.309,4.3,1.032,5.961.709.877,1.427,1.236,2.354.492a3.194,3.194,0,0,0,1.069-2.714,14.685,14.685,0,0,0-.927-4.329,14.827,14.827,0,0,0-.545-1.479c.57.166,1.138.35,1.705.54,1.26.428,2.882.53,3.958,1.34a7.635,7.635,0,0,1,1.791,2.6,21.938,21.938,0,0,1,1.747,5.646" transform="translate(-14.061 -114.43)" fill="#d69c25"/>
        <path id="Trazado_635933" data-name="Trazado 635933" d="M56.46,198.322l0,.013c.22.624-.731.938-.986.357a.26.26,0,0,1-.019-.044,20.694,20.694,0,0,0-1.729-3.6,40.7,40.7,0,0,0-2.409-3.549c-1.04-1.4-2.126-2.741-3.119-4.038q-.729-.946-1.488-1.862a64.489,64.489,0,0,0-6.858-7.1,57.511,57.511,0,0,0-9.821-7.427c-1.366-.77-2.83-1.306-4.257-1.945a16.4,16.4,0,0,0-2.886-1.1,3.475,3.475,0,0,0-.5-.316,6.858,6.858,0,0,0-2.036-.631c.349-.084.7-.162,1.061-.229a11.11,11.11,0,0,1,2.624.426,39.811,39.811,0,0,1,11.557,6.288A73.475,73.475,0,0,1,47.3,184.65c.253.307.513.615.774.928,1.379,1.652,2.836,3.41,4.177,5.25q.663.9,1.274,1.825a26.442,26.442,0,0,1,2.938,5.67" transform="translate(-14.061 -115.265)" fill="#d69c25"/>
        <path id="Trazado_635934" data-name="Trazado 635934" d="M38.973,231.313c-1.427-1.1-2.335,1.343-2.374,2.436a21.253,21.253,0,0,0,1.922,7.483q-.571-.32-1.167-.61-1.1-.535-2.2-1.076a9.828,9.828,0,0,0-.471-7.3c-.27-.588-.681-1.346-1.394-1.432-.991-.118-.82.921-.693,1.575.217,1.119,1.222,4.9,1.592,6.687-1.471-.717-2.941-1.438-4.414-2.148.165-2.443.348-5.41-1.212-7.492-1.022-1.362-1.923.181-1.954,1.246a10.461,10.461,0,0,0,1.849,5.614q-1.042-.5-2.087-.986l-.376-.176a9.969,9.969,0,0,0,.248-3.549,4.778,4.778,0,0,0-1.994-2.891c-.432-.313-.911-.753-1.5-.687-.819.092-.286.87-.014,1.354a33.089,33.089,0,0,1,1.566,3.2c.252.6.509,1.153.806,1.709a4.721,4.721,0,0,1,.227.563q-1.494-.678-3.023-1.3c-.416-2.028-.935-4.477-2.669-5.82-1.14-.878-1.527.58-1.314,1.456a8.311,8.311,0,0,0,2.277,3.691c-.445-.17-.894-.338-1.341-.5-1.192-2.112-2.635-4.748-5.062-5.608-1.543-.547-1.44,1.2-.9,2.088a8.043,8.043,0,0,0,2.176,2.249q-.308-.1-.618-.188c-.494-.149-.99-.276-1.486-.389-.765-1.928-1.7-4.27-3.658-5.292-1.277-.668-1.4.838-1.039,1.664a8.4,8.4,0,0,0,2.973,3.3c-.765-.127-1.533-.226-2.3-.312-.859-1.46-1.909-3.219-3.609-3.8-1.117-.378-1.029.854-.632,1.477A6.624,6.624,0,0,0,7.645,229.7c-.846-.082-1.691-.159-2.539-.249-.591-.487-1.252-.95-1.833-1.342A2.789,2.789,0,0,0,.9,227.512c-1.119.363-1.154,1.221-.306,1.962a2.718,2.718,0,0,0,1.323.609,2.345,2.345,0,0,0-1.012.77.8.8,0,0,0-.133.816,1.308,1.308,0,0,0,1.243.544,7.487,7.487,0,0,0,2.643-.974,5.311,5.311,0,0,1,.818-.276c.385-.1.778-.188,1.148-.311.558.054,1.116.107,1.673.164h0a7.267,7.267,0,0,0-3.776,1.657c-.534.51-.91,1.689.265,1.583,1.885-.169,3.377-1.782,4.591-3.031l0-.092q.382.044.768.093l.04,0a30.847,30.847,0,0,1,3.9.737h0a5.688,5.688,0,0,0-1.325.474c-.746.385-1.537,1.549-.222,1.813,1.691.339,3.405-.414,4.909-1.226,1.655.569,3.3,1.189,4.918,1.859a8.743,8.743,0,0,0-4.831.651c-.8.413-1.649,1.661-.238,1.944,2.263.453,4.566-.917,6.418-1.959l.015-.058h0q1.133.487,2.247,1.008c.365.171.73.342,1.091.516h0a12.348,12.348,0,0,0-6.614.657c-1.08.5-2.194,2.092-.251,2.512,3.1.672,6.195-1,8.686-2.281h0c1.025.5,2.047,1.013,3.07,1.52-2.073.407-6.414.994-7.8,1.3-.648.143-2.129.65-1.523,1.606.337.529,1.621.746,2.215.749,1.324.007,5.835-1.5,8.693-2.879h0c.729.356,1.461.706,2.2,1.045.272.125.541.256.807.39-3.12.334-9.164,1.392-10.49,2.2-.675.411-1.673,1.254-1.274,2.143.412.921,1.876.52,2.67.5,1.828-.049,7.134-2.274,8.056-2.827.714-.428,1.363-1.027,2.042-1.486l.032.019c.584.324,1.153.664,1.71,1.017l-.137.064c-2.341,1.062-7.45,3.013-9.035,3.775-.735.355-2.365,1.376-1.371,2.352.55.538,2.149.437,2.861.272,1.48-.338,5.912-3.032,8.962-5.385.057-.043.11-.086.164-.129,1.774,1.209,3.486,2.5,5.328,3.741.556.375,1.188-.457.63-.832-2.66-1.786-5.043-3.795-7.791-5.383,1.3-3.51.709-9.641.064-10.138" transform="translate(0 -155.478)" fill="#449c6e"/>
        <path id="Trazado_635935" data-name="Trazado 635935" d="M81.476,277.083c-.1.39-1.093.406-1.488.5-1.082.246-2.113.66-3.2.9a26.74,26.74,0,0,0-4.113,1.289c-.13.052-.26.109-.389.173a3.988,3.988,0,0,0-1.235.859,1.8,1.8,0,0,0-.428,1.829c.367,1.24,2.347,2.2,3.394,2.76a12.057,12.057,0,0,1,3.922,2.79,3.575,3.575,0,0,1,.606,3.25c-.5,1.692-1.658,2.378-3.242,2.9-1.985.662-4.1.3-6.113,0a38.084,38.084,0,0,1-6.125-1.549c-1.634-.548-3.267-1.261-4.868-1.959a27.045,27.045,0,0,0,2.945-2.142c1.1-.923,2.261-2.345.267-3.017a6.2,6.2,0,0,0-3.623.406,27.739,27.739,0,0,0-4.74,1.882c-.168.095-.34.185-.514.261-.316-.167-.629-.34-.941-.52-1.3-.76-2.533-1.585-3.729-2.453a7.5,7.5,0,0,1,2.478-1.244c.968-.223,2.736-.32,3.167-1.336.613-1.447-.961-1.649-2-1.691a11.908,11.908,0,0,0-3.969,1c-.466.147-.917.3-1.356.475a2.48,2.48,0,0,1-2.444-.321l-.012-.008c-1.512-1.176-3.5-2.679-5.521-2.761a4.064,4.064,0,0,0-.657.025,7.605,7.605,0,0,0-2.269.679c.271-.3.553-.588.843-.871h0a32.233,32.233,0,0,1,8.725-5.824c.013,0,.023-.011.036-.016a2.351,2.351,0,0,1,2.469.324c.2.163.411.326.627.486.9.67,2.317,2.014,3.519,1.841a.8.8,0,0,0,.727-.966,4.567,4.567,0,0,0-.786-1.944,3.385,3.385,0,0,0-.787-.781c-.291-.214-.6-.4-.9-.611.19-.058.376-.117.563-.181h0c1.314-.434,2.6-.937,3.955-1.292.23-.06.461-.118.695-.177,1.233-.314,2.481-.615,3.72-.884.147-.034.3-.066.442-.1.154.168.3.34.446.517.2.237.39.484.575.732.284.379.557.765.831,1.147.2.286.407.567.613.84.072.1.146.2.217.3.388.547.76,1.14,1.159,1.718a6.513,6.513,0,0,0,3.271,2.84c1.195.368,2.078.255,2.47-1.008a2.968,2.968,0,0,0,.138-.767,3.276,3.276,0,0,0-.347-1.555,6.261,6.261,0,0,0-.483-.841,16.28,16.28,0,0,0-3.538-3.414c-.267-.219-.54-.424-.819-.619-.2-.14-.4-.274-.6-.407.24-.075.48-.149.724-.22.39-.117.786-.23,1.183-.337.27-.075.545-.166.823-.267.323-.117.65-.244.982-.37a6.844,6.844,0,0,1,2.673-.582,8.53,8.53,0,0,1,3.259,1.281,24.426,24.426,0,0,1,5.105,4.124,18.259,18.259,0,0,1,2.9,3.368c.179.307.863,1.163.765,1.547" transform="translate(-24.37 -184.287)" fill="#6fcc9c"/>
        <path id="Trazado_635936" data-name="Trazado 635936" d="M87.2,309.147c-3.857-2.866-9.12-4.3-13.62-5.812q-1.258-.421-2.527-.8a71.716,71.716,0,0,0-10.719-2.3c-1.227-.168-2.464-.326-3.7-.462s-2.468-.247-3.7-.32a45.134,45.134,0,0,0-6.246.021c-1.735.139-3.417.552-5.13.846a18.718,18.718,0,0,0-3.344.769,4.06,4.06,0,0,0-.657.025,7.6,7.6,0,0,0-2.269.679c.271-.3.553-.589.843-.872h0a12.337,12.337,0,0,1,2.672-1.23,44.13,44.13,0,0,1,14.357-1.374l.193.012c1.746.112,3.494.27,5.233.479A77,77,0,0,1,71,301.3l1.287.377c5.278,1.537,11.294,3.328,15.644,6.559.605.449-.13,1.359-.732.909" transform="translate(-24.37 -206.027)" fill="#69bc91"/>
        <path id="Trazado_635937" data-name="Trazado 635937" d="M153.293,139.279l-32.318,9.284a5.371,5.371,0,0,1-6.454-3.32l-26.4-74.019a4.614,4.614,0,0,1,3.106-6.067l32.317-9.284A5.371,5.371,0,0,1,130,59.194l26.4,74.019a4.614,4.614,0,0,1-3.106,6.067" transform="translate(-60.681 -38.463)" fill="#60aecf"/>
      </g>
    </g>
    <g id="Grupo_955136" data-name="Grupo 955136" transform="translate(29.677 16.488)">
      <g id="Grupo_955135" data-name="Grupo 955135" clip-path="url(#clip-path-11)">
        <rect id="Rectángulo_341006" data-name="Rectángulo 341006" width="102.566" height="114.26" transform="matrix(0.911, -0.413, 0.413, 0.911, -35.89, 16.005)" fill="url(#linear-gradient-3)"/>
      </g>
    </g>
    <g id="Grupo_955144" data-name="Grupo 955144">
      <g id="Grupo_955143" data-name="Grupo 955143" clip-path="url(#clip-path)">
        <path id="Trazado_635939" data-name="Trazado 635939" d="M165.546,136.716l-14.239,4.091-23.516,6.755a.566.566,0,0,1-.686-.352l-3.014-8.448-5.344-14.979v0l-8.571-24.035v0L102.883,79.3a.493.493,0,0,1,.329-.645l37.031-10.636h0l.724-.21a.57.57,0,0,1,.683.352l6.984,19.58,6.507,18.254,7.53,21.1,3.2,8.976a.486.486,0,0,1-.329.642" transform="translate(-71.055 -46.83)" fill="#96bdff"/>
        <g id="Grupo_955139" data-name="Grupo 955139" transform="translate(39.12 20.957)" style="mix-blend-mode: screen;isolation: isolate">
          <g id="Grupo_955138" data-name="Grupo 955138">
            <g id="Grupo_955137" data-name="Grupo 955137" clip-path="url(#clip-path-13)">
              <path id="Trazado_635940" data-name="Trazado 635940" d="M165,87.74l-29.891,36.039-8.571-24.035v0L156.6,68.017h0l.725-.21a.57.57,0,0,1,.683.352Z" transform="translate(-126.537 -67.787)" fill="#96bdff"/>
            </g>
          </g>
        </g>
        <g id="Grupo_955142" data-name="Grupo 955142" transform="translate(53.036 59.164)" style="mix-blend-mode: screen;isolation: isolate">
          <g id="Grupo_955141" data-name="Grupo 955141">
            <g id="Grupo_955140" data-name="Grupo 955140" clip-path="url(#clip-path-14)">
              <path id="Trazado_635941" data-name="Trazado 635941" d="M210.133,212.474l-11.369,13.709-23.516,6.755a.566.566,0,0,1-.686-.352l-3.014-8.448L202.6,191.37Z" transform="translate(-171.548 -191.37)" fill="#96bdff"/>
            </g>
          </g>
        </g>
        <path id="Trazado_635942" data-name="Trazado 635942" d="M150.759,67.468l-16.249,4.668a.427.427,0,0,1-.514-.264.367.367,0,0,1,.247-.483l16.248-4.668a.428.428,0,0,1,.514.264.367.367,0,0,1-.247.483" transform="translate(-92.555 -46.083)" fill="#f9faff"/>
        <path id="Trazado_635943" data-name="Trazado 635943" d="M244.8,313.109a3.17,3.17,0,0,1-2.149,4.159A3.689,3.689,0,0,1,238.211,315a3.17,3.17,0,0,1,2.149-4.159,3.69,3.69,0,0,1,4.44,2.266" transform="translate(-164.432 -214.648)" fill="#99ace3"/>
        <path id="Trazado_635944" data-name="Trazado 635944" d="M201.466,257.346l13.762-.632s4.815,7.236,5.466,13.693l-21.135,6.115s-1.9-11.32,1.907-19.176" transform="translate(-137.536 -177.349)" fill="#382a4b"/>
        <path id="Trazado_635945" data-name="Trazado 635945" d="M234.386,270.524c-.019-.1-.166-.049-.147.047a19.091,19.091,0,0,1,.364,3.9,8.236,8.236,0,0,1-.134,1.945q.091.8-.834.893-.395.025-.79.031a.077.077,0,0,0,.007.154c.386-.011.683-.015.915-.04,0,0,0,0,0,.008a30.87,30.87,0,0,1-.332,5.3c-.015.1.136.134.151.035a31.093,31.093,0,0,0,.335-5.344c0-.01-.007-.014-.01-.022.564-.1.662-.4.766-1.473a19.051,19.051,0,0,0-.288-5.434" transform="translate(-160.81 -186.852)" fill="#341d3f"/>
        <path id="Trazado_635946" data-name="Trazado 635946" d="M223.635,261.562l-.2-.918c-.021-.1-.168-.049-.147.047q.1.459.2.918a.062.062,0,0,0,.033.045.069.069,0,0,0-.052.008c-.073.045-.15.084-.224.126l-.284-.891a.077.077,0,0,0-.147.047l.294.921c-2.555,1.371-5.838,1.055-8.766.594a4.407,4.407,0,0,1,.039-1.03c.015-.1-.135-.133-.151-.035a4.6,4.6,0,0,0-.045,1.04l-.321-.051c0-.009.011-.014.011-.025a4,4,0,0,1,.114-.919.077.077,0,0,0-.151-.035,4.167,4.167,0,0,0-.118.956l-1.3-.216c-.1-.016-.133.134-.035.151.581.1,1.189.2,1.811.3,0,.012,0,.025,0,.037.011.1.166.092.155-.007v-.006c2.948.462,6.226.771,8.809-.606a.075.075,0,0,0,.132-.064l0-.009c.087-.049.175-.094.26-.147a.076.076,0,0,0-.018-.135.082.082,0,0,0,.1-.095" transform="translate(-146.685 -180.027)" fill="#341d3f"/>
        <path id="Trazado_635947" data-name="Trazado 635947" d="M234.622,263.314a.414.414,0,0,0-.488.13c-.171.248.1.5.33.546a.437.437,0,0,0,.555-.369.309.309,0,0,0-.4-.307m.192.433a.352.352,0,0,1-.435.05c-.162-.088-.194-.293.013-.351a.339.339,0,0,1,.171,0,.074.074,0,0,0,.056.015,1.776,1.776,0,0,1,.174.076.068.068,0,0,0,.048,0,.221.221,0,0,1-.027.2" transform="translate(-161.712 -181.89)" fill="#341d3f"/>
        <path id="Trazado_635948" data-name="Trazado 635948" d="M249.867,179.459h0a2.684,2.684,0,0,0,.242,3.247l8.431,9.5a2.11,2.11,0,0,0,3.315-.2l6.1-8.857-2.65-.985-4.655,5.067-6.446-7.987a2.685,2.685,0,0,0-4.339.221" transform="translate(-172.318 -123.135)" fill="#341d3f"/>
        <path id="Trazado_635949" data-name="Trazado 635949" d="M300.86,181.388c0-.036-.005-.072-.007-.108,0-.063,0-.125,0-.188a.269.269,0,0,0,.033-.111,19.17,19.17,0,0,0-.177-4.636,3.6,3.6,0,0,0-.223-1.251.253.253,0,0,0-.214-.139,2.262,2.262,0,0,0-.532.069.252.252,0,0,0-.16.116.2.2,0,0,0-.113.149c-.3,1.5-1.905,5.837-.327,7.2a.9.9,0,0,0,.779.352c.769-.02.962-.8.943-1.452" transform="translate(-206.184 -120.866)" fill="#d69c25"/>
        <path id="Trazado_635950" data-name="Trazado 635950" d="M303.306,180.616c.015-.1-.139-.107-.155-.009a25.084,25.084,0,0,0-.288,4.811c0,.1.159.109.155.009a25.084,25.084,0,0,1,.288-4.811" transform="translate(-209.218 -124.723)" fill="#341d3f"/>
        <path id="Trazado_635951" data-name="Trazado 635951" d="M300.512,184.29l.849.176,1.2-1.743a1.564,1.564,0,0,0-.616-2.2,3.556,3.556,0,0,0-2.938-.551l-.8.192s-.621.77,1.823.68c0,0-1.876-.181-1.968.569,0,0-.347.81,2.5.216,0,0-2.316.046-2.542.939,0,0-.07.8,2.691,0-.074,0-.086.319-.2,1.721" transform="translate(-205.886 -124.261)" fill="#ebadab"/>
        <path id="Trazado_635952" data-name="Trazado 635952" d="M301.99,155.378c.174,0,10.977-4.651,10.977-4.651l-.722,12.851-10.386-4.3c-1.641.031-1.633-3.854.13-3.9" transform="translate(-207.7 -104.128)" fill="#f4e3b8"/>
        <path id="Trazado_635953" data-name="Trazado 635953" d="M337.732,156.957c-.2,3.583-1.1,6.445-2.007,6.394-.718-.04-1.231-1.9-1.307-4.461-.023-.666-.013-1.377.028-2.117a23.57,23.57,0,0,1,.3-2.671c.384-2.227,1.043-3.756,1.71-3.718.907.051,1.48,3,1.279,6.574" transform="translate(-231.021 -103.891)" fill="#d69c25"/>
        <path id="Trazado_635954" data-name="Trazado 635954" d="M336.372,164.9a2.355,2.355,0,0,1-1.954,2.3c-.023-.666-.013-1.377.028-2.117a23.579,23.579,0,0,1,.3-2.671,2.369,2.369,0,0,1,1.63,2.49" transform="translate(-231.021 -112.201)" fill="#f4e3b8"/>
        <path id="Trazado_635955" data-name="Trazado 635955" d="M298.314,169.466l-1.071-.06a2.058,2.058,0,0,1,.231-4.11l1.071.06a2.781,2.781,0,0,0-.231,4.11" transform="translate(-204.006 -114.191)" fill="#d69c25"/>
        <path id="Trazado_635956" data-name="Trazado 635956" d="M315.116,155.247q-3.985,1.642-7.948,3.337c-.092.039-.021.177.071.138q3.962-1.7,7.948-3.337c.092-.038.021-.176-.071-.138" transform="translate(-212.175 -107.246)" fill="#341d3f"/>
        <path id="Trazado_635957" data-name="Trazado 635957" d="M334.829,164.574c-1.235-3.523-.685-7.458.373-10.943.029-.1-.118-.145-.147-.049-1.069,3.52-1.625,7.468-.377,11.026.033.093.185.062.151-.033" transform="translate(-230.716 -106.064)" fill="#341d3f"/>
        <path id="Trazado_635958" data-name="Trazado 635958" d="M340.923,153.444c-.039-.092-.177-.021-.138.071a5.294,5.294,0,0,1,.418,2.28.078.078,0,0,0,.155.009,5.5,5.5,0,0,0-.435-2.359" transform="translate(-235.424 -105.976)" fill="#341d3f"/>
        <path id="Trazado_635959" data-name="Trazado 635959" d="M342.9,156.806a.078.078,0,0,0-.152.033,10.7,10.7,0,0,1,.18,2.911.077.077,0,0,0,.155.009,10.822,10.822,0,0,0-.183-2.952" transform="translate(-236.78 -108.287)" fill="#341d3f"/>
        <path id="Trazado_635960" data-name="Trazado 635960" d="M337.313,165.856c-.07-.071-.186.032-.116.1a2.213,2.213,0,0,1,.053,2.348.078.078,0,0,0,.13.086,2.333,2.333,0,0,0-.067-2.537" transform="translate(-232.935 -114.564)" fill="#341d3f"/>
        <path id="Trazado_635961" data-name="Trazado 635961" d="M302.946,170.55a2.494,2.494,0,0,1-.3-3.584c.064-.077-.066-.162-.129-.086a2.647,2.647,0,0,0,.345,3.8c.076.065.161-.066.086-.129" transform="translate(-208.544 -115.267)" fill="#341d3f"/>
        <path id="Trazado_635962" data-name="Trazado 635962" d="M303.277,181.815a9.021,9.021,0,0,0-1.964.279.078.078,0,0,0,.033.152,8.813,8.813,0,0,1,1.923-.276c.1,0,.109-.155.009-.155" transform="translate(-208.119 -125.605)" fill="#341d3f"/>
        <path id="Trazado_635963" data-name="Trazado 635963" d="M302.9,184.621a14.735,14.735,0,0,0-1.886.41c-.1.028-.063.179.033.152a14.717,14.717,0,0,1,1.887-.411c.1-.015.066-.166-.033-.151" transform="translate(-207.914 -127.543)" fill="#341d3f"/>
        <path id="Trazado_635964" data-name="Trazado 635964" d="M307.666,186.4a10.478,10.478,0,0,1-1.317.592c-.006,0-.006.008-.011.011-.046-.017-.1,0-.1.06q.013.275.026.551-.01.228-.021.456c0,.085.128.116.151.029.011-.042.023-.084.034-.127l0,0a6.951,6.951,0,0,0,.33-.876.074.074,0,0,0-.035-.088,10.444,10.444,0,0,0,1.012-.467.078.078,0,0,0-.071-.138" transform="translate(-211.562 -128.769)" fill="#341d3f"/>
        <path id="Trazado_635965" data-name="Trazado 635965" d="M225.228,173.766l-.744,4.08a37.266,37.266,0,0,1-2.469,8.134l-1.842,4.249.04,9.026c-5.449,3.036-13.426-2.049-13.426-2.049l1.363-18.18c.5-6.481,3.111-8.529,4.988-9.044a9.073,9.073,0,0,1,3.146-.289l.275.026a8.6,8.6,0,0,1,1.164.209l2.439.6a8.98,8.98,0,0,1,2.3.922l.029.015c.136.077.268.155.4.241a10.419,10.419,0,0,1,2.338,2.059" transform="translate(-142.858 -117.21)" fill="#95455c"/>
        <path id="Trazado_635966" data-name="Trazado 635966" d="M244.295,171.58c.126,3.119-.611,5.672-1.881,6.09-1.533.5-3.258-2.3-3.855-6.262-.076-.529-.135-1.05-.165-1.559a8.54,8.54,0,0,1,1.164.209l2.439.6a8.953,8.953,0,0,1,2.3.922" transform="translate(-164.692 -117.339)" fill="#341d3f"/>
        <path id="Trazado_635967" data-name="Trazado 635967" d="M237.938,249.264l3.979-.234,1.326,2.739c.28.524.55,1.065.8,1.623l.453.1a4.871,4.871,0,0,1,1.908.869l1.338.985c.219.2.107.55-.24.444l-1.129-.639.644.795a12.686,12.686,0,0,1,.976,1.414l.454.778a.269.269,0,0,1-.442.285l-1.433-1.878.794,1.221.778,1.349c.14.328-.269.506-.41.294l-.726-1.115-.992-1.3.49,1.14a3.115,3.115,0,0,1,.222.781l.127.919c-.1.431-.313.343-.538.131l-.149-.8a2.535,2.535,0,0,0-.315-.852l-.608-1.05.3,2.286a.264.264,0,0,1-.528,0,11.366,11.366,0,0,0-.508-2.23,5.067,5.067,0,0,1-1.975-2.105l-.608-1.2Z" transform="translate(-164.377 -172.04)" fill="#ebadab"/>
        <path id="Trazado_635968" data-name="Trazado 635968" d="M221.511,176.007l.182,8.882,6,13.952-1.537,2.232-6.08-8.256a23.441,23.441,0,0,1-4.272-10.386l-.793-5.228a6.116,6.116,0,0,1,1.459-5.047c1.551-1.685,3.026-1.5,4.4,1.22a6.125,6.125,0,0,1,.645,2.63" transform="translate(-148.488 -118.186)" fill="#341d3f"/>
        <path id="Trazado_635969" data-name="Trazado 635969" d="M245.423,157.652l-1.4,2.163-.291.451c-.04.067-1.655,2.2-2.652.436a4.567,4.567,0,0,1-.756-1.81l1.839-3.1,1.2-2.015Z" transform="translate(-166.019 -106.235)" fill="#ebadab"/>
        <path id="Trazado_635970" data-name="Trazado 635970" d="M249.558,157.652l-1.4,2.163a5.476,5.476,0,0,1-1.858-3.961l0-.062,1.2-2.015Z" transform="translate(-170.153 -106.235)" fill="#e79092"/>
        <path id="Trazado_635971" data-name="Trazado 635971" d="M245.245,138.425a3.843,3.843,0,0,1-1.473.782c-1.7.472-3.813-1.266-4.87-3.206a2.146,2.146,0,0,1-1.92-1.542c-.242-.871-.075-2.066.635-2.2a1.143,1.143,0,0,1,.7.146c.4-2.581,2.044-5.57,3.817-5.892,2.321-.426,4.4.581,5.1,6.826a5.973,5.973,0,0,1-1.993,5.082" transform="translate(-163.645 -87.344)" fill="#ebadab"/>
        <path id="Trazado_635972" data-name="Trazado 635972" d="M259.946,151.651a.969.969,0,0,0,.673.141.6.6,0,0,0,.3-.165.613.613,0,0,0,.171-.348,1.433,1.433,0,0,0-.208-.908l-.757-1.782a.128.128,0,0,0-.175-.068.139.139,0,0,0-.069.18l.76,1.795a1.066,1.066,0,0,1,.168.8.3.3,0,0,1-.078.139.505.505,0,0,1-.6,0,.252.252,0,0,1-.031-.016.144.144,0,0,0-.191.047.038.038,0,0,0-.008.018.127.127,0,0,0,.045.163" transform="translate(-179.527 -102.597)" fill="#341d3f"/>
        <path id="Trazado_635973" data-name="Trazado 635973" d="M264.589,147.591a.449.449,0,1,1-.531-.4.471.471,0,0,1,.531.4" transform="translate(-182.176 -101.68)" fill="#341d3f"/>
        <path id="Trazado_635974" data-name="Trazado 635974" d="M254.708,148.311a.449.449,0,1,1-.531-.4.471.471,0,0,1,.531.4" transform="translate(-175.35 -102.178)" fill="#341d3f"/>
        <path id="Trazado_635975" data-name="Trazado 635975" d="M255.4,157.119a15.205,15.205,0,0,0-1.759-1.21.186.186,0,0,0-.155.214,1.539,1.539,0,0,0,1.773,1.278.187.187,0,0,0,.166-.205.179.179,0,0,0-.025-.076" transform="translate(-175.117 -107.708)" fill="#fff"/>
        <path id="Trazado_635976" data-name="Trazado 635976" d="M262.457,143.167a.126.126,0,0,0,.137.023.793.793,0,0,1,1.092.366.127.127,0,0,0,.172.06.135.135,0,0,0,.062-.176,1.041,1.041,0,0,0-1.422-.492.134.134,0,0,0-.07.173.12.12,0,0,0,.031.046" transform="translate(-181.288 -98.677)" fill="#341d3f"/>
        <path id="Trazado_635977" data-name="Trazado 635977" d="M253.449,144.051a.126.126,0,0,1-.134.035.793.793,0,0,0-1.058.456.127.127,0,0,1-.166.074.135.135,0,0,1-.076-.171,1.041,1.041,0,0,1,1.376-.609.134.134,0,0,1,.084.166.122.122,0,0,1-.027.049" transform="translate(-174.096 -99.318)" fill="#341d3f"/>
        <path id="Trazado_635978" data-name="Trazado 635978" d="M218.436,258.321a10.339,10.339,0,0,1-7.231-2.136c-.105-.081-.247.071-.141.153a10.568,10.568,0,0,0,7.38,2.191c.133-.01.125-.218-.009-.207" transform="translate(-145.786 -176.967)" fill="#341d3f"/>
        <path id="Trazado_635979" data-name="Trazado 635979" d="M224.1,258.472c-1.674.072-4.147.341-5.547-.743-.105-.081-.246.071-.141.153,1.453,1.125,3.975.872,5.7.8a.1.1,0,0,0-.009-.207" transform="translate(-150.86 -178.034)" fill="#341d3f"/>
        <path id="Trazado_635980" data-name="Trazado 635980" d="M246.5,205.969a16.758,16.758,0,0,0-1.649,6.641c-.005.134.2.124.207-.009a16.446,16.446,0,0,1,1.625-6.536c.058-.12-.126-.218-.183-.1" transform="translate(-169.152 -142.253)" fill="#341d3f"/>
        <path id="Trazado_635981" data-name="Trazado 635981" d="M242.766,173.253a12.139,12.139,0,0,1-.5,3.367,4.054,4.054,0,0,1-.9,1.641c-1.582,1.462-2.741.454-3.609-.681a11.115,11.115,0,0,1-2.037-6.47c0-.134-.2-.125-.207.009-.044,2.383,1.1,7.308,3.872,8.067,2.981.816,3.5-4.127,3.593-5.941.007-.133-.2-.124-.207.009" transform="translate(-162.699 -118.144)" fill="#341d3f"/>
        <path id="Trazado_635982" data-name="Trazado 635982" d="M265.173,248.5l20.051-1.826a.936.936,0,0,0,.845-.824l1.418-12.135a.936.936,0,0,0-1.015-1.041L266.421,234.5a.937.937,0,0,0-.845.824l-1.418,12.135a.937.937,0,0,0,1.015,1.041" transform="translate(-182.486 -160.736)" fill="#d2e0e6"/>
        <path id="Trazado_635983" data-name="Trazado 635983" d="M301.045,255.3a1.808,1.808,0,1,1-1.944-1.481,1.731,1.731,0,0,1,1.944,1.481" transform="translate(-205.491 -175.341)" fill="#b2dee8"/>
        <rect id="Rectángulo_341009" data-name="Rectángulo 341009" width="19.041" height="1.203" transform="translate(82.435 87.784) rotate(-5.203)" fill="#b2dee8"/>
        <rect id="Rectángulo_341010" data-name="Rectángulo 341010" width="9.921" height="1.203" transform="translate(72.555 88.684) rotate(-5.203)" fill="#d2e0e6"/>
        <path id="Trazado_635984" data-name="Trazado 635984" d="M273.76,238.8q5.047-.519,10.111-.82a.077.077,0,0,1,.007.154q-5.064.3-10.111.82c-.1.01-.105-.144-.007-.155" transform="translate(-189.075 -164.409)" fill="#341d3f"/>
        <path id="Trazado_635985" data-name="Trazado 635985" d="M268.665,241.557c.01-.1.16-.063.151.035q-.593,6.187-1.111,12.381c-.008.1-.163.105-.155.006q.52-6.215,1.115-12.423" transform="translate(-184.835 -166.837)" fill="#341d3f"/>
        <path id="Trazado_635986" data-name="Trazado 635986" d="M299.2,253.48c.1.015.063.165-.035.151-2.3-.343-2.158,3.641.17,3.182.1-.019.145.128.047.147a1.723,1.723,0,0,1-2.069-1.62,1.654,1.654,0,0,1,1.886-1.86" transform="translate(-205.394 -175.1)" fill="#341d3f"/>
        <path id="Trazado_635987" data-name="Trazado 635987" d="M236.538,287.4l8.686-.8c.1-.009.105.145.006.155l-8.686.8c-.1.009-.105-.146-.007-.155" transform="translate(-163.361 -197.995)" fill="#341d3f"/>
        <path id="Trazado_635988" data-name="Trazado 635988" d="M248.365,123.846a1.937,1.937,0,0,1-1.247.034c-.58-.189-.825-.682-1.164-1.169-.59-.849-1.423-1.845-2.505-1.849a3.057,3.057,0,0,0-1.46.351c-.373.189-.3.043-.589-.227a1.736,1.736,0,0,0-.756-.4,2.692,2.692,0,0,0-2.605.9c-.549.559-.9,1.3-1.436,1.889a3.33,3.33,0,0,1-1.913,1.039,4.161,4.161,0,0,0,1.863.441,3.628,3.628,0,0,0-.165,1.039c-.016.981.036,2-.9,2.489.515-.035.952-.205,1.323-.053a5.326,5.326,0,0,0,.347,1.307,2.863,2.863,0,0,0,1.058,1.7c.1-1.12-.565-2.256.265-3.248.688-.822,2.155-1.182,2.447-2.33a3.179,3.179,0,0,1-.526,1.922,4.1,4.1,0,0,0,3.259-2.042c-.155.77.227,1.147.727,1.634a2.809,2.809,0,0,1,.964,1.755,1.826,1.826,0,0,0,.286-1.139c.112.309.227.612.3.9a4.652,4.652,0,0,1,.035,2.131,8.876,8.876,0,0,0,1.217-3.941,5.126,5.126,0,0,0-.781-2.546,1.441,1.441,0,0,0,1.957-.578" transform="translate(-162.134 -83.264)" fill="#d69c25"/>
        <path id="Trazado_635989" data-name="Trazado 635989" d="M257.2,134.083a3.675,3.675,0,0,1-2.115,2.365c-.089.044,0,.174.083.13a3.813,3.813,0,0,0,2.182-2.46.077.077,0,0,0-.151-.035" transform="translate(-176.194 -92.591)" fill="#341d3f"/>
        <path id="Trazado_635990" data-name="Trazado 635990" d="M266.086,136.33a2.569,2.569,0,0,1-1.257-2.6.077.077,0,0,0-.151-.035,2.715,2.715,0,0,0,1.3,2.75c.077.062.182-.051.1-.114" transform="translate(-182.814 -92.321)" fill="#341d3f"/>
        <path id="Trazado_635991" data-name="Trazado 635991" d="M269.613,132.068c-.073-.068-.177.045-.1.114a4.3,4.3,0,0,1,.7,5.044c-.04.091.1.164.137.072a4.46,4.46,0,0,0-.731-5.23" transform="translate(-186.171 -91.223)" fill="#341d3f"/>
        <path id="Trazado_635992" data-name="Trazado 635992" d="M262.767,125.679c-1.078-.482-1.042-1.96-2.153-2.428a1.854,1.854,0,0,0-2.125.533.077.077,0,0,0,.114.1,1.682,1.682,0,0,1,1.941-.482,2.4,2.4,0,0,1,1.111,1.263,2.212,2.212,0,0,0,1.039,1.146c.091.04.163-.1.072-.137" transform="translate(-178.561 -85.048)" fill="#341d3f"/>
        <path id="Trazado_635993" data-name="Trazado 635993" d="M244.607,123.256a1.931,1.931,0,0,0-2.121-.436c-1.183.523-1.333,2.089-2.6,2.531-.094.033-.047.18.047.147a2.681,2.681,0,0,0,1.33-1.131,4.285,4.285,0,0,1,1.071-1.29,1.771,1.771,0,0,1,2.168.292c.072.069.177-.045.1-.114" transform="translate(-165.688 -84.743)" fill="#341d3f"/>
        <path id="Trazado_635994" data-name="Trazado 635994" d="M242.1,129.073a2.8,2.8,0,0,0-1.3,1.536c-.365.944-.171,2.654-1.112,3.245a.077.077,0,0,0,.083.13,2.137,2.137,0,0,0,.8-1.676c.2-1.2.435-2.479,1.61-3.1.088-.047,0-.177-.083-.13" transform="translate(-165.558 -89.162)" fill="#341d3f"/>
        <path id="Trazado_635995" data-name="Trazado 635995" d="M247.927,131.066a5.416,5.416,0,0,1-1.984,2.994,6.407,6.407,0,0,0-1.357,1.062,3.262,3.262,0,0,0-.248,2.765c.02.1.167.049.147-.047a2.866,2.866,0,0,1,.617-2.992c.428-.407.981-.663,1.418-1.066a5.51,5.51,0,0,0,1.558-2.681c.026-.1-.125-.131-.151-.035" transform="translate(-168.672 -90.506)" fill="#341d3f"/>
        <path id="Trazado_635996" data-name="Trazado 635996" d="M249.234,127.392c-1.909.072-2.623,2-3.071,3.559-.028.1.123.13.151.035.427-1.485,1.089-3.37,2.927-3.439a.077.077,0,0,0-.007-.154" transform="translate(-170.057 -88.007)" fill="#341d3f"/>
        <path id="Trazado_635997" data-name="Trazado 635997" d="M260.73,127.306a.664.664,0,0,0-.932,0,.077.077,0,0,0,.114.1c.3-.322.73-.049.9.259a3.085,3.085,0,0,1,.3,1.044c.015.1.169.092.154-.007a2.336,2.336,0,0,0-.539-1.4" transform="translate(-179.465 -87.815)" fill="#341d3f"/>
        <path id="Trazado_635998" data-name="Trazado 635998" d="M177.127,112.282a.92.92,0,0,0,.639-1.217.933.933,0,0,0-1.1-.562l-3.339.815a5.9,5.9,0,0,0-.265-2.295c-.343-1.047-.839-1.554-1.5-1.5a.631.631,0,0,0-.546.784,6.81,6.81,0,0,1,.007,3.182l-.318,1.336a2.133,2.133,0,0,1-.8,1.216l1.071,4.388a7.307,7.307,0,0,0,2.445-.165l3.617-.869a.917.917,0,0,0,.292-1.652.917.917,0,0,0,.216-1.675l.011,0a.919.919,0,0,0-.436-1.785" transform="translate(-117.382 -74.28)" fill="#fff"/>
        <path id="Trazado_635999" data-name="Trazado 635999" d="M163.737,132.366l-1.791.437a.751.751,0,0,1-.905-.55l-1.025-4.2a.751.751,0,0,1,.55-.906l1.791-.437a.751.751,0,0,1,.905.55l1.025,4.2a.751.751,0,0,1-.55.905" transform="translate(-110.53 -87.52)" fill="#d69c25"/>
        <path id="Trazado_636000" data-name="Trazado 636000" d="M165.965,127.516a3.185,3.185,0,0,0-1.251.32c-.233.111-.012.449.22.338a2.63,2.63,0,0,1,.82-.235l.636,2.513c.064.251.448.129.384-.122l-.636-2.509a.2.2,0,0,0-.173-.305" transform="translate(-113.723 -88.093)" fill="#341d3f"/>
        <path id="Trazado_636001" data-name="Trazado 636001" d="M176.039,108.538c-.188-.178-.459.12-.27.3a4.027,4.027,0,0,1,.944,3.669c-.04.255.353.345.393.089a4.444,4.444,0,0,0-1.067-4.057" transform="translate(-121.384 -74.945)" fill="#341d3f"/>
        <path id="Trazado_636002" data-name="Trazado 636002" d="M188.217,121.276q-1,.2-1.985.465c-.251.067-.128.451.122.384q.986-.262,1.985-.465c.254-.051.13-.435-.122-.384" transform="translate(-128.561 -83.779)" fill="#341d3f"/>
        <path id="Trazado_636003" data-name="Trazado 636003" d="M189.943,127.6l-1.344.425a.2.2,0,0,0,.122.384l1.344-.425a.2.2,0,0,0-.122-.384" transform="translate(-130.199 -88.147)" fill="#341d3f"/>
        <path id="Trazado_636004" data-name="Trazado 636004" d="M191.912,133.382l-.747.236a.2.2,0,0,0,.122.384l.747-.237a.2.2,0,0,0-.122-.384" transform="translate(-131.971 -92.138)" fill="#341d3f"/>
      </g>
    </g>
  </g>
</svg>
