<svg xmlns="http://www.w3.org/2000/svg" xmlns:xlink="http://www.w3.org/1999/xlink" width="505" height="256.381" viewBox="0 0 505 256.381">
  <defs>
    <clipPath id="clip-path">
      <rect id="Rectángulo_341309" data-name="Rectángulo 341309" width="302.508" height="255.411" fill="none"/>
    </clipPath>
    <clipPath id="clip-path-3">
      <path id="Trazado_655092" data-name="Trazado 655092" d="M86.911,182.254a108.208,108.208,0,0,0,216.415,0Z" transform="translate(-86.911 -182.254)" fill="none"/>
    </clipPath>
    <clipPath id="clip-path-5">
      <rect id="Rectángulo_341300" data-name="Rectángulo 341300" width="190.506" height="108.207" fill="none"/>
    </clipPath>
    <clipPath id="clip-path-6">
      <rect id="Rectángulo_341301" data-name="Rectángulo 341301" width="138.693" height="23.372" fill="none"/>
    </clipPath>
  </defs>
  <g id="Grupo_980856" data-name="Grupo 980856" transform="translate(-285 -3156)">
    <path id="Rectángulo_305614" data-name="Rectángulo 305614" d="M5,0H500a5,5,0,0,1,5,5V184.694a0,0,0,0,1,0,0H0a0,0,0,0,1,0,0V5A5,5,0,0,1,5,0Z" transform="translate(285 3227.687)" fill="#f0bd51"/>
    <g id="Grupo_956785" data-name="Grupo 956785" transform="translate(382.492 3156)">
      <g id="Grupo_956784" data-name="Grupo 956784" clip-path="url(#clip-path)">
        <g id="Grupo_956773" data-name="Grupo 956773">
          <g id="Grupo_956772" data-name="Grupo 956772" clip-path="url(#clip-path)">
            <path id="Trazado_655033" data-name="Trazado 655033" d="M86.911,182.254a108.208,108.208,0,0,0,216.415,0Z" transform="translate(-24.224 -50.797)" fill="#0092ff"/>
          </g>
        </g>
        <g id="Grupo_956775" data-name="Grupo 956775" transform="translate(62.687 131.457)">
          <g id="Grupo_956774" data-name="Grupo 956774" clip-path="url(#clip-path-3)">
            <path id="Trazado_655034" data-name="Trazado 655034" d="M359.714,299.864a30.088,30.088,0,0,1-3.1-2.659c-.591-.812-.665,0-1.551-1.846a29.887,29.887,0,0,0-1.7-3.619c-.591-.812-.443-1.181-.886-1.846a2.037,2.037,0,0,0-1.181-.813,1.283,1.283,0,0,0-.961,1.552c.074.517-.148,2.068-.148,2.807s-.147,1.478-.516,1.4a7.519,7.519,0,0,1-2.216-1.108c-.812-.591-2.068-.443-2.364-1.181a2.2,2.2,0,0,1,.591-2.069c.443-.591,1.034-.886.443-1.108a5.651,5.651,0,0,0-3.25-.221c-1.181.369-2.437.148-2.806.886s.148,1.7-.444,2.068-.074.221-1.181-.221-3.25.886-3.619,1.477-1.847,1.256-1.921,1.994.222,1.7-.3,1.846-1.551-.221-2.881.517-1.551.3-2.659,1.7-1.256,1.33-1.108,2.29.443.3.074,1.994-.074.665.886,3.029.813,2.659.591,3.1-.369,1.4.148,1.773.517,1.108,1.4.591a17.065,17.065,0,0,1,3.546-1.477c1.625-.517,2.437,0,3.324-1.108s1.181-1.477,3.324-1.7,1.921-.812,4.063.444,2.511,1.181,3.1.812.443.222,1.034,1.034,1.994,3.619,3.25,3.693,1.33-.369,2.438-.443.443.369,1.477.443.664-.074,1.846-.591,2.142-.443,2.069-2.216.516-2.142,1.108-3.177a8.58,8.58,0,0,0,1.181-4.727c-.148-1.92-.148-2.437-1.108-3.324" transform="translate(-153.515 -212.005)" fill="#0049a8"/>
            <path id="Trazado_655035" data-name="Trazado 655035" d="M367.6,326.158a1.932,1.932,0,0,0-.788.493c-.247.2-.837.1-.837.1l-.591.1c-.444.1-.2-.2-1.034-.247s-1.231-.147-1.329.148.2.739.542,1.231.345.886.935.886,1.231.3,1.576.148a3.786,3.786,0,0,0,1.083-1.083c.147-.247.492-.247.591-.886s.443-1.132-.148-.886" transform="translate(-163.861 -222.344)" fill="#0049a8"/>
            <path id="Trazado_655036" data-name="Trazado 655036" d="M362.178,282c-1.4-1.329-3.177-2.733-3.619-3.1a2.99,2.99,0,0,0-1.846-1.034,6.55,6.55,0,0,1-2.364-.591c-.886-.369-.739-.812-1.4-.369s-.96.517-1.551.886-1.181.221-1.255-.074-.074-.886-.369-1.034-.222-.3-.813-.3a7.676,7.676,0,0,0-1.329,0c-.222.074-1.108-.369-.517.3a4.219,4.219,0,0,0,1.181.96c.222.148.517-.074.665.369a3.634,3.634,0,0,0,.591.96,8.88,8.88,0,0,1,1.256.3c.369.148,1.625.665,1.625.665s1.33.517,1.477.886a2.179,2.179,0,0,1,.148.96c0,.369-.517.369-.739.443s-.369-.074-.443.222,1.034.812,1.034.812,1.256-.443,1.625-.148a2.121,2.121,0,0,0,1.4.739c.813.074,1.108,0,1.4-.369s.886-1.329,1.256-1.329a1.512,1.512,0,0,1,1.329.591,5.44,5.44,0,0,0,1.4,1.182,1.191,1.191,0,0,0,1.256.074c.074-.443,0-.665-1.4-1.994" transform="translate(-159.377 -208.468)" fill="#0049a8"/>
            <path id="Trazado_655037" data-name="Trazado 655037" d="M343.761,279.954a3.108,3.108,0,0,1,1.367-.221,2.57,2.57,0,0,0,1.034.074c.221-.074.6-.074.394-.185-.157-.083-.542-.493-.837-.443s-.148-.1-.886-.2-.985-.1-1.132.049-.788.406-.714.664.369.407.775.259" transform="translate(-158.282 -209.194)" fill="#0049a8"/>
            <path id="Trazado_655038" data-name="Trazado 655038" d="M341.574,279.889a.4.4,0,0,0-.3-.406c-.306-.076-.48-.221-.664-.074s-.369.259-.3.407.554.258.739.258.48,0,.517-.185" transform="translate(-157.535 -209.315)" fill="#0049a8"/>
            <path id="Trazado_655039" data-name="Trazado 655039" d="M332.632,278.324c-.074.406-.333.221,0,.775s.369.037.443.7a5.123,5.123,0,0,1-.037,1.293s-.591.517-.074.739.591.3.85.148.295-.258.258-.591.111-.591.111-1.219a3.832,3.832,0,0,1,.074-1.4c.148-.258.554-.074.554.259a1.52,1.52,0,0,0,.406,1.293,1,1,0,0,0,1.034.258c.517-.074.517-.591.369-.664s-.591-.3-.628-.628a3.334,3.334,0,0,0-.074-1c-.148-.48-.185-.332-.3-.628s.3-.221.775-.443.664-.259.775-.517.037-.591-.258-.517-.48-.037-.739.185a1.279,1.279,0,0,1-.924.406c-.516.037-.628.074-.775-.147a1.094,1.094,0,0,1-.185-.776c.074-.148.369-.923.776-.775s.48.48,1,.369a6.979,6.979,0,0,1,1.071-.3c.333,0,.517.111.85.111a1.583,1.583,0,0,0,.628-.148l.3-.406a.915.915,0,0,0-1-.48,4.851,4.851,0,0,1-1.034.074c-.48-.037-.553.185-.96.037s-.258-.258-.775-.185a2.18,2.18,0,0,0-.886.221c-.3.148-.333.111-.48.3a1.274,1.274,0,0,0-.406,1.145,2.931,2.931,0,0,1,.185,1.108c-.037.3-.3.444-.517.739s-.332.259-.406.665" transform="translate(-155.351 -207.861)" fill="#0049a8"/>
            <path id="Trazado_655040" data-name="Trazado 655040" d="M339.681,286.052a1.7,1.7,0,0,1-.812.406,4.627,4.627,0,0,0-.886.185c-.111.074-.48.259-.332.48s.96.333.96.333a1.6,1.6,0,0,1,.628-.517c.3-.074.813.037.924-.148s.295-.665.185-.7c-.331-.11-.517-.221-.665-.037" transform="translate(-156.786 -211.157)" fill="#0049a8"/>
            <path id="Trazado_655041" data-name="Trazado 655041" d="M332.862,286.9c-.3-.221-.48-.369-.628-.259s-.48.407-.074.628.775.037.96.258.628.038.628.038c0-.222.074-.333-.185-.369a1.262,1.262,0,0,1-.7-.3" transform="translate(-155.212 -211.337)" fill="#0049a8"/>
            <path id="Trazado_655042" data-name="Trazado 655042" d="M328.953,286.032c-.3.074-.628.258-.221.443a3.324,3.324,0,0,0,1.293.111c.221,0,.406-.074.443-.185.063-.189,0-.258-.516-.258s-.7-.185-1-.111" transform="translate(-154.258 -211.174)" fill="#0049a8"/>
            <path id="Trazado_655043" data-name="Trazado 655043" d="M323.841,285.177s-.48-.665-.665-.665-.48.222-.849-.148-.444-.554-1.33-.48a5.364,5.364,0,0,1-1.81-.148c-.3-.074-.11-.185-.775-.369a2.634,2.634,0,0,0-1.366-.111c-.407.074-1.109.074-.813.554s1.366.665,1.883.85a4.382,4.382,0,0,0,2.069.48,2.32,2.32,0,0,1,1.329.11c.554.148.628-.11,1.329.038s.924.074,1-.111" transform="translate(-150.807 -210.392)" fill="#0049a8"/>
            <path id="Trazado_655044" data-name="Trazado 655044" d="M312.953,277.956c-.074-.3.037-.3.074-.813s.074-.48-.3-.96-.406-.185-.85-.517a1.864,1.864,0,0,1-.7-1.034c-.221-.517-.369-.591-1-1.182a3.136,3.136,0,0,0-1.33-.812c-.516-.222-.849-1-1.218-1.4s-1-.886-1.44-1.293a13.753,13.753,0,0,0-1.256-1c-.591-.443-.7-.406-1-.332s-.221.775-.11,1.034a2.45,2.45,0,0,0,.849.775c.259.148.369.48.739,1a23.136,23.136,0,0,0,1.588,1.736s.554,1.588.923,2.4,1.293,1.108,1.551,1.4,1.181,1.4,1.181,1.4a10.884,10.884,0,0,0,1,.776c.406.258.48-.222.886-.517a.731.731,0,0,0,.406-.111c.111-.111.074-.258,0-.554" transform="translate(-147.343 -206.311)" fill="#0049a8"/>
            <path id="Trazado_655045" data-name="Trazado 655045" d="M319.969,273.282a4.9,4.9,0,0,0,1.4,1.921,14.242,14.242,0,0,0,1.514.739c.554.258.85,0,1.329.258a4.086,4.086,0,0,0,1.33.554c.48.074.3.333.739.037.275-.183-.185-.664,0-1.181a2.851,2.851,0,0,1,.85-1.108,2.924,2.924,0,0,0,.406-.886s-.332-.886,0-1.108.849,0,.628-.554-.406-.333-.443-1.034-.074-1,.074-1.182.3-.221.554-.517.517-.221.185-.7-.3-.7-.7-1.034-.258-.739-.775-.517a5.3,5.3,0,0,0-.923.517s-.406,1.108-.665,1.256-1,.7-1,.7a6.091,6.091,0,0,1-1.293,1.588,5.617,5.617,0,0,1-1.256.516s-.776.444-.96.3,0-.443-.555-.3-.591,1.367-.443,1.736" transform="translate(-151.848 -205.847)" fill="#0049a8"/>
            <path id="Trazado_655046" data-name="Trazado 655046" d="M343.407,273.136c-.559,0-.333.775-.3,1.256s.148.85.407.665a.57.57,0,0,0,.3-.628c-.037-.3-.185-.074-.074-.591s-.148-.7-.333-.7" transform="translate(-158.297 -207.584)" fill="#0049a8"/>
            <path id="Trazado_655047" data-name="Trazado 655047" d="M337.5,265.472c.333-.037.3.037.48.333s.147.7.591.665c0,0,.665.037.923-.3s.185-.96.369-1.256a1.22,1.22,0,0,0-.148-1.256c-.295-.369-.48.111-.775.406s-.739.222-1.108.222a2.272,2.272,0,0,0-.923.369,3.353,3.353,0,0,0-.222.923c.038.221.48-.074.813-.111" transform="translate(-156.527 -204.907)" fill="#0049a8"/>
            <path id="Trazado_655048" data-name="Trazado 655048" d="M335.528,262.493c.111.517.628.185.85.221a1.074,1.074,0,0,0,.295-.406c.074-.221.185-.258.369-.406s.074-.554-.074-.739-.591-.221-.591-.221a6.557,6.557,0,0,1-.7-.591c-.111-.148-.48-.3-1.145-.185s-.074.517.739,1.108.147.7.258,1.219" transform="translate(-155.847 -203.959)" fill="#0049a8"/>
            <path id="Trazado_655049" data-name="Trazado 655049" d="M333.452,255.828c.111.591.221.185.591.665s.739.258,1.256.333.148.3.406.664.444.221,1,.48a.934.934,0,0,1,.443,1.219,2.292,2.292,0,0,0,.813.074.734.734,0,0,0,.517-.406c.074-.221-.111-.369-.3-.665s-.554-.406-.813-.85-.258-.295-.812-.664-1.071-.185-1.329-.48-.222-.664-.3-1.256.037-.517.332-1,.037-.739.037-.739a1.07,1.07,0,0,0-.665-.3c-.369,0-.516.517-.628.923a5.777,5.777,0,0,1-.443,1,1.6,1.6,0,0,0-.111,1" transform="translate(-155.617 -201.947)" fill="#0049a8"/>
            <path id="Trazado_655050" data-name="Trazado 655050" d="M332.056,262.337a1.435,1.435,0,0,1-.591.7.468.468,0,0,0,0,.665c.148.185.369-.038.48-.111a5.589,5.589,0,0,0,.813-1.182.967.967,0,0,0-.3-.628c-.3-.3-.258.148-.406.554" transform="translate(-155.033 -204.393)" fill="#0049a8"/>
            <path id="Trazado_655051" data-name="Trazado 655051" d="M348.027,164.882a38.278,38.278,0,0,1-4.038-1.576,35.491,35.491,0,0,1-3.644-1.97,25.927,25.927,0,0,1-2.955-1.772c-.788-.69-.886-1.28-2.561-1.28s-2.757-.2-3.052.1-.2,1.083-1.084,1.28-.985-.69-2.068-.886a22.653,22.653,0,0,0-3.841-.2c-1.477,0-2.758-.2-2.856-.591s.69-1.28-.788-2.068a7.47,7.47,0,0,0-4.333-.985c-1.182.2-1.97.788-2.757-.1s-1.28-2.069-2.069-2.364a13.674,13.674,0,0,0-3.053-.985c-.689,0-1.674-1.083-2.561-1.083s-1.772-.886-1.97.1.886,1.871-.1,2.265a4.888,4.888,0,0,1-2.757.3,25.643,25.643,0,0,1-2.955-.493c-.689-.1-.788-1.083-1.378-.2s-.2,1.379-.985,1.182-2.364-.395-1.871-1.477,1.182-1.281.985-1.97-1.083-2.266-1.477-2.364a10.4,10.4,0,0,0-2.561-.2,4.3,4.3,0,0,0-1.674.591,5.413,5.413,0,0,1-2.757.689c-1.182,0-1.97.1-1.773-.492s.591-1.28-.2-1.28-2.659,0-3.743-.1-1.477-.69-2.954-.394-1.773,1.182-3.053.886-.1-1.773,2.561-2.757,3.841-2.462,4.137-3.349-3.275-2.487-4.383-2.561-1.108-.517-1.329.148-1.034,1.329-1.551.517-1.034-1.625-1.329-1.7-1.33-1.181-2.29,0-1.034,1.7-1.773,1.847a18.9,18.9,0,0,0-3.4.516,14.678,14.678,0,0,1-4.137.665c-1.034,0-2.069-.369-3.029.148s-1.477,1.181-1.256,1.773.591.886.369,1.7-.591.813-1.4,1.034-1.551,0-2.733.221-1.7-.96-1.92,0a2.183,2.183,0,0,0,1.108,2.437c.886.444,1.7.3,1.4,1.034s-1.33,1.108-1.773.739-.813-.96-1.7-1.034-.961-.516-1.847-.147-.295,1.625-.739,1.772-1.034-.443-.886-1.181.665-1.7,0-1.7-1.4-.3-1.256.812-.221,2.142,0,2.881.591,1.625.739,2.29.886.739,1.846,1.181,1.034,2.069,1.034,2.069-.517-1.256-1.256-1.182-1.551-.812-1.624,0,.369,1.108-.3,1.921a7.426,7.426,0,0,1-2.364,1.994c-.813.369-1.773.074-1.625-.3s1.7-.3,2.29-.813a2.057,2.057,0,0,0,.886-1.846,4.422,4.422,0,0,0-.739-1.846,4.852,4.852,0,0,1-.591-2.512c0-1.181-.591-.812-.3-2.068s.813-1.477.961-2.216.516-1.7-.3-1.773-1.477-.665-2.437-.148-1.4-.074-1.478,1.256.444,1.921-.074,2.659-1.108.074-.886,1.256a5.085,5.085,0,0,0,.886,2.511c.591.813,1.256,1.034,1.108,1.7s-.517,1.994-1.034.886a6.138,6.138,0,0,0-2.289-2.438,4.308,4.308,0,0,0-2.069-.812c-1.4-.221-1.92-.739-2.289-.221s.221.739.443,1.329.444.96-1.108,1.034-3.914.664-4.137.591.369-.886-.96-.886a3.988,3.988,0,0,0-2.807,1.108,17.533,17.533,0,0,1-2.586,1.477c-.96.591-2.437.517-2.807.813s-.148.517-.96.96-1.847-.074-2.216.3a10.239,10.239,0,0,1-1.772,1.92c-.739.444-1.33,0-1.625.591s1.181.961.664,1.551a1.9,1.9,0,0,1-2.437,0c-.591-.591-.369-.591-.517-2.142s.3-1.7-.443-2.437a2.622,2.622,0,0,1-.813-1.4,4.238,4.238,0,0,0,2.142,1.108c1.181.148,1.994.517,2.807.221a12.233,12.233,0,0,0,2.069-1.329c.739-.443,1.477-1.181.369-1.846a8.541,8.541,0,0,0-3.029-.96,13.371,13.371,0,0,1-3.1-1.182c-1.256-.591-1.625.221-2.142-.739s-.591-1.108-1.7-.96.96-1.256,0-1.551-1.256-.591-1.994-.443-.3-.148-1.551.591.813-1.034-.3-1.182-1.33.148-2.142.961a17.215,17.215,0,0,1-3.546,2.289,8.668,8.668,0,0,0-3.472,4.137,22.692,22.692,0,0,1-4.973,7.165c-1.872,1.575-4.137,1.083-4.333,2.068s-.591,3.546-.1,4.924.394,1.576,1.28,1.083a12.968,12.968,0,0,0,2.856-1.871c.788-.788,1.28-.985,1.576.1s1.083,2.758,1.378,3.743-.591,2.265.395,2.068a2.408,2.408,0,0,0,1.969-1.871,6.875,6.875,0,0,1,1.379-3.053,21.844,21.844,0,0,0,1.674-2.167c.1-.295-1.378-.788-1.378-1.575s.394-2.659,1.181-3.053,2.364-1.083,2.462-1.477-.394-1.773.295-2.462a2,2,0,0,1,2.758-.2c.788.788.788,1.576-.2,1.97s-.886,1.083-1.674,1.871-1.773.394-1.477,2.069-.1,3.348.985,3.052,2.561-.394,3.743-.591,2.659-.394,3.053.1-.69,1.181-1.871,1.181-2.856-.394-3.644.1-.493.591.1,1.575,1.182,1.281.493,1.773-1.477.886-1.773.2-.591-1.97-.985-.689a5.884,5.884,0,0,0,0,2.659c0,.69-.985,1.28-2.069,1.379s-1.575-.985-2.659.394-2.856.985-3.94.886a1.836,1.836,0,0,1-1.773-2.069c.2-1.083,1.083-1.969.886-2.856s-.788-2.266-1.379-1.28a3.363,3.363,0,0,0-.492,2.856,4.382,4.382,0,0,1,.1,2.266c-.1,1.083-2.659,1.28-3.053,1.477s-.295,1.97-.886,2.856-1.674.493-2.068.689-.985-.591-.985-1.28a5.111,5.111,0,0,0-.69-2.856,14.533,14.533,0,0,1-1.871-2.266c-1.084-1.575-1.773-1.477-1.281-2.167s.395-2.364-.295-2.462.394-1.576-1.083-1.182-2.266.69-1.97,1.773-.591,1.477.2,2.561.3.886,1.083,1.379,1.773-.1,1.379,1.378.295.985-.395,1.478-1.378-.395-1.083.591,1.97.689,1.872,1.28-.2.985-.69,1.181a15.636,15.636,0,0,0-1.773,1.083s-2.265,0-.985.69,3.545-.1,3.545-.1a18.125,18.125,0,0,1,3.152-.591c.492.1,1.181-.2,1.477,0s.69.591.1,1.083a3.654,3.654,0,0,1-1.871.886c-.69.1-1.378.1-1.674.69s-.69-.1-1.576.493.394,1.083,1.28,2.068,1.871,2.856,1.773,3.743.394,1.477-.69,1.674a14.623,14.623,0,0,1-3.25-.3c-.591,0-2.757-.886-2.954-.493s-1.28,1.084-.985,2.266-.1,2.954,0,4.333,1.083,1.674,1.969,1.97a16.708,16.708,0,0,0,3.053.591,3.371,3.371,0,0,0,2.954-.788,13.716,13.716,0,0,0,1.97-3.644c.69-1.576,1.872-4.235,2.659-4.629s2.167,0,3.25-.2.985-1.28,1.871.1,1.379,2.758,2.659,3.546,2.265,1.083,2.462,1.871a1.29,1.29,0,0,1-.886,1.773c-.985.394-2.069-.1-1.773.788a2.8,2.8,0,0,0,1.28,1.378,7.577,7.577,0,0,0,1.477-1.773c.2-.591.69-.492,1.379-1.378s1.28-1.674.492-2.364-1.871-.788-2.659-1.872-2.659-1.477-2.266-2.954.591-2.265,1.28-1.674-.394,1.871,1.576,3.053,3.151.492,3.348,1.871-.2,2.561.2,3.546,1.969,1.477,1.969,2.364,1.478,0,1.576-.69-.788-1.477-.3-2.757,1.083-1.675,2.167-1.477,2.266.394,2.364,0-.1-.69.1-2.364a5.351,5.351,0,0,1,1.182-3.348c1.083-1.773,1.674-2.069,2.364-1.773s1.575.69,1.181,1.083-1.477,0-.985,1.182,1.28,1.674,1.871,1.378,1.477-.394,1.182-1.181-.788-.394-.69-1.379.492-1.28.985-1.477,1.182-1.378,1.576-.3.2,1.675-.394,1.97-1.379-.591-1.083.591.788,1.084,1.378,1.379a6.275,6.275,0,0,1,1.576,1.379c.69.69,1.477.1,1.477,1.378s-.985,1.576-1.871,1.773-1.477.985-2.462.1-1.083-1.872-2.265-1.675-1.28.591-2.167,1.182a7,7,0,0,1-2.955.886c-1.477.295-2.167-.3-2.265.69a3.4,3.4,0,0,0,.493,2.068c.3.69-.3.591.3,1.477s2.561,1.674,3.25,1.28,1.182-1.181,1.674-.886,1.182,1.083,1.97.591,1.182-.394,1.28.395-.591,1.773-.985,3.053-.69,2.068-2.266,2.462a9.763,9.763,0,0,1-3.249.394,7.374,7.374,0,0,1-3.053-.492c-1.083-.394-1.182-1.28-2.561-1.28s-1.97-.395-2.364.394,0,1.181-.493,1.871-.394,0-2.462-.886a37.164,37.164,0,0,1-4.038-2.265c-.985-.493-.788-3.447-.985-3.94a1.529,1.529,0,0,0-1.773-.788c-.886.2-2.167.492-3.25.689a22.15,22.15,0,0,0-3.447.493c-.493.3-.591.886-2.069,1.083a8.117,8.117,0,0,1-2.364.2c-1.871,0-2.265-.492-2.856.394s-.493,1.675-.985,2.069-.788,0-1.181.886.739,1.871-.591,2.905-3.1,2.216-3.841,4.136-2.068,5.319-2.068,5.319,1.034-.3.591,2.216-1.034,3.4,0,4.875a58.051,58.051,0,0,0,4.727,6.057,19.968,19.968,0,0,0,3.1,1.773l6.205-1.181s3.693-1.33,5.022-.148,1.625.148,2.659,1.625,4.579,15.216,3.693,16.693-1.477,2.954-.739,4.727.739,4.432,1.33,5.909,1.034,2.216,2.216,4.58,0,3.25,1.625,4.136,2.068,1.478,4.284.886,3.4-1.92,5.023-2.659,3.1-1.773,3.25-2.807-.3-1.92,0-2.807.443-1.773,1.034-2.069,2.068-3.693,3.1-4.874,1.92-1.33,2.807-2.955,1.477-2.364.739-5.466-2.659-2.512-.739-5.466a32.545,32.545,0,0,1,4.432-5.762c1.92-2.068,4.874-5.466,5.17-5.909s1.625-2.217-.148-2.364-2.954,2.068-4.874-.148-1.478-3.1-3.989-5.909-3.546-3.545-4.137-6.057-1.33-4.432-.739-4.284,2.659,1.034,3.989,4.137,3.693,11.67,6.647,9.75,4.727-1.477,6.057-2.807,1.034-.591,3.1-2.364,3.4-2.364,2.364-3.545-1.182-2.364-2.807-2.069-2.068,1.477-3.4.886-1.182.3-2.512-2.364-4.432-3.693-1.625-3.25,3.4,1.329,4.727,2.069,3.4.295,5.318,1.181,4.284,1.625,5.319,1.477,1.181-1.034,2.216.739,2.068,2.659,2.364,3.546.739-2.216,1.329-.591-1.625,2.068.591,5.466,2.807,5.17,3.546,5.909,2.364-1.772,2.364-2.512-.739-1.92.148-3.249.886-1.773,2.954-2.659,2.068,0,3.4-2.216,2.806-2.955,3.841-2.216,1.625.443,1.921,2.511-.148,1.182.443,2.512,1.477-1.92,2.068,0,1.4,2.29,1.478,4.284-.369,4.21.516,4.727.591-.221,1.4.96.444.96,1.034,2.364a3.678,3.678,0,0,0,1.92,2.069.784.784,0,0,0,.69-.074c0-.443-.345-.443-.591-.985s-.049-1.28-.3-1.921a4.268,4.268,0,0,0-.886-1.477c-.247-.2-.739-.148-1.133-.837s-.64-.492-1.034-1.329-.788-.886-.689-1.477a2.706,2.706,0,0,1,.689-1.182s0-.936.395-1.23.788-.444,1.083-.1,1.034,1.132,1.428,1.526,1.034.1,1.23.739.1,1.477.247,1.822,1.477-.148,2.265-1.28,1.428-.985,1.576-2.217.345-1.92-.345-2.807-.837-1.231-1.428-1.921-1.181-.936-1.231-1.231.886-1.378,1.33-1.674a19.132,19.132,0,0,1,1.772-.886,11.89,11.89,0,0,0,1.823.2c.788,0,3.484-.455,3.816-.824s1.4-1.477,1.81-1.884.96-.886,1.4-1.329.628-.812,1.145-1.44a3.946,3.946,0,0,0,1-1.958,17.466,17.466,0,0,1-.5-2.511,4.314,4.314,0,0,0-.345-2.315c-.345-.591-1.132-.936-1.034-1.576s1.477-1.576,1.674-1.871.493-1.132,0-1.132-2.216.492-2.61.1-.64-.345-.64-.886a1.089,1.089,0,0,1,.394-.985c.2-.1,1.7-.2,2.068-.825s.776-1.477,1.219-1.218.517,1.329,1.477,1.218,1.81.185,1.81,1.034.259,1.256.7,1.4.444,1.256.444,1.256-.554,1.256-.332,1.772.295,1,.443,1.109.628.369.923.037.961-1.33.961-1.33a4.975,4.975,0,0,0,.074-1.662,4.252,4.252,0,0,0-.48-1.514,3.912,3.912,0,0,1-.812-1.071,1.422,1.422,0,0,1,0-1.034c.148-.369,1.071-.739,1.256-1.034s.185-.7.517-1.4.517-1.293,1.034-1.44a4.681,4.681,0,0,1,1.515.11c.3,0,.591.48,1.181-.074s3.14-2.524,4.173-4.641,2.315-5.367,2.315-5.367-.049-3.151-.148-3.694-.936-1.132-1.132-1.034a6.7,6.7,0,0,0-.69.492c-.345.247-1.181.739-1.477.345s-1.428-.591-1.428-1.772-.345-.886,1.674-2.019a18.454,18.454,0,0,0,4.777-3.5,3.868,3.868,0,0,1,3.841-1.477c1.576.2,3.545,0,4.038.788s.394,1.28,1.182.788a10.007,10.007,0,0,0,1.871-1.97,8.966,8.966,0,0,1,2.364-1.773c.788-.2,1.97-.69,2.266-.493a4.725,4.725,0,0,1,.788,1.083s.3.2.591-.394.394-1.477.985-1.083,1.378,2.364,0,3.152-3.349,2.265-4.432,3.053-2.757.492-2.954,1.378a11,11,0,0,0,.985,5.22c.788,1.477,1.182,3.25,2.167,2.364s1.182-2.266,1.576-3.349a22.257,22.257,0,0,1,1.576-2.561,19.583,19.583,0,0,0,.985-2.856s-1.773.3-1.773,0,.3-1.478,2.561-1.97,3.447-.886,4.136-.69a3.927,3.927,0,0,0,3.644-.886,6.68,6.68,0,0,1,3.053-1.97c.591-.1,1.477.69,1.773.1s-.394-1.675-.493-1.97-.492-.985.394-1.182,1.477.2,1.773-.492-.1-2.069.985-1.576,1.772.886,2.068,1.576-.3.886,1.182,1.083,1.181.591,1.969,0,.3-.985,1.477-.788.985-1.28.1-1.477" transform="translate(-108.934 -169.699)" fill="#0049a8"/>
            <path id="Trazado_655052" data-name="Trazado 655052" d="M244.818,292.388c-.369.074-.517.886-1.108,1.846a7.8,7.8,0,0,1-2.364,1.921s-1.7.369-1.625,1.108.665,1.4.591,2.216-.96.665-.96,1.846a8.556,8.556,0,0,0,.665,2.807c.369,1.329,2.659,1.92,3.25.664a11.3,11.3,0,0,0,1.329-4.136,38.736,38.736,0,0,1,1.034-4.506c.3-1.329.517-1.329.148-2.29a4.014,4.014,0,0,0-.96-1.477" transform="translate(-129.399 -212.95)" fill="#0049a8"/>
            <path id="Trazado_655053" data-name="Trazado 655053" d="M360.176,204.438a1.7,1.7,0,0,0,0,1.28,17.015,17.015,0,0,1,.69,1.872s.886-.3.69-.985a22.039,22.039,0,0,1-.395-2.265,10.651,10.651,0,0,1,.591-1.182c.394-.69.69-.591.492-1.871s-.591-1.477-.591-2.167-.2-.1,0-.69a8.616,8.616,0,0,1,.591-1.28c-.591.394-1.477-.2-1.28,1.674a10.32,10.32,0,0,1-.1,3.743c-.2.591-.69,1.871-.69,1.871" transform="translate(-163.038 -186.406)" fill="#0049a8"/>
            <path id="Trazado_655054" data-name="Trazado 655054" d="M357.493,216.94c-.1.394.788.985.788.985s.394-.886.69-.985a11.945,11.945,0,0,0,1.97-.69c.493-.295.493-.1,1.182-.2s.591-.886.591-1.477a1.938,1.938,0,0,1-1.379-.2c-.69-.394-.394-1.083-1.083-.985s-.3.689-.591,1.378-.591.394-1.28.69-.788,1.083-.886,1.477" transform="translate(-162.325 -190.931)" fill="#0049a8"/>
            <path id="Trazado_655055" data-name="Trazado 655055" d="M353.276,224.527l-1.182.493s-.492-.2-1.083.591a2.971,2.971,0,0,1-1.083.985s0-.69-.591-.591a3.336,3.336,0,0,0-1.477.591c-.394.295-.591.2-.69.591a2.233,2.233,0,0,1-.689,1.083,4.858,4.858,0,0,0-.591,1.871l1.576.591s.788-.886.591-1.28,0-1.28.394-.886-.3.69.591.69a5.827,5.827,0,0,0,2.068-.591,3.68,3.68,0,0,1,1.674-1.28c.985-.3,2.266,0,2.561-.3a1.272,1.272,0,0,0,.394-1.378,3.57,3.57,0,0,1-.2-2.069c.2-.886,0-1.28.395-1.97a1.479,1.479,0,0,0,0-1.378s-.591.69-1.083.492-.394-1.28-.493-.2a9.6,9.6,0,0,0,.3,2.561c.1.788-1.379,1.379-1.379,1.379" transform="translate(-159.093 -192.806)" fill="#0049a8"/>
            <path id="Trazado_655056" data-name="Trazado 655056" d="M334.819,246.03a3.4,3.4,0,0,0,.443-.739,2.365,2.365,0,0,0-.2-1.034,1.646,1.646,0,0,0-.886.3s-.443.837-.2,1.181a1.043,1.043,0,0,0,.837.3" transform="translate(-155.753 -199.535)" fill="#0049a8"/>
            <path id="Trazado_655057" data-name="Trazado 655057" d="M321.438,251.557l.2-.936c-.542.1-1.034-.394-1.526.049s-1.182.542-.591,1.083a2.26,2.26,0,0,0,1.231.591Z" transform="translate(-151.679 -201.27)" fill="#0049a8"/>
            <path id="Trazado_655058" data-name="Trazado 655058" d="M285.546,265.369a1.271,1.271,0,0,0-.739-.221,2.4,2.4,0,0,0-.148,1.994c.221.3.3,1.181,1.108.812s1.33-1.034.591-1.7a4.87,4.87,0,0,1-.812-.886" transform="translate(-141.985 -205.358)" fill="#0049a8"/>
            <path id="Trazado_655059" data-name="Trazado 655059" d="M371.306,281.651s1.625-1.379.641-1.28-.3.246-1.281.591a3.1,3.1,0,0,1-1.477.3c-.394,0,.247.493.247.493a3.585,3.585,0,0,0,1.871-.1" transform="translate(-165.551 -209.599)" fill="#0049a8"/>
            <path id="Trazado_655060" data-name="Trazado 655060" d="M358.037,150.532c.2.591.1,1.083.985,1.674a10.123,10.123,0,0,0,2.069.985c.1-.3-.591-.886-.886-1.379s-2.364-1.871-2.167-1.28" transform="translate(-162.475 -173.372)" fill="#0049a8"/>
            <path id="Trazado_655061" data-name="Trazado 655061" d="M367.613,149.373c.985.2,2.659.69,2.561.2a1.145,1.145,0,0,0-1.28-.985,12.157,12.157,0,0,1-2.659-.591c0,.591.394,1.182,1.378,1.379" transform="translate(-164.763 -172.705)" fill="#0049a8"/>
            <path id="Trazado_655062" data-name="Trazado 655062" d="M355.583,148.285s1.87-1.182,2.659-.985a6.34,6.34,0,0,0,2.167.394.809.809,0,0,0,.689-.591,3.722,3.722,0,0,0-2.068-1.477c-.591-.1-1.083.3-1.87.1s.591-.788-1.38-.493-2.659.591-2.167,1.477a5.173,5.173,0,0,0,1.971,1.576" transform="translate(-161.203 -171.913)" fill="#0049a8"/>
            <path id="Trazado_655063" data-name="Trazado 655063" d="M309,132.877a.7.7,0,0,0,.886.493,8.924,8.924,0,0,1,2.265.1,13.68,13.68,0,0,0,2.744-.377.465.465,0,0,0-.183-.017,5.818,5.818,0,0,1-1.969-1.379c-.886-.788-.69-1.575-2.462-.985a1.731,1.731,0,0,0-1.28,2.167" transform="translate(-148.793 -167.83)" fill="#0049a8"/>
            <path id="Trazado_655064" data-name="Trazado 655064" d="M298.539,125.805c-.148,1.108,1.4,2.364,1.4,2.364l2.437.739,2.586.221,1.181-.664c.3-.591.813-1.477-.3-1.921s-1.92.444-2.141-.886-.221-2.141-1.034-2.141-1.551-.148-2.142.812-1.846.369-1.994,1.477" transform="translate(-145.893 -165.88)" fill="#0049a8"/>
            <path id="Trazado_655065" data-name="Trazado 655065" d="M296.355,124.353c.3.3,1.256-.591,1.921-1.551a10.6,10.6,0,0,0-2.364.443c-1.108.369.148.812.444,1.108" transform="translate(-145.038 -165.684)" fill="#0049a8"/>
            <path id="Trazado_655066" data-name="Trazado 655066" d="M249.553,148.236c-1.7,1.108.517,1.773,1.034,2.216a8.265,8.265,0,0,0,2.511,1.33c1.33.516,1.478.3,1.109-.961s-1.109-1.477-1.256-3.324,1.773-1.846,1.773-1.846a33.706,33.706,0,0,0,1.994-2.954c.812-1.4.886-.3,2.142-1.478a10.768,10.768,0,0,1,3.324-2.068c.96-.444,3.214-.712,2.954-1.4-.221-.591-1.773-.148-3.1.369s-1.625.517-2.954.96a30.845,30.845,0,0,0-3.546,1.256c-1.921.813-1.994,1.7-3.176,2.364s-.517,1.624-.813,2.289-.3,2.142-1.994,3.25" transform="translate(-132.067 -169.771)" fill="#0049a8"/>
            <path id="Trazado_655067" data-name="Trazado 655067" d="M159.184,146.448c.3-1.181-.591-2.068,0-5.023s.591-3.545,1.773-4.727-1.034-3.989-.148-6.647,1.921-1.921,1.329-3.25-2.807-1.182-1.181-2.955a38.852,38.852,0,0,1,4.875-4.284,9.657,9.657,0,0,1,2.807-1.477,5.192,5.192,0,0,0-4.137-.591c-1.772.3-5.614.591-5.614.591l.886-2.659s-4.432-.886-6.5-1.477a73.96,73.96,0,0,0-7.978-1.182,3.244,3.244,0,0,1-2.363,2.069c-1.773.3-5.319-1.182-5.909.3s2.954,2.659,1.477,3.546-.886-1.773-6.5-1.773-10.932,3.546-10.341,5.023,3.546,1.181.886,2.659-2.364.886-4.432,1.773-4.727,2.364-4.727,2.364l5.022,4.727s5.319-2.068,7.977.886,4.137,4.137,4.137,6.5,3.25,3.25,3.25,5.023-2.364,1.181-2.954,3.545,1.181,6.205,3.545,8.273-.3,1.181,3.25,3.841,3.546,5.614,5.319,1.477-.591-6.8,1.477-7.977,5.613-1.181,5.909-2.659,1.182-3.25,2.659-3.546,5.909-1.181,6.2-2.364" transform="translate(-94.291 -162.887)" fill="#0049a8"/>
            <path id="Trazado_655068" data-name="Trazado 655068" d="M176.6,168.574s1.846-1.256-.3-1.477-2.068-.665-3.324-.148a9.288,9.288,0,0,0-2.29,1.108c-.443.369-.886.813-.886.813l-.813.369-.3-.961c-.295-.221-.739-1.181-1.256-.96s-2.216-1.625-.886.665a16.517,16.517,0,0,0,2.585,3.472s2.289.443,3.028.074,2.512-1.108,2.512-1.108Z" transform="translate(-108.971 -177.921)" fill="#0049a8"/>
            <path id="Trazado_655069" data-name="Trazado 655069" d="M93.785,124.042c1.181.985,2.266.394,4.432.2s1.773-.591,4.137-1.378-.394.985-1.575,1.674-2.659.1-4.727,1.083,1.083.788,1.674,1.28a.859.859,0,0,1-.394,1.477c-.591.1-1.97.69-1.478,1.773s1.576.788,1.28.886a20.265,20.265,0,0,0-2.265-.1c-1.773.1-.493.886.3,1.477s-.591.69-.591.69-.886,1.28-.689,1.576,1.477.295,3.151.2,1.181-.2,2.364-.69.788.394.788.394l2.462-.591.1-.886a9.612,9.612,0,0,1,.493-2.561,17.148,17.148,0,0,1,2.266-1.182,3.389,3.389,0,0,1,.295-1.969,1.48,1.48,0,0,1,1.576-.886l3.743-1.872a18.6,18.6,0,0,0,2.167-2.856c.394-.886-1.478-1.083-1.182-1.181a16.564,16.564,0,0,0,2.954-.1c1.182-.3,1.28-1.083,1.576-1.378l-1.674-.69a49.686,49.686,0,0,0-6.6-.886,16.093,16.093,0,0,0-4.924.591s-2.757.69-2.954,1.083,1.773,2.069,1.773,2.069S99.891,120.4,99,119.9s-2.954.493-6.4,2.167,0,.985,1.182,1.97" transform="translate(-88.082 -164.215)" fill="#0049a8"/>
            <path id="Trazado_655070" data-name="Trazado 655070" d="M114.137,245.094c-1.477-1.108-2.512-.369-3.546-1.182a14.286,14.286,0,0,0-3.989-1.994c-1.772-.664-2.289-.443-3.324-1.329a10.9,10.9,0,0,1-2.142-2.364,12.63,12.63,0,0,0-1.92-2.29c-1.182-1.181-1.256-.516-3.546-1.108s-1.181-.812-2.437-1.994-.813-.739-2.438-1.551-.96-.3-2.954-.665a40.941,40.941,0,0,0-4.062-.517c-1.921-.221-1.551.3-3.029.665s-1.034,1.477-1.625,1.551-.665-.3-1.4-.37-1.256.148-2.659,0-.886-.369-1.33-.664-.664-1.477-.664-1.846a16.83,16.83,0,0,0,.295-2.733c-.074-1.034-.739-.591-1.551-.517a5.279,5.279,0,0,1-2.807-.591c-.369-.369.566-1.181.763-1.772a2.128,2.128,0,0,0-.591-2.561c-1.083-.886-1.181.886-1.477,1.378a3.957,3.957,0,0,1-3.151,1.379c-1.478-.1-2.266-1.182-2.955-1.674a3.188,3.188,0,0,1-1.378-1.675,4.875,4.875,0,0,1,0-2.659c.3-.69,1.378-1.675.492-2.364s-.394-.985-.2-1.478,2.462-1.181,3.447-1.378,1.083.493,1.773.788a2.492,2.492,0,0,0,2.364,0c.985-.492,0,0-.394-.591s-.394-.788.394-.886a3.657,3.657,0,0,1,1.871.591,19.841,19.841,0,0,0,2.364-.886c.493-.3,1.478,2.069,1.576,2.561a22.455,22.455,0,0,0,.591,2.954c.2.295,1.379,0,1.379-.69s-1.083-5.515-.788-6.2,1.378-1.182,2.954-2.462.886-1.378.886-1.378.1-2.364.2-3.842.788-.2.788-.2a2.109,2.109,0,0,0,.985-1.575c.1-1.083.492-.788,1.575-1.28s.886-.3,1.576-.886a1.663,1.663,0,0,0,.591-1.379,2.58,2.58,0,0,1,.591-1.674c.69-.985,1.182-.394,2.266-1.083s.493-.69,1.477-1.576.69.985.69.985-1.674,1.575-.886,1.871.493-.3,1.379-.69a3.767,3.767,0,0,0,1.773-1.181c.591-.69.394-.3,1.181-.69s1.083-.3.493-1.773-.493.886-.493.886-1.181.69-1.181,0-1.182.3-1.576-.394a4.261,4.261,0,0,1-.788-1.871c0-.591.395-.1.886-1.281s-.394-.689-1.28-.788-.886.591-2.265,1.379a13.4,13.4,0,0,0-2.856,2.561,16.972,16.972,0,0,1,1.674-2.659,7.127,7.127,0,0,1,2.659-2.462,7.974,7.974,0,0,1,3.841-.3,21.094,21.094,0,0,0,4.26-.837c.739-.443,1.034-.369,1.181-.812a2.91,2.91,0,0,0-.517-2.438c-.664-.739-2.807-.147-2.659-.664s1.7-.3,1.477-1.182-1.4-.517-2.585-.886-.813-1.4-.886-2.437a16.2,16.2,0,0,0-1.33-3.915c-.664-1.7-.591-.886-1.625-.295s-.664,1.4-1.108,2.068-1.4.369-2.068.148-.886-.369-.886-1.773-.517-1.108-1.625-2.068-1.256-.591-2.142-.886-2.437-.96-3.25-.591-.369,1.625-.739,4.062.886,2.142,1.182,2.954-.444,1.773-1.478,2.216-.074,2.364.3,3.62.148,2.437-.665,2.437-.443-.369-1.181-.96-1.108-.591-1.034-1.256A4.394,4.394,0,0,0,74.4,181.2c-.221-.517-1.994-.369-1.994-.369a11.6,11.6,0,0,1-2.29-1.846c-1.034-1.109-2.585-.739-2.954-.813a3.059,3.059,0,0,1-2.266-1.526c-.542-1.182-.689-.148-1.822-1.231s.3-2.807.3-2.807,1.182-2.167,1.871-3.1,3.1-.886,3.644-1.181.444-.3.69-1.428-.739-.493-1.526-.69-1.034-.542-.936-.985.886-.05,1.772-.148,1.133.246,1.823-.148-.345-.2-.591-1.034.739-.049,1.28-.2.837.444,2.462.345.837-.394.788-1.182a6.083,6.083,0,0,1-.049-2.167c.2-1.181.394-1.23-.3-2.166s-1.378-.345-2.708-.247-.147.936-.345,1.576a9.7,9.7,0,0,0-.049,2.118c-.049.886-1.083,1.378-2.265.147s-.05-1.969.1-2.659.837-.739,1.526-1.477.788-.247,1.379-.591.886-.049,1.921-.2a6.788,6.788,0,0,0,2.019-.542c.936-.345.985-.2,2.413-.049s.739.69,1.28,1.428a8.935,8.935,0,0,0,2.216,1.871,5.553,5.553,0,0,1,2.068,1.822c.542.936.049,1.379-.591,2.659s-1.33,1.231-2.462,1.329-2.462.1-2.807.493.394,1.083,1.083,1.231a3.141,3.141,0,0,0,2.068-.394,1.486,1.486,0,0,1,1.674.049c.69.345.739,1.428,1.379,2.315a2.857,2.857,0,0,0,2.068,1.23c.591.05,1.379-.492,1.28-.936s-.739-1.132-.295-1.329.739,1.034,1.378.985.985-.591.788-1.822-.788-1.083-1.379-1.723-1.477-.788-1.576-1.576.591-.886,1.33-1.083a1.091,1.091,0,0,1,1.132.3s.788,1.92,1.526,2.068.788-.3,1.28-1.526.493-1.477-.147-2.266-1.921-.492-2.757-1.28-.886-.69-1.576-.788-.542-.542-.345-.886,1.379-.246,1.379-.739-1.182-1.674-1.823-2.512-2.61-1.428-3.939-1.477-.985-.542-1.428-1.576-.936-.443-1.527-.64-1.97.443-3.1.739-.936-.1-1.822-1.28a15.486,15.486,0,0,0-1.723-2.118c-.69-.69-2.905-.64-3.792.049s-.345,1.822-.837,2.61a6.837,6.837,0,0,0-1.132,3c-.2,1.428,1.28,1.822,1.871,1.921s.739.886.3,1.576a13.869,13.869,0,0,1-1.28,1.575,2.262,2.262,0,0,1-1.428-.788c-.394-.64-.985-.345-.739-1.182s0-.739-.591-2.462-.739-.69-1.28-1.33-.3-1.28,0-2.167,1.329-.049,2.068-.837.3-1.083.2-1.773-.739-.3-1.674-.246-1.034.739-1.773,1.329-.246,1.132-.2,1.922a10.391,10.391,0,0,1-.148,2.757c-.2.788-.714,2.216-.714,2.216s.444,1.108.961,1.182a3.5,3.5,0,0,1,1.624.443c.3.3-.074,1.108-.369,1.994s-.739.444-.886.886-.3,1.256-.813,1.477-.369-.3-.517-1.4.739-.664,1.182-1.329-.813-1.4-1.477-1.994-1.256.074-1.7,1.256.444.96.148,1.256-.074,1.034-.665,1.477-1.181.148-3.1-.295-.739-.444-3.029-1.4-1.181.369-1.329,1.4-.148,1.772-1.108,1.7-.665-.3-1.7-.739-2.069.148-2.586-.591A2,2,0,0,0,44.778,162a21.267,21.267,0,0,0-2.289-1.7c-1.182-.739-3.694.148-5.318-.147a27.962,27.962,0,0,1-3.029-.739,2.9,2.9,0,0,0-2.142.664c-.812.813-3.472.886-3.472.886a15.77,15.77,0,0,1-2.068,1.477c-.739.369-.517-.221-1.4-.812s-2.364-.074-4.137-.369-2.512,0-5.318,0-3.324-.813-5.171-1.256a3.064,3.064,0,0,0-3.176.591c-.886.591-3.029,2.511-5.023,3.176s-1.182.739-1.034,1.478a3.589,3.589,0,0,0,1.182,1.994c.739.739,1.477,0,2.216,0s.3,1.108.3,1.108a7.271,7.271,0,0,1-1.994.443c-.813,0-1.33-.591-1.7-.664s-1.034.739-1.181,1.7.739,1.108,1.4,1.182,2.438-.813,3.25-1.034,1.108.886,1.108.886a7.973,7.973,0,0,1-2.068,1.181A5.126,5.126,0,0,0,.9,174.11c-.813,1.181-.37,2.659,1.108,2.733s1.625.221,2.289,1.329,1.33,0,3.029.148,1.181.148.664,1.773S4.3,181.571,3.34,181.94.607,183.786.681,184.377s1.994-.443,3.4-1.034a17.666,17.666,0,0,0,4.727-2.216c1.773-1.329,1.256-1.773,1.846-3.324a5.953,5.953,0,0,1,2.364-2.881c.886-.665,1.33-.517,1.551-.074s-.591,1.181-1.625,1.92-.074.886,1.329.3,1.182-1.108,2.733-1.7,1.034.222,1.773.37,1.846.295,1.846.295,1.477.3,3.1.665,2.069.591,3.472,2.585a6.157,6.157,0,0,0,2.954,2.438,2.714,2.714,0,0,1,1.7,2.141c.3,1.7,1.4,2.217,2.29,3.472a2.382,2.382,0,0,0,2.512.96c.591,0,1.4,1.034,1.4,1.034l.147,2.585.074,3.914s-.961,4.284-.665,5.762a21.285,21.285,0,0,0,2.068,4.579c.665,1.33,1.33,1.207,2.019,1.4s1.478,1.674,2.069,2.856,1.773,3.25,2.561,5.121a8.768,8.768,0,0,0,2.856,3.25,9.808,9.808,0,0,0-.2-2.068,45.89,45.89,0,0,0-2.856-4.53,1.6,1.6,0,0,1,0-1.872.914.914,0,0,1,.591.3c.3.3,1.379,2.954,1.674,3.25s1.379,1.871,2.659,3.151a23.865,23.865,0,0,1,2.167,2.757c.985,1.182,0,1.576,1.477,2.955a8.732,8.732,0,0,0,4.235,2.462c1.281.2,1.872.2,2.955.394s1.576.886,2.068.985,2.955.591,4.235.985,1.97,1.576,2.757,2.659,1.28,2.364,3.348,3.348,1.675,0,2.069-.591a1.438,1.438,0,0,1,2.364.788c.394,1.378-1.379,5.121-1.379,5.121s-2.364,3.743-2.167,5.909,2.364,2.561,3.546,6.5,4.53,3.743,5.515,6.5,0,10.834,0,10.834l-2.561,11.818S80.5,288.33,80.7,291.284s2.561,3.348,3.545,4.333S89.171,297,90.353,296.8c0,0,.542.049.1-.2a7.362,7.362,0,0,0-2.61-1.28c-1.379-.3-.985-.739-1.379-1.379a4.8,4.8,0,0,1-.443-3.25c.2-1.723.64-.985,1.034-1.575s1.427-.837,1.625-2.118-.2-.443-.394-2.068.788-.591.985-1.133-.3-2.364.443-3.052,1.33.1,1.97-.493-.049-.542-.148-1.034.05-.542.3-1.083.69-.788,1.28-1.231.788.05,1.871-.049.911-1.994,1.8-2.659.813-.3,1.7-.886a11.373,11.373,0,0,0,2.511-2.069,5.271,5.271,0,0,0,1.773-2.437,13.621,13.621,0,0,0,1.108-3.25c.369-1.7,1.108-1.256,1.7-1.773s1.994-1.994,3.1-3.25,1.477-.3,2.364-.369,1.329-.739,1.4-2.216.221-2.364.221-3.841.591-1.4,1.477-2.586,1.994-1.181,1.994-3.841-.517-1.477-1.994-2.585" transform="translate(-62.688 -172.895)" fill="#0049a8"/>
            <path id="Trazado_655071" data-name="Trazado 655071" d="M133.609,200.761c-.246-.148-.788.69-1.034,1.181a18.29,18.29,0,0,0-1.181,2.266c-.345.936,1.329.936,1.773,1.083a8.452,8.452,0,0,0,2.166.246c.788,0,.738,1.01,1.478.886.295-.049.1-.739.049-1.132a4.968,4.968,0,0,0-.493-1.625c-.295-.542-.64-.3-1.28-.739s-.492-.886-.739-1.477-.493-.542-.739-.69" transform="translate(-99.296 -187.408)" fill="#0049a8"/>
            <path id="Trazado_655072" data-name="Trazado 655072" d="M119.456,257.957c-.591,0-.64-.615-.862-.148s-.369.616.049.763.517.32.813.123.542-.025.542-.493-.542-.246-.542-.246" transform="translate(-95.681 -203.264)" fill="#0049a8"/>
            <path id="Trazado_655073" data-name="Trazado 655073" d="M111.015,256.094c.493.369.64.1,1.256-.025a1.843,1.843,0,0,1,1.083-.049,5.123,5.123,0,0,0,1.576-.074.512.512,0,0,0,.147-.27c0-.123-1.058-.1-1.058-.1a5.411,5.411,0,0,1-.419-1.256c-.172-.788-.566-.32-1.822-.295s-.467.394-.615.985-.468.221-.862.418.221.3.714.665" transform="translate(-93.395 -202.213)" fill="#0049a8"/>
            <path id="Trazado_655074" data-name="Trazado 655074" d="M107.145,251.12c.615.369.763.074.985.049a2.636,2.636,0,0,0-.074-.886c-.123-.443-.345-.467-.591-.763s-.641-.3-1.108-.763a16.112,16.112,0,0,1-1.133-1.8c-.295-.369-1.058-.295-1.428-.32s-1.3-.025-1.6,0-.395.247.049.566.542,0,1.132.025.542.172,1.158.64a2.524,2.524,0,0,1,.861,1.5,5.574,5.574,0,0,0,1.748,1.748" transform="translate(-91.101 -200.194)" fill="#0049a8"/>
            <path id="Trazado_655075" data-name="Trazado 655075" d="M104.83,254.981c.665.025.936.1.985-.148s-.246-.517-.246-.517c-.246-.147-.394-.394-.665-.246s-.566.27-.467.468-.271.418.394.443" transform="translate(-91.79 -202.258)" fill="#0049a8"/>
            <path id="Trazado_655076" data-name="Trazado 655076" d="M105.7,178.559c-.148.3-.259,1.145-.037,1.181s.7-.074.775-.406.258-.664-.037-.739a2.563,2.563,0,0,0-.7-.037" transform="translate(-92.101 -181.222)" fill="#0049a8"/>
            <path id="Trazado_655077" data-name="Trazado 655077" d="M100.543,177.914c-.3.111.037.628.406,1.182s.591-.259.813-.48.554-.369.7-.7a5.119,5.119,0,0,1-.85-.185,1.844,1.844,0,0,0-1.071.185" transform="translate(-90.679 -180.983)" fill="#0049a8"/>
            <path id="Trazado_655078" data-name="Trazado 655078" d="M102.9,174.577c.333-.443-.443-.443-.96-.7a7.885,7.885,0,0,1-1.736-1.588c-.7-.739-.665-.516-1.256-.591s-.369.185-.591.406a5.615,5.615,0,0,0-.591,1.108,8.607,8.607,0,0,0,.258,1.994c.259.924.517.924,1.108.961s.591-.444,1.034-.7a6.734,6.734,0,0,1,.775-.591c.406-.259.517.148.813.221a1.218,1.218,0,0,0,1.145-.517" transform="translate(-89.938 -179.308)" fill="#0049a8"/>
            <path id="Trazado_655079" data-name="Trazado 655079" d="M110.923,167.561a1.038,1.038,0,0,0,.517-.96c-.074-.407-.333-1-.665-1.071-.65-.145-.812-.074-.96.333s-.406.849-.074,1.218.886.7,1.182.48" transform="translate(-93.229 -177.574)" fill="#0049a8"/>
            <path id="Trazado_655080" data-name="Trazado 655080" d="M104.283,151.377c.333.185.96.517,1.4.333a6.43,6.43,0,0,0,1.256-.48c.185-.185.812-.554.591-.739a1.524,1.524,0,0,0-1.108-.3,2.613,2.613,0,0,1-1-.11s-1.218-.3-1.293-.074c-.11.333-.185,1.182.148,1.367" transform="translate(-91.686 -173.244)" fill="#0049a8"/>
            <path id="Trazado_655081" data-name="Trazado 655081" d="M89.07,144.123c.1.444,0,1.181,1.329,1.231a21.4,21.4,0,0,0,3.94.1c1.183-.2,3.3.05,3.644-.2a12.993,12.993,0,0,0,1.231-1.28,7.34,7.34,0,0,0,1.38-.443c.147-.148.049-.739.049-.739a2.068,2.068,0,0,0-1.921-.739,12.61,12.61,0,0,0-2.905.541,6.64,6.64,0,0,1-2.413.837c-1.132.05-2.067.3-2.413-.443s.3-.64.395-1.133.294-.837-1.035-.985a6.179,6.179,0,0,0-2.265-.1c-.641.148-1.182-.394-1.724-.3s-.985-.2-1.034.443,1.527,1.231,1.971,1.133,1.821-1.182,1.87.049-.2,1.575-.1,2.019" transform="translate(-86.469 -170.607)" fill="#0049a8"/>
            <path id="Trazado_655082" data-name="Trazado 655082" d="M86.349,144.8c-.246.394-.886.542-.3.985s1.083,1.083,1.527.542.64-.69.591-1.083a1.328,1.328,0,0,0-.345-.69c-.493-.1-1.231-.148-1.477.246" transform="translate(-86.604 -171.727)" fill="#0049a8"/>
            <path id="Trazado_655083" data-name="Trazado 655083" d="M86.881,129.99a10.33,10.33,0,0,0,1.179-.041c1.252.016.5.656-.023.664a.3.3,0,0,0-.285.217c-.364,1.231,1.859,2.05,2.766,1.916.994-.146,1.188-.591,1.969-1.157.59-.427,1.415-.417,1.568-1.235.111-.592-.172-.865-.511-1.255a8.557,8.557,0,0,1-.792-.868c-.1-.159-.032-.221-.167-.374a2.061,2.061,0,0,0-.64-.535c-.855-.458-1.736-.919-2.607-1.324a3.426,3.426,0,0,0-2.224-.444.3.3,0,0,0-.266.225,2.278,2.278,0,0,0-.882,1.753c.09.709.317-.011.184.5-.012.048-.214.043-.228.092-.072.265-.262.36-.279.69-.043.781.532,1.089,1.239,1.178" transform="translate(-86.557 -166.442)" fill="#0049a8"/>
            <path id="Trazado_655084" data-name="Trazado 655084" d="M85.69,136.515c.193.042.428-.014.6.087a.271.271,0,0,0,.347-.053.223.223,0,0,0,.161-.2c.06-.426.206-.9-.156-1.237a1.074,1.074,0,0,0-.7-.239c-.216-.016-.4-.122-.6.037a1.125,1.125,0,0,0-.127,1.265.683.683,0,0,0,.471.338" transform="translate(-86.402 -169.035)" fill="#0049a8"/>
            <path id="Trazado_655085" data-name="Trazado 655085" d="M91.463,138.143a.3.3,0,0,0,.046-.358.783.783,0,0,0-.6-.41.221.221,0,0,0-.231-.027c-.047,0-.092-.009-.14-.009a.263.263,0,0,0-.27.2c-.138.043-.281.075-.4.11a.9.9,0,0,1-.4.03.868.868,0,0,0-.26-.02.307.307,0,0,0-.295.3c-.058.519.668.643,1.037.688a1.766,1.766,0,0,0,1.513-.5" transform="translate(-87.468 -169.732)" fill="#0049a8"/>
            <path id="Trazado_655086" data-name="Trazado 655086" d="M263.344,123.345a.727.727,0,0,0,.839-.082,1.053,1.053,0,0,0,.2-.05,4.753,4.753,0,0,0,.718-.23.476.476,0,0,0,.336-.027.793.793,0,0,0,.321-.411.257.257,0,0,1,.023-.016.26.26,0,0,0,.114-.123.255.255,0,0,0,.254-.28c0-.043-.005-.085-.007-.127a.3.3,0,0,0-.444-.255.905.905,0,0,0-.356.359c-.121.074-.236.148-.35.217-.377-.1-.6.108-.877.3a.385.385,0,0,1-.087,0,2.676,2.676,0,0,0-.33-.11.468.468,0,0,0-.356.833" transform="translate(-136.032 -165.378)" fill="#0049a8"/>
            <path id="Trazado_655087" data-name="Trazado 655087" d="M259.568,123.1a.564.564,0,0,0,.36.706.973.973,0,0,0,.477-.006,1.837,1.837,0,0,0,.26-.094c.047-.017.093-.036.139-.055a.282.282,0,0,0,.283.017.33.33,0,0,0,.112-.517c.195-.2.04-.613-.27-.5a.893.893,0,0,0-.252.14c.014-.018.007-.037-.041-.059a.723.723,0,0,0-.467-.237c-.361-.026-.54.294-.6.6" transform="translate(-135.029 -165.598)" fill="#0049a8"/>
            <path id="Trazado_655088" data-name="Trazado 655088" d="M256.758,121.082c.189-.069.358-.135.546-.192.216-.066.269-.184.426-.335a.288.288,0,0,0,.066-.1,1.562,1.562,0,0,1,.828.025c.358.13.512-.441.157-.57a2.092,2.092,0,0,0-1.169-.014c-.122.025-.537.19-.777.232a.307.307,0,0,0-.542-.052,2.009,2.009,0,0,0-.146.4.287.287,0,0,0-.105.22c.014.412.385.5.716.379" transform="translate(-134.051 -164.854)" fill="#0049a8"/>
            <path id="Trazado_655089" data-name="Trazado 655089" d="M254.731,123.229c.128-.013.245-.025.372-.028a.593.593,0,0,0,.214-.04l.052-.024a.3.3,0,0,0,.431-.393l-.069-.131a.292.292,0,0,0-.255-.146c-.016,0-.027.007-.042.009a.6.6,0,0,0-.151-.073,1.682,1.682,0,0,0-.24-.038,2.332,2.332,0,0,0-.475-.023c-.311.025-.685.2-.549.574.107.3.437.34.712.313m-.167-.588-.022,0c0-.014.009-.032.022,0" transform="translate(-133.479 -165.554)" fill="#0049a8"/>
            <path id="Trazado_655090" data-name="Trazado 655090" d="M256.36,124.6a.862.862,0,0,0-.342-.04c-.1.02-.2.142-.289.144a.3.3,0,0,0,0,.591,1.01,1.01,0,0,0,.343-.1c.129-.044.212.017.359.014.282-.005.453-.247.705-.3.373-.071.215-.64-.157-.57-.216.042-.4.285-.62.255" transform="translate(-133.884 -166.113)" fill="#0049a8"/>
            <path id="Trazado_655091" data-name="Trazado 655091" d="M241.641,123.384c.027,0,.053.006.079.009h.011a13.944,13.944,0,0,0,1.509.074,3.409,3.409,0,0,1,.853.038c.277.114.369.322-.084.4-.32.056-.238.475,0,.57a1.987,1.987,0,0,0,.682.115.294.294,0,0,0,.255-.146,2.109,2.109,0,0,0,.14-.281.5.5,0,0,0,.219-.387.934.934,0,0,1,.471-.211,6.671,6.671,0,0,1,.747-.093l.472.143c.03.064-.1.222-.056.286.285.431.2.485.812.541a.288.288,0,0,0,.255-.146c.014-.028.032-.066.051-.107.215.333.369.4,1.034.354.377-.027.38-.619,0-.591-.417.03-.586-.167-.779-.483a.3.3,0,0,0-.465-.06c-.441.423-.035,0-.3-.483a1.069,1.069,0,0,0-1.232-.473,10.556,10.556,0,0,0-1.874.1.3.3,0,0,0-.269.24c-.33-.11-.529-.343-.94-.313-.536.04-.907.38-1.509.327-.329-.028-.408.524-.079.581" transform="translate(-129.978 -165.579)" fill="#0049a8"/>
          </g>
        </g>
        <g id="Grupo_956783" data-name="Grupo 956783">
          <g id="Grupo_956782" data-name="Grupo 956782" clip-path="url(#clip-path)">
            <g id="Grupo_956778" data-name="Grupo 956778" transform="translate(88.597 131.457)" style="mix-blend-mode: multiply;isolation: isolate">
              <g id="Grupo_956777" data-name="Grupo 956777">
                <g id="Grupo_956776" data-name="Grupo 956776" clip-path="url(#clip-path-5)">
                  <path id="Trazado_655093" data-name="Trazado 655093" d="M268.463,182.254A108.3,108.3,0,0,1,122.832,252.5a108.2,108.2,0,0,0,190.505-70.249Z" transform="translate(-122.832 -182.254)" fill="#71c9ff"/>
                </g>
              </g>
            </g>
            <path id="Trazado_655094" data-name="Trazado 655094" d="M195.119,166.052c-59.761,0-108.208,5.232-108.208,11.686s48.446,11.686,108.208,11.686,108.208-5.232,108.208-11.686-48.446-11.686-108.208-11.686" transform="translate(-24.224 -46.281)" fill="#3dacff"/>
            <g id="Grupo_956781" data-name="Grupo 956781" transform="translate(140.41 119.771)" opacity="0.4" style="mix-blend-mode: screen;isolation: isolate">
              <g id="Grupo_956780" data-name="Grupo 956780">
                <g id="Grupo_956779" data-name="Grupo 956779" clip-path="url(#clip-path-6)">
                  <path id="Trazado_655095" data-name="Trazado 655095" d="M225.152,166.052c-10.586,0-20.815.165-30.485.471,44.917,1.422,77.723,5.9,77.723,11.215s-32.805,9.794-77.723,11.215c9.67.306,19.9.471,30.485.471,59.761,0,108.208-5.232,108.208-11.686s-48.446-11.686-108.208-11.686" transform="translate(-194.667 -166.052)" fill="#3dacff"/>
                </g>
              </g>
            </g>
            <path id="Trazado_655096" data-name="Trazado 655096" d="M184.447,187.241q9.536-.339,19.049-.356c6.345-.038,12.686.037,19.027.106,6.341-.087,12.682-.152,19.027-.12q9.517.014,19.05.354-9.5.644-19.027.961c-6.348.236-12.7.373-19.05.489-6.351-.1-12.7-.249-19.049-.48q-9.522-.316-19.027-.955" transform="translate(-51.408 -52.082)" fill="#71c9ff"/>
            <path id="Trazado_655097" data-name="Trazado 655097" d="M178.972,176.692q-8.278.691-16.545,1.213c-5.51.384-11.021.723-16.507,1.21-2.742.229-5.487.493-8.179.9-.672.1-1.34.213-1.989.354-.325.07-.642.15-.943.241a3.174,3.174,0,0,0-.729.3.046.046,0,0,1-.019.013c.017-.012.01-.012.035-.049a.468.468,0,0,0,.019-.389c-.117-.186-.034-.049.053-.017a4.706,4.706,0,0,0,.809.33,19.96,19.96,0,0,0,1.937.492c2.667.537,5.41.9,8.144,1.258,2.735.387,5.485.666,8.231,1.029a118.948,118.948,0,0,1-16.615-.993,21.4,21.4,0,0,1-2.1-.431,5.54,5.54,0,0,1-1.118-.426,1.458,1.458,0,0,1-.7-.7,1.035,1.035,0,0,1,.068-.886,1.413,1.413,0,0,1,.37-.409,4.157,4.157,0,0,1,1.152-.552c.357-.12.708-.218,1.057-.3.7-.173,1.389-.309,2.081-.434,2.767-.468,5.529-.744,8.292-1,5.529-.457,11.06-.725,16.595-.841q8.3-.2,16.6.1" transform="translate(-36.982 -49.198)" fill="#71c9ff"/>
            <path id="Trazado_655098" data-name="Trazado 655098" d="M244.1,176.06c-2.9.332-5.8.5-8.7.605-2.9.127-5.795.113-8.692.172-2.9.008-5.793-.006-8.692-.117s-5.8-.262-8.7-.59c2.893-.374,5.791-.58,8.691-.726s5.8-.216,8.7-.252,5.8.061,8.7.2,5.8.34,8.694.705" transform="translate(-58.34 -48.817)" fill="#71c9ff"/>
            <path id="Trazado_655099" data-name="Trazado 655099" d="M303.475,183.61c2.684-.361,5.371-.637,8.044-1.02,2.672-.35,5.351-.715,7.959-1.237.648-.136,1.293-.288,1.9-.477a5.5,5.5,0,0,0,.819-.318,1.894,1.894,0,0,0,.163-.1.227.227,0,0,0-.054.1.482.482,0,0,0-.027.212.61.61,0,0,0,.048.16.14.14,0,0,0,.032.042l0,.005a1.332,1.332,0,0,0-.213-.116c-.118-.053-.255-.1-.4-.15-.286-.094-.6-.171-.91-.245-.63-.142-1.282-.256-1.937-.357-2.627-.405-5.309-.674-7.987-.9-5.358-.532-10.757-.726-16.141-1.091q-8.081-.506-16.162-1.34,8.11-.149,16.228.026c2.706.036,5.409.135,8.114.2,2.7.086,5.405.312,8.109.524,2.7.261,5.4.534,8.105,1.008.676.125,1.352.263,2.035.438.343.092.685.187,1.037.314.177.066.356.136.545.227a2.2,2.2,0,0,1,.63.434l.088.094c.035.048.067.1.1.151a.942.942,0,0,1,.134.395.993.993,0,0,1-.052.459,1.31,1.31,0,0,1-.178.315,1.933,1.933,0,0,1-.654.485,6.03,6.03,0,0,1-1.079.383c-.695.181-1.374.305-2.053.414a117,117,0,0,1-16.24.968" transform="translate(-77.653 -49.251)" fill="#71c9ff"/>
            <path id="Trazado_655100" data-name="Trazado 655100" d="M276.807,186.158c6.267-.53,12.535-.967,18.785-1.59,6.251-.568,12.5-1.211,18.7-2.036,3.1-.428,6.188-.906,9.222-1.518a38.685,38.685,0,0,0,4.423-1.143,8.189,8.189,0,0,0,1.852-.836,1.313,1.313,0,0,0,.234-.194c.035-.042-.009-.024-.035.123a.375.375,0,0,0,.017.206c-.018.029.048.086.019.067a.934.934,0,0,0-.16-.135,7.445,7.445,0,0,0-1.792-.8c-.694-.234-1.424-.432-2.163-.614-1.484-.356-3-.646-4.534-.9-3.063-.508-6.164-.894-9.271-1.231-6.214-.7-12.464-1.2-18.72-1.626-6.255-.462-12.522-.78-18.79-1.127q-9.4-.47-18.819-.863c-6.276-.317-12.557-.49-18.841-.778,12.568-.488,25.152-.622,37.732-.33,12.581.276,25.16.88,37.717,2.212,3.137.361,6.272.769,9.406,1.309,1.567.27,3.133.579,4.7.965.785.2,1.571.416,2.364.688a8.924,8.924,0,0,1,2.452,1.2,2.81,2.81,0,0,1,.335.289,2.416,2.416,0,0,1,.339.4,2.323,2.323,0,0,1,.291.587,2.032,2.032,0,0,1,.061.788,2.149,2.149,0,0,1-.564,1.154,3.694,3.694,0,0,1-.669.558,10.244,10.244,0,0,1-2.442,1.075,40.637,40.637,0,0,1-4.719,1.129c-3.135.588-6.273.973-9.413,1.3a374.222,374.222,0,0,1-37.718,1.676" transform="translate(-66.037 -47.57)" fill="#71c9ff"/>
            <path id="Trazado_655101" data-name="Trazado 655101" d="M163.019,191.114c4.467-.269,8.914-.334,13.357-.346,2.222-.029,4.441.025,6.662.025l6.658.117,6.656.208c2.218.112,4.437.166,6.656.309,4.439.238,8.878.539,13.323,1.066-4.445.526-8.9.775-13.346.907-2.226.092-4.45.082-6.676.111-2.225,0-4.45-.04-6.675-.076-2.224-.078-4.449-.144-6.671-.257-2.222-.137-4.445-.242-6.664-.446-4.439-.36-8.872-.843-13.28-1.619" transform="translate(-45.436 -53.168)" fill="#71c9ff"/>
            <path id="Trazado_655102" data-name="Trazado 655102" d="M172.991,171.7c-7.408.71-14.809,1.251-22.2,1.817l-11.082.88c-3.69.3-7.379.6-11.057.984-3.681.341-7.353.747-11,1.262-1.822.247-3.636.53-5.419.89-.89.18-1.771.386-2.628.622a10.719,10.719,0,0,0-2.346.876,1.852,1.852,0,0,0-.353.251c-.082.076-.047.07-.047-.048s-.058-.1.027-.007a1.648,1.648,0,0,0,.348.291,11.141,11.141,0,0,0,2.324,1.031,50.434,50.434,0,0,0,5.3,1.409c3.6.814,7.263,1.435,10.921,2.114-3.72-.122-7.431-.412-11.14-.892a49.981,49.981,0,0,1-5.557-1.044,11.389,11.389,0,0,1-2.814-1.071,3.5,3.5,0,0,1-.741-.568,1.831,1.831,0,0,1-.563-1.233,1.86,1.86,0,0,1,.512-1.284,3.609,3.609,0,0,1,.73-.616,12.361,12.361,0,0,1,2.788-1.239c.922-.3,1.844-.535,2.765-.755,1.844-.434,3.689-.783,5.536-1.093,3.7-.6,7.4-1.025,11.111-1.409q11.13-1.04,22.282-1.312c7.434-.195,14.869-.19,22.3.146" transform="translate(-29.255 -47.778)" fill="#71c9ff"/>
            <path id="Trazado_655103" data-name="Trazado 655103" d="M248.345,34a19.569,19.569,0,1,1-19.568-19.568A19.568,19.568,0,0,1,248.345,34" transform="translate(-58.31 -4.023)" fill="#6e7072"/>
            <path id="Trazado_655104" data-name="Trazado 655104" d="M246.193,35.358A16.061,16.061,0,1,1,230.132,19.3a16.061,16.061,0,0,1,16.061,16.061" transform="translate(-59.665 -5.378)" fill="#585759"/>
            <rect id="Rectángulo_341302" data-name="Rectángulo 341302" width="14.229" height="16.392" transform="translate(163.581 6.564)" fill="#96999c"/>
            <rect id="Rectángulo_341303" data-name="Rectángulo 341303" width="18.171" height="6.414" transform="translate(174.275 3.357)" fill="#a9acaf"/>
            <rect id="Rectángulo_341304" data-name="Rectángulo 341304" width="18.171" height="2.112" transform="translate(174.275 7.659)" fill="#838588"/>
            <path id="Trazado_655105" data-name="Trazado 655105" d="M272.744,6.564A6.564,6.564,0,1,1,266.181,0a6.563,6.563,0,0,1,6.564,6.564" transform="translate(-72.36)" fill="#a9acaf"/>
            <path id="Trazado_655106" data-name="Trazado 655106" d="M266.181,11.291a6.562,6.562,0,0,1-6.3-4.731,6.564,6.564,0,1,0,12.6,0,6.562,6.562,0,0,1-6.3,4.731" transform="translate(-72.36 -1.828)" fill="#838588"/>
            <rect id="Rectángulo_341305" data-name="Rectángulo 341305" width="18.171" height="6.414" transform="translate(149.344 3.357)" fill="#a9acaf"/>
            <rect id="Rectángulo_341306" data-name="Rectángulo 341306" width="18.171" height="2.112" transform="translate(149.344 7.659)" fill="#838588"/>
            <path id="Trazado_655107" data-name="Trazado 655107" d="M196.047,6.564A6.564,6.564,0,1,0,202.611,0a6.563,6.563,0,0,0-6.564,6.564" transform="translate(-54.642)" fill="#a9acaf"/>
            <path id="Trazado_655108" data-name="Trazado 655108" d="M202.611,11.291a6.562,6.562,0,0,0,6.3-4.731,6.564,6.564,0,1,1-12.6,0,6.562,6.562,0,0,0,6.3,4.731" transform="translate(-54.642 -1.828)" fill="#838588"/>
            <path id="Trazado_655109" data-name="Trazado 655109" d="M241.7,18.382H223.29a1.56,1.56,0,0,0-1.56,1.56V34.874h21.531V19.942a1.56,1.56,0,0,0-1.56-1.56" transform="translate(-61.8 -5.123)" fill="#a9acaf"/>
            <path id="Trazado_655110" data-name="Trazado 655110" d="M247.66,18.382h-4.548V34.874h6.109V19.942a1.56,1.56,0,0,0-1.56-1.56" transform="translate(-67.759 -5.123)" fill="#838588"/>
            <path id="Trazado_655111" data-name="Trazado 655111" d="M232.5,24.543h0a14.385,14.385,0,0,0-10.766,4.843v7.206h21.531V29.386A14.383,14.383,0,0,0,232.5,24.543" transform="translate(-61.8 -6.841)" fill="#838588"/>
            <path id="Trazado_655112" data-name="Trazado 655112" d="M231.079,29.2h0a14.433,14.433,0,0,0-14.434,14.434V78.661h28.867V43.635A14.433,14.433,0,0,0,231.079,29.2" transform="translate(-60.383 -8.139)" fill="#a9acaf"/>
            <path id="Trazado_655113" data-name="Trazado 655113" d="M241.02,29.693a16.677,16.677,0,0,1,5.025,11.949V78.8h6.261V43.772A14.432,14.432,0,0,0,241.02,29.693" transform="translate(-67.176 -8.276)" fill="#838588"/>
            <rect id="Rectángulo_341307" data-name="Rectángulo 341307" width="28.867" height="16.034" transform="translate(156.262 52.656)" fill="#838588"/>
            <path id="Trazado_655114" data-name="Trazado 655114" d="M245.166,75.544H215.223a1.749,1.749,0,0,0-1.749,1.749V89.828a1.748,1.748,0,0,0,1.749,1.749h29.943a1.749,1.749,0,0,0,1.749-1.749V77.293a1.749,1.749,0,0,0-1.749-1.749" transform="translate(-59.499 -21.055)" fill="#a9acaf"/>
            <path id="Trazado_655115" data-name="Trazado 655115" d="M255.377,75.544h-5.268a1.749,1.749,0,0,1,1.749,1.749V89.828a1.749,1.749,0,0,1-1.749,1.749h5.268a1.749,1.749,0,0,0,1.749-1.749V77.293a1.749,1.749,0,0,0-1.749-1.749" transform="translate(-69.71 -21.055)" fill="#838588"/>
            <path id="Trazado_655116" data-name="Trazado 655116" d="M240.959,6.564A6.564,6.564,0,1,1,234.4,0a6.563,6.563,0,0,1,6.564,6.564" transform="translate(-63.501)" fill="#a9acaf"/>
            <path id="Trazado_655117" data-name="Trazado 655117" d="M234.4,11.291a6.562,6.562,0,0,1-6.3-4.731,6.564,6.564,0,1,0,12.6,0,6.562,6.562,0,0,1-6.3,4.731" transform="translate(-63.501 -1.828)" fill="#838588"/>
            <path id="Trazado_655118" data-name="Trazado 655118" d="M231.993,103.314s-12.783,14.121-12.783,26.253a12.783,12.783,0,1,0,25.565,0c0-9.253-8.29-11.96-12.783-26.253" transform="translate(-61.098 -28.795)" fill="#3dacff"/>
            <path id="Trazado_655119" data-name="Trazado 655119" d="M230.722,142.358a11.717,11.717,0,0,1-1.99-.851,12.6,12.6,0,0,1-1.751-1.116,9.9,9.9,0,0,1-2.75-3.135,13.122,13.122,0,0,1-1.192-7.581,21.848,21.848,0,0,1,2.224-7.012,31.862,31.862,0,0,1,3.956-6.086,31.158,31.158,0,0,0-3.172,6.4,20.518,20.518,0,0,0-1.316,6.8,11.245,11.245,0,0,0,1.7,6.239,7.322,7.322,0,0,0,2.263,2.038,9.687,9.687,0,0,0,1.425.7,8.672,8.672,0,0,0,1.445.444,1.641,1.641,0,0,1,1.351,1.909,1.687,1.687,0,0,1-1.971,1.308,1.936,1.936,0,0,1-.216-.053" transform="translate(-62.132 -32.492)" fill="#71c9ff"/>
            <path id="Trazado_655120" data-name="Trazado 655120" d="M241.108,124.842a15.132,15.132,0,0,1,3.055,8.894,12.777,12.777,0,0,1-22.552,8.235,12.775,12.775,0,0,0,23.833-6.4c0-4.406-1.881-7.33-4.336-10.725" transform="translate(-61.767 -34.796)" fill="#0092ff"/>
            <path id="Trazado_655121" data-name="Trazado 655121" d="M235.911,168.8A47.421,47.421,0,0,0,282.088,143.6a5.664,5.664,0,0,0-1.2-6.9c-1.283-1.114-3.069-1.634-5.4-.07-5.487,3.681-2.082,10.123-5.8,16.157-2.318,3.764-5.706,1.686-5.513-.488.3-3.348,4.905-4.593,2.829-7.291-1.773-2.3-5.306.521-5.539,4.271s-.778,9.524-6.424,13.521c-5.869,4.155-19.133,5.993-19.133,5.993" transform="translate(-65.752 -37.808)" fill="#3dacff"/>
            <path id="Trazado_655122" data-name="Trazado 655122" d="M288.361,133.729a5.958,5.958,0,0,0-2.49,1.3,6.953,6.953,0,0,0-1.706,2.407,11.689,11.689,0,0,0-.835,3,15.062,15.062,0,0,0-.131,3.182,15.282,15.282,0,0,1-.323-3.216,12.343,12.343,0,0,1,.431-3.271,8.1,8.1,0,0,1,1.578-3.046,7.57,7.57,0,0,1,2.887-2.08.913.913,0,0,1,.708,1.682,1.032,1.032,0,0,1-.12.041" transform="translate(-78.843 -36.772)" fill="#3dacff"/>
            <path id="Trazado_655123" data-name="Trazado 655123" d="M281.313,155.018a8.835,8.835,0,0,1-.376,1.077,8.655,8.655,0,0,1-.5,1.009,5.464,5.464,0,0,1-.675.943,3.032,3.032,0,0,1-.98.747,2.217,2.217,0,0,1-.621.173,2.145,2.145,0,0,1-.618-.029,1.837,1.837,0,0,1-1.066-.537,1.407,1.407,0,0,1-.309-1.1,2.878,2.878,0,0,1,.308-1,2.762,2.762,0,0,0-.076,1,1.053,1.053,0,0,0,.4.762,1.284,1.284,0,0,0,.806.18,1.208,1.208,0,0,0,.731-.255,2.957,2.957,0,0,0,.856-1.451,7.8,7.8,0,0,0,.324-1.813.917.917,0,0,1,1.834.069.933.933,0,0,1-.03.2Z" transform="translate(-76.971 -42.878)" fill="#3dacff"/>
            <path id="Trazado_655124" data-name="Trazado 655124" d="M264.25,159.4l-.308.951-.154.474-.078.236-.1.229a14.874,14.874,0,0,1-.863,1.795,13.511,13.511,0,0,1-2.38,3.146,13.325,13.325,0,0,1-3.128,2.317,12.7,12.7,0,0,1-3.6,1.325,12.522,12.522,0,0,0,3.407-1.65,12.719,12.719,0,0,0,2.767-2.506,12.58,12.58,0,0,0,1.92-3.139,13.665,13.665,0,0,0,.626-1.721l.071-.217.049-.224.1-.449.195-.892.015-.07a.76.76,0,1,1,1.486.325c-.005.024-.012.048-.019.071" transform="translate(-70.693 -44.15)" fill="#3dacff"/>
            <path id="Trazado_655125" data-name="Trazado 655125" d="M216.25,168.8A47.421,47.421,0,0,1,170.073,143.6a5.664,5.664,0,0,1,1.2-6.9c1.283-1.114,3.069-1.634,5.4-.07,5.487,3.681,2.082,10.123,5.8,16.157,2.318,3.764,5.706,1.686,5.513-.488-.3-3.348-4.906-4.593-2.83-7.291,1.773-2.3,5.305.521,5.539,4.271s.778,9.524,6.424,13.521c5.869,4.155,19.133,5.993,19.133,5.993" transform="translate(-47.215 -37.808)" fill="#3dacff"/>
            <path id="Trazado_655126" data-name="Trazado 655126" d="M179.523,133.729a5.958,5.958,0,0,1,2.49,1.3,6.953,6.953,0,0,1,1.706,2.407,11.691,11.691,0,0,1,.835,3,15.109,15.109,0,0,1,.131,3.182,15.33,15.33,0,0,0,.323-3.216,12.314,12.314,0,0,0-.432-3.271A8.087,8.087,0,0,0,183,134.086a7.57,7.57,0,0,0-2.887-2.08.913.913,0,0,0-.709,1.682,1.086,1.086,0,0,0,.121.041" transform="translate(-49.847 -36.772)" fill="#3dacff"/>
            <path id="Trazado_655127" data-name="Trazado 655127" d="M186.947,155.018a8.838,8.838,0,0,0,.377,1.077,8.648,8.648,0,0,0,.5,1.009,5.464,5.464,0,0,0,.675.943,3.032,3.032,0,0,0,.98.747,2.216,2.216,0,0,0,.622.173,2.141,2.141,0,0,0,.617-.029,1.837,1.837,0,0,0,1.066-.537,1.407,1.407,0,0,0,.309-1.1,2.878,2.878,0,0,0-.308-1,2.762,2.762,0,0,1,.076,1,1.054,1.054,0,0,1-.4.762,1.283,1.283,0,0,1-.8.18,1.209,1.209,0,0,1-.731-.255,2.957,2.957,0,0,1-.856-1.451,7.8,7.8,0,0,1-.324-1.813.917.917,0,0,0-1.833.069.892.892,0,0,0,.031.2Z" transform="translate(-52.095 -42.878)" fill="#3dacff"/>
            <path id="Trazado_655128" data-name="Trazado 655128" d="M201.9,159.4l.308.951.154.474.078.236.1.229a14.867,14.867,0,0,0,.863,1.795,13.531,13.531,0,0,0,2.38,3.146,13.325,13.325,0,0,0,3.128,2.317,12.7,12.7,0,0,0,3.6,1.325,12.522,12.522,0,0,1-3.407-1.65,12.719,12.719,0,0,1-2.767-2.506,12.579,12.579,0,0,1-1.92-3.139,13.778,13.778,0,0,1-.626-1.721l-.071-.217-.049-.224-.1-.449-.2-.892-.015-.07a.76.76,0,1,0-1.486.325c.005.024.012.048.019.071" transform="translate(-56.262 -44.15)" fill="#3dacff"/>
            <path id="Trazado_655129" data-name="Trazado 655129" d="M280.884,172.341a32.62,32.62,0,0,0,34.846-9.749,3.9,3.9,0,0,0,.264-4.812,2.794,2.794,0,0,0-3.609-.881c-4.247,1.62-2.96,6.463-6.384,9.934-2.136,2.165-4.085.248-3.62-1.18.716-2.2,4-2.32,3.024-4.449-.832-1.818-3.637-.47-4.373,2.007s-1.994,6.263-6.4,8.07c-4.576,1.878-13.751,1.06-13.751,1.06" transform="translate(-78.287 -43.649)" fill="#3dacff"/>
            <path id="Trazado_655130" data-name="Trazado 655130" d="M179.139,172.341a32.62,32.62,0,0,1-34.846-9.749,3.9,3.9,0,0,1-.264-4.812,2.793,2.793,0,0,1,3.608-.881c4.247,1.62,2.961,6.463,6.384,9.934,2.136,2.165,4.085.248,3.621-1.18-.717-2.2-4-2.32-3.024-4.449.833-1.818,3.637-.47,4.372,2.007s1.994,6.263,6.4,8.07c4.575,1.878,13.751,1.06,13.751,1.06" transform="translate(-39.946 -43.649)" fill="#3dacff"/>
          </g>
        </g>
      </g>
    </g>
  </g>
</svg>
